STARTFONT 2.1
FONT -FontForge-Monofett-Book-R-Normal--36-360-72-72-P-200-ISO10646-1
SIZE 36 72 72
FONTBOUNDINGBOX 23 41 0 -6
COMMENT "Generated by fontforge, http://fontforge.sourceforge.net"
COMMENT "Copyright (c) 2011 by vernon adams. All rights reserved."
STARTPROPERTIES 40
FOUNDRY "FontForge"
FAMILY_NAME "Monofett"
WEIGHT_NAME "Book"
SLANT "R"
SETWIDTH_NAME "Normal"
ADD_STYLE_NAME ""
PIXEL_SIZE 36
POINT_SIZE 360
RESOLUTION_X 72
RESOLUTION_Y 72
SPACING "P"
AVERAGE_WIDTH 200
CHARSET_REGISTRY "ISO10646"
CHARSET_ENCODING "1"
FONTNAME_REGISTRY ""
CHARSET_COLLECTIONS "ISO8859-2 ISO8859-9 ISO8859-4 ISO10646-1"
FONT_NAME "Monofett"
FACE_NAME "Monofett"
COPYRIGHT "Copyright (c) 2011 by vernon adams. All rights reserved."
FONT_VERSION "1.000"
FONT_ASCENT 29
FONT_DESCENT 7
UNDERLINE_POSITION -5
UNDERLINE_THICKNESS 1
X_HEIGHT 23
CAP_HEIGHT 23
RAW_ASCENT 799
RAW_DESCENT 200
NORM_SPACE 5
RELATIVE_WEIGHT 40
RELATIVE_SETWIDTH 50
SUPERSCRIPT_X 0
SUPERSCRIPT_Y 17
SUPERSCRIPT_SIZE 23
SUBSCRIPT_X 0
SUBSCRIPT_Y 5
SUBSCRIPT_SIZE 23
FIGURE_WIDTH 21
AVG_LOWERCASE_WIDTH 210
AVG_UPPERCASE_WIDTH 210
ENDPROPERTIES
CHARS 409
STARTCHAR uni000D
ENCODING 13
SWIDTH 144 0
DWIDTH 5 0
BBX 1 1 0 0
BITMAP
00
ENDCHAR
STARTCHAR space
ENCODING 32
SWIDTH 144 0
DWIDTH 5 0
BBX 1 1 0 0
BITMAP
00
ENDCHAR
STARTCHAR exclam
ENCODING 33
SWIDTH 424 0
DWIDTH 15 0
BBX 15 24 0 0
BITMAP
0FE0
3FF8
7E7C
7E7E
FE7E
FE7E
FE7E
FE7E
FE7E
FEFE
FEFE
FEFE
FEFE
FFFE
FE7E
FE7E
FFFE
FFFE
FFFE
FFFE
7FFC
7FFC
1FF8
07E0
ENDCHAR
STARTCHAR quotedbl
ENCODING 34
SWIDTH 424 0
DWIDTH 15 0
BBX 15 24 0 0
BITMAP
0FE0
3FF8
7D3C
7D3E
FD3E
FD3E
FFFE
FFFE
FFFE
FFFE
FFFE
FFFE
FFFE
FFFE
FFFE
FFFE
FFFE
FFFE
FFFE
FFFE
7FFC
7FFC
1FF8
07E0
ENDCHAR
STARTCHAR numbersign
ENCODING 35
SWIDTH 482 0
DWIDTH 17 0
BBX 17 24 0 0
BITMAP
0FF800
3FFE00
7FFF00
7E4F80
FECF80
F80780
F80780
FCCF80
FCCF80
FCDF80
FC9F80
F80F80
F80F80
FC9F80
FD9F80
FFFF80
FFFF80
FFFF80
FFFF80
FFFF80
7FFF80
7FFF00
1FFE00
07F800
ENDCHAR
STARTCHAR dollar
ENCODING 36
SWIDTH 578 0
DWIDTH 21 0
BBX 21 24 0 0
BITMAP
0FFF00
3FFFC0
7FDFE0
7E01F0
FC01F8
FCDCF8
FDDFF8
FDDFF8
FCDFF8
FC01F8
FFD9F8
FFDCF8
FFDCF8
FCDDF8
FC01F8
FE01F8
FFDFF8
FFDFF8
FFFFF8
FFFFF0
7FFFF0
7FFFE0
1FFFC0
07FF00
ENDCHAR
STARTCHAR percent
ENCODING 37
SWIDTH 578 0
DWIDTH 21 0
BBX 21 24 0 0
BITMAP
0FFF00
3FFFC0
79EFE0
7067F0
E667F8
E667F8
E04FF8
F0CFF8
FFCFF8
FF9EF8
FF9838
FF9338
FFB338
FF3038
FF3878
FFFFF8
FFFFF8
FFFFF8
FFFFF8
FFFFF0
7FFFF0
7FFFE0
1FFFC0
07FF00
ENDCHAR
STARTCHAR ampersand
ENCODING 38
SWIDTH 578 0
DWIDTH 21 0
BBX 21 24 0 0
BITMAP
0FFF00
3FFFC0
7E03E0
7E7FF0
FCFFF8
FCFFF8
FCFCF8
FE7CF8
FF0078
FE00F8
FEFCF8
FCFCF8
FCFCF8
FEFCF8
FE00F8
FF01F8
FFFFF8
FFFFF8
FFFFF8
FFFFF0
7FFFF0
7FFFE0
1FFFC0
07FF00
ENDCHAR
STARTCHAR quotesingle
ENCODING 39
SWIDTH 424 0
DWIDTH 15 0
BBX 15 24 0 0
BITMAP
0FE0
3FF8
7E7C
7E7E
FE7E
FE7E
FFFE
FFFE
FFFE
FFFE
FFFE
FFFE
FFFE
FFFE
FFFE
FFFE
FFFE
FFFE
FFFE
FFFE
7FFC
7FFC
1FF8
07E0
ENDCHAR
STARTCHAR parenleft
ENCODING 40
SWIDTH 483 0
DWIDTH 17 0
BBX 17 24 0 0
BITMAP
0FF800
3F9E00
7C1F00
7CFF80
FCFF80
FCFF80
FCFF80
FCFF80
FCFF80
FCFF80
FCFF80
FCFF80
FCFF80
FCFF80
FCFF80
FCFF80
FC1F80
FE1F80
FFFF80
FFFF80
7FFF80
7FFF00
1FFE00
07F800
ENDCHAR
STARTCHAR parenright
ENCODING 41
SWIDTH 483 0
DWIDTH 17 0
BBX 17 24 0 0
BITMAP
0FF800
3C7E00
7C1F00
7F9F80
FFCF80
FFCF80
FFCF80
FFCF80
FFCF80
FFCF80
FFCF80
FFCF80
FFCF80
FFCF80
FFCF80
FFCF80
FC1F80
FC1F80
FFFF80
FFFF80
7FFF80
7FFF00
1FFE00
07F800
ENDCHAR
STARTCHAR asterisk
ENCODING 42
SWIDTH 428 0
DWIDTH 15 0
BBX 15 24 0 0
BITMAP
0FE0
3FF8
789C
7C9E
FE3E
F006
F226
FC1E
FC9E
FDDE
FFFE
FFFE
FFFE
FFFE
FFFE
FFFE
FFFE
FFFE
FFFE
FFFE
7FFE
7FFC
1FF8
07E0
ENDCHAR
STARTCHAR plus
ENCODING 43
SWIDTH 428 0
DWIDTH 15 0
BBX 15 24 0 0
BITMAP
0FE0
3E78
7E7C
7E7E
FE7E
F00E
F00E
FE7E
FE7E
FE7E
FFFE
FFFE
FFFE
FFFE
FFFE
FFFE
FFFE
FFFE
FFFE
FFFE
7FFE
7FFC
1FF8
07E0
ENDCHAR
STARTCHAR comma
ENCODING 44
SWIDTH 428 0
DWIDTH 15 0
BBX 15 24 0 0
BITMAP
0FE0
3FF8
7FFC
7FFE
FFFE
FFFE
FFFE
FFFE
FFFE
FFFE
FFFE
FFFE
FFFE
FFFE
FE7E
FE7E
FF7E
FE7E
FFFE
FFFE
7FFE
7FFC
1FF8
07E0
ENDCHAR
STARTCHAR hyphen
ENCODING 45
SWIDTH 428 0
DWIDTH 15 0
BBX 15 24 0 0
BITMAP
0FE0
3FF8
7FFC
7FFE
FFFE
FFFE
F01E
F01E
FFFE
FFFE
FFFE
FFFE
FFFE
FFFE
FFFE
FFFE
FFFE
FFFE
FFFE
FFFE
7FFE
7FFC
1FF8
07E0
ENDCHAR
STARTCHAR period
ENCODING 46
SWIDTH 428 0
DWIDTH 15 0
BBX 15 24 0 0
BITMAP
0FE0
3FF8
7FFC
7FFE
FFFE
FFFE
FFFE
FFFE
FFFE
FFFE
FFFE
FFFE
FFFE
FFFE
FE7E
FE7E
FFFE
FFFE
FFFE
FFFE
7FFE
7FFC
1FF8
07E0
ENDCHAR
STARTCHAR slash
ENCODING 47
SWIDTH 428 0
DWIDTH 15 0
BBX 15 24 0 0
BITMAP
0FE0
3FF8
7F3C
7F3E
FF7E
FE7E
FE7E
FE7E
FE7E
FE7E
FEFE
FCFE
FCFE
FCFE
FCFE
FCFE
FDFE
FFFE
FFFE
FFFE
7FFE
7FFC
1FF8
07E0
ENDCHAR
STARTCHAR zero
ENCODING 48
SWIDTH 578 0
DWIDTH 21 0
BBX 21 24 0 0
BITMAP
0FFF00
3FFFC0
7C00E0
7CFCF0
FDFE78
FDFE78
FDFE78
FDFE78
FDFE78
FDFE78
FDFE78
FDFE78
FDFE78
FCFE78
FC00F8
FE00F8
FFFFF8
FFFFF8
FFFFF8
FFFFF0
7FFFF0
7FFFE0
1FFFC0
07FF00
ENDCHAR
STARTCHAR one
ENCODING 49
SWIDTH 578 0
DWIDTH 21 0
BBX 21 24 0 0
BITMAP
0FFF00
3FCFC0
7F0FE0
7F4FF0
FFCFF8
FFCFF8
FFCFF8
FFCFF8
FFCFF8
FFCFF8
FFCFF8
FFCFF8
FFCFF8
FFCFF8
FFCFF8
FFCFF8
FFFFF8
FFFFF8
FFFFF8
FFFFF0
7FFFF0
7FFFE0
1FFFC0
07FF00
ENDCHAR
STARTCHAR two
ENCODING 50
SWIDTH 578 0
DWIDTH 21 0
BBX 21 24 0 0
BITMAP
0FFF00
3FFFC0
7C00E0
7CFCF0
FCFCF8
FFFCF8
FFFCF8
FFFCF8
FE00F8
FC03F8
FCFFF8
FDFFF8
FDFFF8
FDFFF8
FC00F8
FC00F8
FFFFF8
FFFFF8
FFFFF8
FFFFF0
7FFFF0
7FFFE0
1FFFC0
07FF00
ENDCHAR
STARTCHAR three
ENCODING 51
SWIDTH 578 0
DWIDTH 21 0
BBX 21 24 0 0
BITMAP
0FFF00
3FFFC0
7C01E0
78F8F0
F9FCF8
FFFCF8
FFFCF8
FFFCF8
FF01F8
FF00F8
FFFCF8
FFFCF8
FFFCF8
F9FCF8
F800F8
FC01F8
FFFFF8
FFFFF8
FFFFF8
FFFFF0
7FFFF0
7FFFE0
1FFFC0
07FF00
ENDCHAR
STARTCHAR four
ENCODING 52
SWIDTH 578 0
DWIDTH 21 0
BBX 21 24 0 0
BITMAP
0FFF00
3FFFC0
7CFBE0
7CFBF0
FCFBF8
FCFBF8
FCFBF8
FCFBF8
FCFBF8
FCFBF8
FCFBF8
FE0078
FF0078
FFFBF8
FFFBF8
FFFBF8
FFFFF8
FFFFF8
FFFFF8
FFFFF0
7FFFF0
7FFFE0
1FFFC0
07FF00
ENDCHAR
STARTCHAR five
ENCODING 53
SWIDTH 578 0
DWIDTH 21 0
BBX 21 24 0 0
BITMAP
0FFF00
3FFFC0
7C00E0
7CFFF0
FCFFF8
FCFFF8
FCFFF8
FC01F8
FC00F8
FFFCF8
FFFEF8
FFFEF8
FFFEF8
FCFCF8
FC00F8
FE01F8
FFFFF8
FFFFF8
FFFFF8
FFFFF0
7FFFF0
7FFFE0
1FFFC0
07FF00
ENDCHAR
STARTCHAR six
ENCODING 54
SWIDTH 578 0
DWIDTH 21 0
BBX 21 24 0 0
BITMAP
0FFF00
3FFFC0
7C00E0
7C01F0
FCFFF8
FCFFF8
FCFFF8
FC00F8
FC0078
FCFE78
FCFE78
FCFE78
FCFE78
FCFE78
FC0078
FE00F8
FFFFF8
FFFFF8
FFFFF8
FFFFF0
7FFFF0
7FFFE0
1FFFC0
07FF00
ENDCHAR
STARTCHAR seven
ENCODING 55
SWIDTH 578 0
DWIDTH 21 0
BBX 21 24 0 0
BITMAP
0FFF00
3FFFC0
7E01E0
7FF9F0
FFF3F8
FFF3F8
FFF3F8
FFE7F8
FFE7F8
FFE7F8
FFCFF8
FFCFF8
FFCFF8
FF9FF8
FF9FF8
FF1FF8
FFFFF8
FFFFF8
FFFFF8
FFFFF0
7FFFF0
7FFFE0
1FFFC0
07FF00
ENDCHAR
STARTCHAR eight
ENCODING 56
SWIDTH 578 0
DWIDTH 21 0
BBX 21 24 0 0
BITMAP
0FFF00
3FFFC0
7C00E0
7CFCF0
FDFE78
FDFE78
FDFE78
FCFCF8
FC00F8
FC00F8
FDFE78
FDFE78
FDFE78
FCFEF8
FC00F8
FE01F8
FFFFF8
FFFFF8
FFFFF8
FFFFF0
7FFFF0
7FFFE0
1FFFC0
07FF00
ENDCHAR
STARTCHAR nine
ENCODING 57
SWIDTH 578 0
DWIDTH 21 0
BBX 21 24 0 0
BITMAP
0FFF00
3FFFC0
7C00E0
78FCF0
F9FCF8
F9FCF8
F9FCF8
F9FCF8
F8F8F8
FC00F8
FFFCF8
FFFCF8
FFFCF8
FFFCF8
FE00F8
FC01F8
FFFFF8
FFFFF8
FFFFF8
FFFFF0
7FFFF0
7FFFE0
1FFFC0
07FF00
ENDCHAR
STARTCHAR colon
ENCODING 58
SWIDTH 428 0
DWIDTH 15 0
BBX 15 24 0 0
BITMAP
0FE0
3FF8
7FFC
7FFE
FFFE
FFFE
FFFE
FFFE
FFFE
FE7E
FE7E
FFFE
FFFE
FFFE
FE7E
FE7E
FFFE
FFFE
FFFE
FFFE
7FFE
7FFC
1FF8
07E0
ENDCHAR
STARTCHAR semicolon
ENCODING 59
SWIDTH 428 0
DWIDTH 15 0
BBX 15 24 0 0
BITMAP
0FE0
3FF8
7FFC
7FFE
FFFE
FFFE
FFFE
FFFE
FFFE
FE7E
FE7E
FFFE
FFFE
FFFE
FE7E
FE7E
FF7E
FE7E
FFFE
FFFE
7FFE
7FFC
1FF8
07E0
ENDCHAR
STARTCHAR less
ENCODING 60
SWIDTH 482 0
DWIDTH 17 0
BBX 17 25 0 2
BITMAP
0FF800
3FFE00
7FFF00
7FFF80
FFFF80
FFFF80
FFDF80
FF9F80
FF3F80
FF7F80
FEFF80
FDFF80
FBFF80
FBFF80
FDFF80
FEFF80
FF7F80
FF3F80
FF9F80
FFDF80
FFFF80
7FFF80
7FFF00
1FFE00
0FF800
ENDCHAR
STARTCHAR equal
ENCODING 61
SWIDTH 482 0
DWIDTH 17 0
BBX 17 25 0 2
BITMAP
0FF800
3FFE00
7FFF00
7FFF80
FFFF80
FFFF80
FFFF80
FFFF80
FFFF80
FFFF80
FC0F80
FFFF80
FFFF80
FFFF80
FC0F80
FFFF80
FFFF80
FFFF80
FFFF80
FFFF80
FFFF80
7FFF80
7FFF00
3FFE00
0FF800
ENDCHAR
STARTCHAR greater
ENCODING 62
SWIDTH 482 0
DWIDTH 17 0
BBX 17 25 0 2
BITMAP
0FF800
3FFE00
7FFF00
7FFF80
FFFF80
FFFF80
FFFF80
FEFF80
FE7F80
FF3F80
FF9F80
FFCF80
FFEF80
FFEF80
FFCF80
FF9F80
FF3F80
FE7F80
FEFF80
FFFF80
FFFF80
7FFF80
7FFF00
3FFE00
0FF800
ENDCHAR
STARTCHAR question
ENCODING 63
SWIDTH 578 0
DWIDTH 21 0
BBX 21 24 0 0
BITMAP
0FFF00
3FFFC0
7E00E0
7EFEF0
FEFEF8
FFFEF8
FFFEF8
FFFEF8
FFFCF8
FFC1F8
FFCFF8
FFCFF8
FFCFF8
FFFFF8
FFCFF8
FFCFF8
FFFFF8
FFFFF8
FFFFF8
FFFFF0
7FFFF0
7FFFE0
1FFFC0
07FF00
ENDCHAR
STARTCHAR at
ENCODING 64
SWIDTH 578 0
DWIDTH 21 0
BBX 21 24 0 0
BITMAP
0FFF00
3F83C0
7800E0
71FE70
F3FF38
E703B8
E7FBB8
E7F9B8
E7F9B8
E701B8
E679B8
E6F9B8
E671B8
E701B8
F7FC38
F3FFF8
F84FF8
FC0FF8
FFFFF8
FFFFF0
7FFFF0
7FFFE0
1FFFC0
07FF00
ENDCHAR
STARTCHAR A
ENCODING 65
SWIDTH 578 0
DWIDTH 21 0
BBX 21 24 0 0
BITMAP
0FFF00
3FFFC0
7E01E0
7E79F0
FCFCF8
FCFCF8
FCFCF8
FCFCF8
FCFCF8
FC00F8
FC00F8
FCFCF8
FCFCF8
F9FCF8
F9FE78
F9FE78
FFFFF8
FFFFF8
FFFFF8
FFFFF0
7FFFF0
7FFFE0
1FFFC0
07FF00
ENDCHAR
STARTCHAR B
ENCODING 66
SWIDTH 578 0
DWIDTH 21 0
BBX 21 24 0 0
BITMAP
0FFF00
3FFFC0
7801E0
79FCF0
F9FCF8
F9FCF8
F9FCF8
F9FCF8
F803F8
F800F8
F9FCF8
F9FCF8
F9FCF8
F9FCF8
F800F8
F801F8
FFFFF8
FFFFF8
FFFFF8
FFFFF0
7FFFF0
7FFFE0
1FFFC0
07FF00
ENDCHAR
STARTCHAR C
ENCODING 67
SWIDTH 578 0
DWIDTH 21 0
BBX 21 24 0 0
BITMAP
0FFF00
3FFFC0
7C01E0
7CFDF0
F9FFF8
F9FFF8
F9FFF8
F9FFF8
F9FFF8
F9FFF8
F9FFF8
F9FFF8
F9FFF8
FDFFF8
FC01F8
FE01F8
FFFFF8
FFFFF8
FFFFF8
FFFFF0
7FFFF0
7FFFE0
1FFFC0
07FF00
ENDCHAR
STARTCHAR D
ENCODING 68
SWIDTH 578 0
DWIDTH 21 0
BBX 21 24 0 0
BITMAP
0FFF00
3FFFC0
7C00E0
7CFC70
FCFE78
FCFE78
FCFE78
FCFE78
FCFE78
FCFE78
FCFE78
FCFE78
FCFE78
FCFE78
FC0078
FC00F8
FFFFF8
FFFFF8
FFFFF8
FFFFF0
7FFFF0
7FFFE0
1FFFC0
07FF00
ENDCHAR
STARTCHAR E
ENCODING 69
SWIDTH 578 0
DWIDTH 21 0
BBX 21 24 0 0
BITMAP
0FFF00
3FFFC0
7E00E0
7E7FF0
FE7FF8
FE7FF8
FE7FF8
FE7FF8
FE01F8
FE01F8
FE7FF8
FE7FF8
FE7FF8
FE7FF8
FE00F8
FE00F8
FFFFF8
FFFFF8
FFFFF8
FFFFF0
7FFFF0
7FFFE0
1FFFC0
07FF00
ENDCHAR
STARTCHAR F
ENCODING 70
SWIDTH 578 0
DWIDTH 21 0
BBX 21 24 0 0
BITMAP
0FFF00
3FFFC0
7E00E0
7E7FF0
FE7FF8
FE7FF8
FE7FF8
FE7FF8
FE01F8
FE7FF8
FE7FF8
FE7FF8
FE7FF8
FE7FF8
FE7FF8
FE7FF8
FFFFF8
FFFFF8
FFFFF8
FFFFF0
7FFFF0
7FFFE0
1FFFC0
07FF00
ENDCHAR
STARTCHAR G
ENCODING 71
SWIDTH 578 0
DWIDTH 21 0
BBX 21 24 0 0
BITMAP
0FFF00
3FFFC0
7E00E0
7CFEF0
FCFFF8
FCFFF8
FCFFF8
FCFFF8
FCFFF8
FCF078
FCFE78
FCFE78
FCFE78
FCFE78
FC0078
FE00F8
FFFFF8
FFFFF8
FFFFF8
FFFFF0
7FFFF0
7FFFE0
1FFFC0
07FF00
ENDCHAR
STARTCHAR H
ENCODING 72
SWIDTH 578 0
DWIDTH 21 0
BBX 21 24 0 0
BITMAP
0FFF00
3FFFC0
7CFE60
7CFE70
FCFE78
FCFE78
FCFE78
FCFE78
FC0078
FCFE78
FCFE78
FCFE78
FCFE78
FCFE78
FCFE78
FCFE78
FFFFF8
FFFFF8
FFFFF8
FFFFF0
7FFFF0
7FFFE0
1FFFC0
07FF00
ENDCHAR
STARTCHAR I
ENCODING 73
SWIDTH 578 0
DWIDTH 21 0
BBX 21 24 0 0
BITMAP
0FFF00
3FFFC0
7C00E0
7FCFF0
FFCFF8
FFCFF8
FFCFF8
FFCFF8
FFCFF8
FFCFF8
FFCFF8
FFCFF8
FFCFF8
FFCFF8
FC00F8
FC00F8
FFFFF8
FFFFF8
FFFFF8
FFFFF0
7FFFF0
7FFFE0
1FFFC0
07FF00
ENDCHAR
STARTCHAR J
ENCODING 74
SWIDTH 578 0
DWIDTH 21 0
BBX 21 24 0 0
BITMAP
0FFF00
3FFFC0
7FF3E0
7FF3F0
FFF3F8
FFF3F8
FFF3F8
FFF3F8
FFF3F8
FFF3F8
FFF3F8
FFF3F8
FFF3F8
FFF3F8
FF03F8
FF07F8
FFFFF8
FFFFF8
FFFFF8
FFFFF0
7FFFF0
7FFFE0
1FFFC0
07FF00
ENDCHAR
STARTCHAR K
ENCODING 75
SWIDTH 578 0
DWIDTH 21 0
BBX 21 24 0 0
BITMAP
0FFF80
3FFF40
7E7E20
7E7CF0
FE79F8
FE73F8
FE67F8
FE4FF8
FE1FF8
FE0FF8
FE67F8
FE73F8
FE79F8
FE78F8
FE7C78
FE7E78
FFFFF8
FFFFF8
FFFFF8
FFFFF0
7FFFF0
7FFFE0
1FFFC0
07FF00
ENDCHAR
STARTCHAR L
ENCODING 76
SWIDTH 578 0
DWIDTH 21 0
BBX 21 24 0 0
BITMAP
0FFF00
3FFFC0
7F3FE0
7F3FF0
FF3FF8
FF3FF8
FF3FF8
FF3FF8
FF3FF8
FF3FF8
FF3FF8
FF3FF8
FF3FF8
FF3FF8
FF01F8
FF01F8
FFFFF8
FFFFF8
FFFFF8
FFFFF0
7FFFF0
7FFFE0
1FFFC0
07FF00
ENDCHAR
STARTCHAR M
ENCODING 77
SWIDTH 578 0
DWIDTH 21 0
BBX 21 24 0 0
BITMAP
0FFF00
3FFFC0
782060
7BCF70
FBCF78
FBCF78
FBCF78
FBCF78
FBCF78
FBCF78
FBCF78
FBFF78
FBFF78
FBFF78
FBFF78
FBFF78
FFFFF8
FFFFF8
FFFFF8
FFFFF0
7FFFF0
7FFFE0
1FFFC0
07FF00
ENDCHAR
STARTCHAR N
ENCODING 78
SWIDTH 578 0
DWIDTH 21 0
BBX 21 24 0 0
BITMAP
0FFF00
3FFFC0
7C00E0
7CFCF0
FCFCF8
FCFEF8
FCFEF8
FCFEF8
FCFEF8
FCFEF8
FCFEF8
FCFEF8
FCFEF8
FCFEF8
FCFEF8
FCFEF8
FFFFF8
FFFFF8
FFFFF8
FFFFF0
7FFFF0
7FFFE0
1FFFC0
07FF00
ENDCHAR
STARTCHAR O
ENCODING 79
SWIDTH 578 0
DWIDTH 21 0
BBX 21 24 0 0
BITMAP
0FFF00
3FFFC0
7C00E0
7CFC70
FCFE78
FCFE78
FCFE78
FCFE78
FCFE78
FCFE78
FCFE78
FCFE78
FCFE78
FCFE78
FC0078
FE00F8
FFFFF8
FFFFF8
FFFFF8
FFFFF0
7FFFF0
7FFFE0
1FFFC0
07FF00
ENDCHAR
STARTCHAR P
ENCODING 80
SWIDTH 578 0
DWIDTH 21 0
BBX 21 24 0 0
BITMAP
0FFF00
3FFFC0
7E00E0
7EFCF0
FEFCF8
FEFCF8
FEFCF8
FEFCF8
FEFCF8
FE00F8
FE01F8
FEFFF8
FEFFF8
FEFFF8
FEFFF8
FEFFF8
FFFFF8
FFFFF8
FFFFF8
FFFFF0
7FFFF0
7FFFE0
1FFFC0
07FF00
ENDCHAR
STARTCHAR Q
ENCODING 81
SWIDTH 578 0
DWIDTH 21 0
BBX 21 24 0 0
BITMAP
0FFF00
3FFFC0
7C00E0
7CFC70
FCFE78
FCFE78
FCFE78
FCFE78
FCFE78
FCFE78
FCFE78
FCFE78
FCEE78
FCE678
FC0078
FE00F8
FFF3F8
FFF9F8
FFFBF8
FFFFF0
7FFFF0
7FFFE0
1FFFC0
07FF00
ENDCHAR
STARTCHAR R
ENCODING 82
SWIDTH 578 0
DWIDTH 21 0
BBX 21 24 0 0
BITMAP
0FFF00
3FFFC0
7C01E0
7CF8F0
FCFCF8
FCFCF8
FCFCF8
FCFDF8
FC01F8
FC07F8
FCF9F8
FCFCF8
FCFCF8
FCFCF8
FCFCF8
FCFCF8
FFFFF8
FFFFF8
FFFFF8
FFFFF0
7FFFF0
7FFFE0
1FFFC0
07FF00
ENDCHAR
STARTCHAR S
ENCODING 83
SWIDTH 578 0
DWIDTH 21 0
BBX 21 24 0 0
BITMAP
0FFF00
3FFFC0
7E00E0
7C7EF0
FCFFF8
FCFFF8
FCFFF8
FCFFF8
FE00F8
FF80F8
FFFCF8
FFFEF8
FFFEF8
FFFCF8
FE00F8
FE01F8
FFFFF8
FFFFF8
FFFFF8
FFFFF0
7FFFF0
7FFFE0
1FFFC0
07FF00
ENDCHAR
STARTCHAR T
ENCODING 84
SWIDTH 578 0
DWIDTH 21 0
BBX 21 24 0 0
BITMAP
0FFF00
3FFFC0
7C00E0
7FCFF0
FFCFF8
FFCFF8
FFCFF8
FFCFF8
FFCFF8
FFCFF8
FFCFF8
FFCFF8
FFCFF8
FFCFF8
FFCFF8
FFCFF8
FFFFF8
FFFFF8
FFFFF8
FFFFF0
7FFFF0
7FFFE0
1FFFC0
07FF00
ENDCHAR
STARTCHAR U
ENCODING 85
SWIDTH 578 0
DWIDTH 21 0
BBX 21 24 0 0
BITMAP
0FFF00
3FFFC0
7DFE60
7DFE70
FDFE78
FDFE78
FDFE78
FDFE78
FDFE78
FDFE78
FDFE78
FDFE78
FDFE78
FCFE78
FC00F8
FE00F8
FFFFF8
FFFFF8
FFFFF8
FFFFF0
7FFFF0
7FFFE0
1FFFC0
07FF00
ENDCHAR
STARTCHAR V
ENCODING 86
SWIDTH 578 0
DWIDTH 21 0
BBX 21 24 0 0
BITMAP
0FFF00
3FFFC0
7CFC60
7CFCF0
FCFCF8
FCFCF8
FE79F8
FE79F8
FE79F8
FE79F8
FF33F8
FF33F8
FF33F8
FFB3F8
FF87F8
FFC7F8
FFFFF8
FFFFF8
FFFFF8
FFFFF0
7FFFF0
7FFFE0
1FFFC0
07FF00
ENDCHAR
STARTCHAR W
ENCODING 87
SWIDTH 578 0
DWIDTH 21 0
BBX 21 24 0 0
BITMAP
0FFF00
3FFFC0
73CF20
73CF30
F3CF38
F38F78
F38678
F3A678
F9A678
F9A678
F9A678
F93678
F93278
F93278
F83078
FC78F8
FFFFF8
FFFFF8
FFFFF8
FFFFF0
7FFFF0
7FFFE0
1FFFC0
07FF00
ENDCHAR
STARTCHAR X
ENCODING 88
SWIDTH 578 0
DWIDTH 21 0
BBX 21 24 0 0
BITMAP
0FFF00
3FFFC0
7CFE60
7E7CF0
FE79F8
FF39F8
FF33F8
FF93F8
FFC7F8
FF87F8
FF93F8
FF33F8
FF39F8
FE7CF8
FCFCF8
FCFE78
FFFFF8
FFFFF8
FFFFF8
FFFFF0
7FFFF0
7FFFE0
1FFFC0
07FF00
ENDCHAR
STARTCHAR Y
ENCODING 89
SWIDTH 578 0
DWIDTH 21 0
BBX 21 24 0 0
BITMAP
0FFF00
3FFFC0
7CFCE0
7E7CF0
FE79F8
FF39F8
FF33F8
FF33F8
FF93F8
FF87F8
FFC7F8
FFCFF8
FFCFF8
FFCFF8
FFCFF8
FFCFF8
FFFFF8
FFFFF8
FFFFF8
FFFFF0
7FFFF0
7FFFE0
1FFFC0
07FF00
ENDCHAR
STARTCHAR Z
ENCODING 90
SWIDTH 578 0
DWIDTH 21 0
BBX 21 24 0 0
BITMAP
0FFF00
3FFFC0
7E01E0
7FF9F0
FFF3F8
FFF3F8
FFE7F8
FFE7F8
FFCFF8
FF8FF8
FF9FF8
FF3FF8
FF3FF8
FE7FF8
FE00F8
FE00F8
FFFFF8
FFFFF8
FFFFF8
FFFFF0
7FFFF0
7FFFE0
1FFFC0
07FF00
ENDCHAR
STARTCHAR bracketleft
ENCODING 91
SWIDTH 484 0
DWIDTH 17 0
BBX 18 24 0 0
BITMAP
0FF800
3E3E00
7E3F00
7E7F80
FE7F80
FE7F80
FE7FC0
FE7FC0
FE7FC0
FE7FC0
FE7FC0
FE7FC0
FE7FC0
FE7FC0
FE7FC0
FE7FC0
FE3FC0
FE3FC0
FFFF80
FFFF80
7FFF80
7FFF00
1FFE00
07F800
ENDCHAR
STARTCHAR backslash
ENCODING 92
SWIDTH 516 0
DWIDTH 19 0
BBX 19 24 0 0
BITMAP
0FFC00
3FFF00
7F3F80
7F3FC0
FF3FC0
FF3FE0
FF3FE0
FF3FE0
FF9FE0
FF9FE0
FF9FE0
FF9FE0
FF9FE0
FF9FE0
FFCFE0
FFCFE0
FFFFE0
FFFFE0
FFFFE0
FFFFC0
7FFFC0
7FFF80
1FFF00
07FC00
ENDCHAR
STARTCHAR bracketright
ENCODING 93
SWIDTH 484 0
DWIDTH 17 0
BBX 18 24 0 0
BITMAP
0FF800
3E3E00
7E3F00
7F3F80
FF3F80
FF3F80
FF3FC0
FF3FC0
FF3FC0
FF3FC0
FF3FC0
FF3FC0
FF3FC0
FF3FC0
FF3FC0
FF3FC0
FE3FC0
FE3FC0
FFFF80
FFFF80
7FFF80
7FFF00
1FFE00
07F800
ENDCHAR
STARTCHAR asciicircum
ENCODING 94
SWIDTH 355 0
DWIDTH 13 0
BBX 13 12 0 9
BITMAP
0F80
1FC0
3FE0
3DE0
7AE0
7AF0
7770
F778
FFF8
FFF8
FFF8
7DF0
ENDCHAR
STARTCHAR underscore
ENCODING 95
SWIDTH 428 0
DWIDTH 15 0
BBX 15 24 0 0
BITMAP
0FE0
3FF8
7FFC
7FFE
FFFE
FFFE
FFFE
FFFE
FFFE
FFFE
FFFE
FFFE
FFFE
FFFE
FFFE
FFFE
F00E
F00E
FFFE
FFFE
7FFE
7FFC
1FF8
07E0
ENDCHAR
STARTCHAR grave
ENCODING 96
SWIDTH 308 0
DWIDTH 11 0
BBX 11 12 0 0
BITMAP
3F00
7F80
FFC0
F3C0
F3C0
79C0
79E0
3DE0
3CE0
1FE0
1FC0
0F80
ENDCHAR
STARTCHAR a
ENCODING 97
SWIDTH 578 0
DWIDTH 21 0
BBX 21 24 0 0
BITMAP
0FFF00
3FFFC0
7C01E0
7FF9F0
FFFDF8
FFFDF8
FFFDF8
FFFDF8
FF05F8
FC01F8
F9FDF8
F9FDF8
F9FDF8
F9FDF8
F801F8
FC01F8
FFFFF8
FFFFF8
FFFFF8
FFFFF0
7FFFF0
7FFFE0
1FFFC0
07FF00
ENDCHAR
STARTCHAR b
ENCODING 98
SWIDTH 578 0
DWIDTH 21 0
BBX 21 24 0 0
BITMAP
0FFF00
3FFFC0
7801E0
79FCF0
F9FCF8
F9FCF8
F9FCF8
F9FCF8
F803F8
F800F8
F9FCF8
F9FCF8
F9FCF8
F9FCF8
F800F8
F801F8
FFFFF8
FFFFF8
FFFFF8
FFFFF0
7FFFF0
7FFFE0
1FFFC0
07FF00
ENDCHAR
STARTCHAR c
ENCODING 99
SWIDTH 578 0
DWIDTH 21 0
BBX 21 24 0 0
BITMAP
0FFF00
3FFFC0
7C01E0
7CFDF0
F9FFF8
F9FFF8
F9FFF8
F9FFF8
F9FFF8
F9FFF8
F9FFF8
F9FFF8
F9FFF8
FDFFF8
FC01F8
FE01F8
FFFFF8
FFFFF8
FFFFF8
FFFFF0
7FFFF0
7FFFE0
1FFFC0
07FF00
ENDCHAR
STARTCHAR d
ENCODING 100
SWIDTH 578 0
DWIDTH 21 0
BBX 21 24 0 0
BITMAP
0FFF00
3FFFC0
7C00E0
7CFC70
FCFE78
FCFE78
FCFE78
FCFE78
FCFE78
FCFE78
FCFE78
FCFE78
FCFE78
FCFE78
FC0078
FC00F8
FFFFF8
FFFFF8
FFFFF8
FFFFF0
7FFFF0
7FFFE0
1FFFC0
07FF00
ENDCHAR
STARTCHAR e
ENCODING 101
SWIDTH 578 0
DWIDTH 21 0
BBX 21 24 0 0
BITMAP
0FFF00
3FFFC0
7C01E0
79F9F0
F9FDF8
F9FDF8
F9FDF8
F801F8
F801F8
F9FFF8
F9FFF8
F9FFF8
F9FFF8
F8F9F8
FC01F8
FFFFF8
FFFFF8
FFFFF8
FFFFF8
FFFFF0
7FFFF0
7FFFE0
1FFFC0
07FF00
ENDCHAR
STARTCHAR f
ENCODING 102
SWIDTH 578 0
DWIDTH 21 0
BBX 21 24 0 0
BITMAP
0FFF00
3FFFC0
7E00E0
7E7FF0
FE7FF8
FE7FF8
FE7FF8
FE7FF8
FE01F8
FE7FF8
FE7FF8
FE7FF8
FE7FF8
FE7FF8
FE7FF8
FE7FF8
FFFFF8
FFFFF8
FFFFF8
FFFFF0
7FFFF0
7FFFE0
1FFFC0
07FF00
ENDCHAR
STARTCHAR g
ENCODING 103
SWIDTH 578 0
DWIDTH 21 0
BBX 21 24 0 0
BITMAP
0FFF00
3FFFC0
7E00E0
7CFEF0
FCFFF8
FCFFF8
FCFFF8
FCFFF8
FCFFF8
FCF078
FCFE78
FCFE78
FCFE78
FCFE78
FC0078
FE00F8
FFFFF8
FFFFF8
FFFFF8
FFFFF0
7FFFF0
7FFFE0
1FFFC0
07FF00
ENDCHAR
STARTCHAR h
ENCODING 104
SWIDTH 578 0
DWIDTH 21 0
BBX 21 24 0 0
BITMAP
0FFF00
3FFFC0
7CFE60
7CFE70
FCFE78
FCFE78
FCFE78
FCFE78
FC0078
FCFE78
FCFE78
FCFE78
FCFE78
FCFE78
FCFE78
FCFE78
FFFFF8
FFFFF8
FFFFF8
FFFFF0
7FFFF0
7FFFE0
1FFFC0
07FF00
ENDCHAR
STARTCHAR i
ENCODING 105
SWIDTH 578 0
DWIDTH 21 0
BBX 21 24 0 0
BITMAP
0FFF00
3FFFC0
7C00E0
7FCFF0
FFCFF8
FFCFF8
FFCFF8
FFCFF8
FFCFF8
FFCFF8
FFCFF8
FFCFF8
FFCFF8
FFCFF8
FC00F8
FC00F8
FFFFF8
FFFFF8
FFFFF8
FFFFF0
7FFFF0
7FFFE0
1FFFC0
07FF00
ENDCHAR
STARTCHAR j
ENCODING 106
SWIDTH 578 0
DWIDTH 21 0
BBX 21 24 0 0
BITMAP
0FFF00
3FFFC0
7FF3E0
7FF3F0
FFF3F8
FFF3F8
FFF3F8
FFF3F8
FFF3F8
FFF3F8
FFF3F8
FFF3F8
FFF3F8
FFF3F8
FF03F8
FF07F8
FFFFF8
FFFFF8
FFFFF8
FFFFF0
7FFFF0
7FFFE0
1FFFC0
07FF00
ENDCHAR
STARTCHAR k
ENCODING 107
SWIDTH 578 0
DWIDTH 21 0
BBX 21 24 0 0
BITMAP
0FFF80
3FFF40
7E7E20
7E7CF0
FE79F8
FE73F8
FE67F8
FE4FF8
FE1FF8
FE0FF8
FE67F8
FE73F8
FE79F8
FE78F8
FE7C78
FE7E78
FFFFF8
FFFFF8
FFFFF8
FFFFF0
7FFFF0
7FFFE0
1FFFC0
07FF00
ENDCHAR
STARTCHAR l
ENCODING 108
SWIDTH 578 0
DWIDTH 21 0
BBX 21 24 0 0
BITMAP
0FFF00
3FFFC0
7F3FE0
7F3FF0
FF3FF8
FF3FF8
FF3FF8
FF3FF8
FF3FF8
FF3FF8
FF3FF8
FF3FF8
FF3FF8
FF3FF8
FF01F8
FF01F8
FFFFF8
FFFFF8
FFFFF8
FFFFF0
7FFFF0
7FFFE0
1FFFC0
07FF00
ENDCHAR
STARTCHAR m
ENCODING 109
SWIDTH 578 0
DWIDTH 21 0
BBX 21 24 0 0
BITMAP
0FFF00
3FFFC0
782060
7BCF70
FBCF78
FBCF78
FBCF78
FBCF78
FBCF78
FBCF78
FBCF78
FBFF78
FBFF78
FBFF78
FBFF78
FBFF78
FFFFF8
FFFFF8
FFFFF8
FFFFF0
7FFFF0
7FFFE0
1FFFC0
07FF00
ENDCHAR
STARTCHAR n
ENCODING 110
SWIDTH 578 0
DWIDTH 21 0
BBX 21 24 0 0
BITMAP
0FFF00
3FFFC0
7C00E0
7CFCF0
FCFCF8
FCFEF8
FCFEF8
FCFEF8
FCFEF8
FCFEF8
FCFEF8
FCFEF8
FCFEF8
FCFEF8
FCFEF8
FCFEF8
FFFFF8
FFFFF8
FFFFF8
FFFFF0
7FFFF0
7FFFE0
1FFFC0
07FF00
ENDCHAR
STARTCHAR o
ENCODING 111
SWIDTH 578 0
DWIDTH 21 0
BBX 21 24 0 0
BITMAP
0FFF00
3FFFC0
7C00E0
7CFC70
FCFE78
FCFE78
FCFE78
FCFE78
FCFE78
FCFE78
FCFE78
FCFE78
FCFE78
FCFE78
FC0078
FE00F8
FFFFF8
FFFFF8
FFFFF8
FFFFF0
7FFFF0
7FFFE0
1FFFC0
07FF00
ENDCHAR
STARTCHAR p
ENCODING 112
SWIDTH 578 0
DWIDTH 21 0
BBX 21 24 0 0
BITMAP
0FFF00
3FFFC0
7E00E0
7EFCF0
FEFCF8
FEFCF8
FEFCF8
FEFCF8
FEFCF8
FE00F8
FE01F8
FEFFF8
FEFFF8
FEFFF8
FEFFF8
FEFFF8
FFFFF8
FFFFF8
FFFFF8
FFFFF0
7FFFF0
7FFFE0
1FFFC0
07FF00
ENDCHAR
STARTCHAR q
ENCODING 113
SWIDTH 578 0
DWIDTH 21 0
BBX 21 24 0 0
BITMAP
0FFF00
3FFFC0
7C00E0
7CFC70
FCFE78
FCFE78
FCFE78
FCFE78
FCFE78
FCFE78
FCFE78
FCFE78
FCEE78
FCE678
FC0078
FE00F8
FFF3F8
FFF9F8
FFFBF8
FFFFF0
7FFFF0
7FFFE0
1FFFC0
07FF00
ENDCHAR
STARTCHAR r
ENCODING 114
SWIDTH 578 0
DWIDTH 21 0
BBX 21 24 0 0
BITMAP
0FFF00
3FFFC0
7C01E0
7CF8F0
FCFCF8
FCFCF8
FCFCF8
FCFDF8
FC01F8
FC07F8
FCF9F8
FCFCF8
FCFCF8
FCFCF8
FCFCF8
FCFCF8
FFFFF8
FFFFF8
FFFFF8
FFFFF0
7FFFF0
7FFFE0
1FFFC0
07FF00
ENDCHAR
STARTCHAR s
ENCODING 115
SWIDTH 578 0
DWIDTH 21 0
BBX 21 24 0 0
BITMAP
0FFF00
3FFFC0
7E00E0
7C7EF0
FCFFF8
FCFFF8
FCFFF8
FCFFF8
FE00F8
FF80F8
FFFCF8
FFFEF8
FFFEF8
FFFCF8
FE00F8
FE01F8
FFFFF8
FFFFF8
FFFFF8
FFFFF0
7FFFF0
7FFFE0
1FFFC0
07FF00
ENDCHAR
STARTCHAR t
ENCODING 116
SWIDTH 578 0
DWIDTH 21 0
BBX 21 24 0 0
BITMAP
0FFF00
3FFFC0
7C00E0
7FCFF0
FFCFF8
FFCFF8
FFCFF8
FFCFF8
FFCFF8
FFCFF8
FFCFF8
FFCFF8
FFCFF8
FFCFF8
FFCFF8
FFCFF8
FFFFF8
FFFFF8
FFFFF8
FFFFF0
7FFFF0
7FFFE0
1FFFC0
07FF00
ENDCHAR
STARTCHAR u
ENCODING 117
SWIDTH 578 0
DWIDTH 21 0
BBX 21 24 0 0
BITMAP
0FFF00
3FFFC0
7DFE60
7DFE70
FDFE78
FDFE78
FDFE78
FDFE78
FDFE78
FDFE78
FDFE78
FDFE78
FDFE78
FCFE78
FC00F8
FE00F8
FFFFF8
FFFFF8
FFFFF8
FFFFF0
7FFFF0
7FFFE0
1FFFC0
07FF00
ENDCHAR
STARTCHAR v
ENCODING 118
SWIDTH 578 0
DWIDTH 21 0
BBX 21 24 0 0
BITMAP
0FFF00
3FFFC0
7CFC60
7CFCF0
FCFCF8
FCFCF8
FE79F8
FE79F8
FE79F8
FE79F8
FF33F8
FF33F8
FF33F8
FFB3F8
FF87F8
FFC7F8
FFFFF8
FFFFF8
FFFFF8
FFFFF0
7FFFF0
7FFFE0
1FFFC0
07FF00
ENDCHAR
STARTCHAR w
ENCODING 119
SWIDTH 578 0
DWIDTH 21 0
BBX 21 24 0 0
BITMAP
0FFF00
3FFFC0
73CF20
73CF30
F3CF38
F38F78
F38678
F3A678
F9A678
F9A678
F9A678
F93678
F93278
F93278
F83078
FC78F8
FFFFF8
FFFFF8
FFFFF8
FFFFF0
7FFFF0
7FFFE0
1FFFC0
07FF00
ENDCHAR
STARTCHAR x
ENCODING 120
SWIDTH 578 0
DWIDTH 21 0
BBX 21 24 0 0
BITMAP
0FFF00
3FFFC0
7CFE60
7E7CF0
FE79F8
FF39F8
FF33F8
FF93F8
FFC7F8
FF87F8
FF93F8
FF33F8
FF39F8
FE7CF8
FCFCF8
FCFE78
FFFFF8
FFFFF8
FFFFF8
FFFFF0
7FFFF0
7FFFE0
1FFFC0
07FF00
ENDCHAR
STARTCHAR y
ENCODING 121
SWIDTH 578 0
DWIDTH 21 0
BBX 21 24 0 0
BITMAP
0FFF00
3FFFC0
7CFCE0
7E7CF0
FE79F8
FF39F8
FF33F8
FF33F8
FF93F8
FF87F8
FFC7F8
FFCFF8
FFCFF8
FFCFF8
FFCFF8
FFCFF8
FFFFF8
FFFFF8
FFFFF8
FFFFF0
7FFFF0
7FFFE0
1FFFC0
07FF00
ENDCHAR
STARTCHAR z
ENCODING 122
SWIDTH 578 0
DWIDTH 21 0
BBX 21 24 0 0
BITMAP
0FFF00
3FFFC0
7E01E0
7FF9F0
FFF3F8
FFF3F8
FFE7F8
FFE7F8
FFCFF8
FF8FF8
FF9FF8
FF3FF8
FF3FF8
FE7FF8
FE00F8
FE00F8
FFFFF8
FFFFF8
FFFFF8
FFFFF0
7FFFF0
7FFFE0
1FFFC0
07FF00
ENDCHAR
STARTCHAR braceleft
ENCODING 123
SWIDTH 484 0
DWIDTH 17 0
BBX 18 24 0 0
BITMAP
0FF800
3F0E00
7E0F00
7CFF80
FCFF80
FCFF80
FCFFC0
FCFFC0
F8FFC0
E0FFC0
FCFFC0
FCFFC0
FCFFC0
FCFFC0
FCFFC0
FCFFC0
FE0FC0
FF0FC0
FFFF80
FFFF80
7FFF80
7FFF00
1FFE00
07F800
ENDCHAR
STARTCHAR bar
ENCODING 124
SWIDTH 484 0
DWIDTH 17 0
BBX 18 24 0 0
BITMAP
0F7800
3F7E00
7F7F00
7F7F80
FF7F80
FF7F80
FF7FC0
FF7FC0
FF7FC0
FF7FC0
FF7FC0
FF7FC0
FF7FC0
FF7FC0
FF7FC0
FF7FC0
FF7FC0
FFFFC0
FFFF80
FFFF80
7FFF80
7FFF00
1FFE00
07F800
ENDCHAR
STARTCHAR braceright
ENCODING 125
SWIDTH 484 0
DWIDTH 17 0
BBX 18 24 0 0
BITMAP
0FF800
3C3E00
7C1F00
7F9F80
FF9F80
FF9F80
FF9FC0
FF9FC0
FF8FC0
FFC1C0
FF8FC0
FF9FC0
FF9FC0
FF9FC0
FF9FC0
FF9FC0
FC1FC0
FC3FC0
FFFF80
FFFF80
7FFF80
7FFF00
1FFE00
07F800
ENDCHAR
STARTCHAR asciitilde
ENCODING 126
SWIDTH 578 0
DWIDTH 21 0
BBX 21 24 0 0
BITMAP
0FFF00
3FFFC0
7FFFE0
7FFFF0
FFFFF8
FFFCF8
FC0CF8
FC81F8
FDF1F8
FFFFF8
FFFFF8
FFFFF8
FFFFF8
FFFFF8
FFFFF8
FFFFF8
FFFFF8
FFFFF8
FFFFF8
FFFFF0
7FFFF0
7FFFE0
1FFFC0
07FF00
ENDCHAR
STARTCHAR uni00A0
ENCODING 160
SWIDTH 151 0
DWIDTH 5 0
BBX 1 1 0 0
BITMAP
00
ENDCHAR
STARTCHAR exclamdown
ENCODING 161
SWIDTH 424 0
DWIDTH 15 0
BBX 15 24 0 0
BITMAP
0FE0
3FF8
7E7C
7FFE
FFFE
FE7E
FE7E
FE7E
FE7E
FE7E
FE7E
FE7E
FE7E
FE7E
FE7E
FE7E
FFFE
FFFE
FFFE
FFFE
7FFC
7FFC
1FF8
07E0
ENDCHAR
STARTCHAR cent
ENCODING 162
SWIDTH 578 0
DWIDTH 21 0
BBX 21 24 0 0
BITMAP
0FFF00
3FCFC0
7FCFE0
7F03F0
FE03F8
FCCFF8
FCCFF8
FCCFF8
FCCFF8
FCCFF8
FCCFF8
FCCFF8
FCCFF8
FECBF8
FE03F8
FFCFF8
FFCFF8
FFCFF8
FFFFF8
FFFFF0
7FFFF0
7FFFE0
1FFFC0
07FF00
ENDCHAR
STARTCHAR sterling
ENCODING 163
SWIDTH 578 0
DWIDTH 21 0
BBX 21 24 0 0
BITMAP
0FFF00
3FEFC0
7F03E0
7F39F0
FF79F8
FF79F8
FF7FF8
FF7FF8
FC03F8
FC03F8
FF7FF8
FF7FF8
FF7FF8
FF7FF8
FF01F8
FF01F8
FFFFF8
FFFFF8
FFFFF8
FFFFF0
7FFFF0
7FFFE0
1FFFC0
07FF00
ENDCHAR
STARTCHAR currency
ENCODING 164
SWIDTH 578 0
DWIDTH 21 0
BBX 21 24 0 0
BITMAP
0FFF00
3FFFC0
7CFEE0
7C00F0
FE79F8
FEFDF8
FEFDF8
FEFDF8
FEFDF8
FEFDF8
FE79F8
FE00F8
FCFCF8
FFFFF8
FFFFF8
FFFFF8
FFFFF8
FFFFF8
FFFFF8
FFFFF0
7FFFF0
7FFFE0
1FFFC0
07FF00
ENDCHAR
STARTCHAR yen
ENCODING 165
SWIDTH 578 0
DWIDTH 21 0
BBX 21 24 0 0
BITMAP
0FFF00
3FFFC0
7CF8E0
7CF9F0
FC79F8
FE73F8
FE73F8
FF27F8
FF27F8
FF87F8
FE0BF8
FE13F8
FFCFF8
FE03F8
FFCFF8
FFCFF8
FFFFF8
FFFFF8
FFFFF8
FFFFF0
7FFFF0
7FFFE0
1FFFC0
07FF00
ENDCHAR
STARTCHAR brokenbar
ENCODING 166
SWIDTH 484 0
DWIDTH 17 0
BBX 18 24 0 0
BITMAP
0FF800
3FFE00
7F3F00
7F3F80
FF3F80
FF3F80
FF3FC0
FF3FC0
FFFFC0
FFFFC0
FF3FC0
FF3FC0
FF3FC0
FF3FC0
FF3FC0
FF3FC0
FFFFC0
FFFFC0
FFFF80
FFFF80
7FFF80
7FFF00
1FFE00
07F800
ENDCHAR
STARTCHAR section
ENCODING 167
SWIDTH 578 0
DWIDTH 21 0
BBX 21 24 0 0
BITMAP
0FFF00
3FFFC0
7E00E0
7CFFF0
FCFFF8
FCFFF8
FC1FF8
FE03F8
FF73F8
FF7BF8
FF73F8
FF03F8
FFF9F8
FFFDF8
FFFDF8
FFFDF8
FC01F8
FC03F8
FFFFF8
FFFFF0
7FFFF0
7FFFE0
1FFFC0
07FF00
ENDCHAR
STARTCHAR dieresis
ENCODING 168
SWIDTH 388 0
DWIDTH 14 0
BBX 14 9 0 1
BITMAP
1FE0
7FF0
7FF8
FFFC
E33C
E33C
FFFC
7FF8
7FF8
ENDCHAR
STARTCHAR copyright
ENCODING 169
SWIDTH 578 0
DWIDTH 21 0
BBX 21 24 0 0
BITMAP
0FFF00
3FCFC0
7E01E0
79FCF0
F3FF78
F703B8
EE7FB8
EE7FD8
EE7FD8
EE7FD8
EE7FD8
EE7FD8
EE7F98
E703B8
F30338
F9FE78
FC78F8
FF03F8
FFFFF8
FFFFF0
7FFFF0
7FFFE0
1FFFC0
07FF00
ENDCHAR
STARTCHAR ordfeminine
ENCODING 170
SWIDTH 578 0
DWIDTH 21 0
BBX 21 24 0 0
BITMAP
0FFF00
3FFFC0
7F01E0
7F79F0
FFFDF8
FFFDF8
FFFDF8
FE01F8
FE01F8
FEFDF8
FCFDF8
FE79F8
FE01F8
FFCFF8
FFFFF8
FFFFF8
FFFFF8
FFFFF8
FFFFF8
FFFFF0
7FFFF0
7FFFE0
1FFFC0
07FF00
ENDCHAR
STARTCHAR guillemotleft
ENCODING 171
SWIDTH 578 0
DWIDTH 21 0
BBX 21 24 0 0
BITMAP
0FFF00
3FFFC0
7FFFE0
7FFDF0
FFB9F8
FF33F8
FF77F8
FEEFF8
FCCFF8
F9BFF8
F99FF8
FCCFF8
FEEFF8
FF77F8
FF33F8
FFB9F8
FFFDF8
FFFFF8
FFFFF8
FFFFF0
7FFFF0
7FFFE0
1FFFC0
07FF00
ENDCHAR
STARTCHAR uni00AD
ENCODING 173
SWIDTH 428 0
DWIDTH 15 0
BBX 15 24 0 0
BITMAP
0FE0
3FF8
7FFC
7FFE
FFFE
FFFE
F01E
F01E
FFFE
FFFE
FFFE
FFFE
FFFE
FFFE
FFFE
FFFE
FFFE
FFFE
FFFE
FFFE
7FFE
7FFC
1FF8
07E0
ENDCHAR
STARTCHAR registered
ENCODING 174
SWIDTH 578 0
DWIDTH 21 0
BBX 21 24 0 0
BITMAP
0FFF00
3FCFC0
7E01E0
79FCF0
F30F78
F703B8
EF7BB8
EF7BD8
EF7BD8
EF07D8
EF03D8
EF7BD8
EF7B98
E77BB8
F37B38
F9FE78
FC78F8
FF03F8
FFFFF8
FFFFF0
7FFFF0
7FFFE0
1FFFC0
07FF00
ENDCHAR
STARTCHAR macron
ENCODING 175
SWIDTH 428 0
DWIDTH 15 0
BBX 15 11 0 0
BITMAP
0180
1FF0
3FFC
7FFE
FFFE
F01E
F01E
FFFE
FFFE
7FFC
3FF8
ENDCHAR
STARTCHAR degree
ENCODING 176
SWIDTH 428 0
DWIDTH 15 0
BBX 15 24 0 0
BITMAP
0FE0
3FF8
783C
7B9E
FB9E
FB9E
F81E
FC3E
FFFE
FFFE
FFFE
FFFE
FFFE
FFFE
FFFE
FFFE
FFFE
FFFE
FFFE
FFFE
7FFE
7FFC
1FF8
07E0
ENDCHAR
STARTCHAR plusminus
ENCODING 177
SWIDTH 428 0
DWIDTH 15 0
BBX 15 24 0 0
BITMAP
0FE0
3E78
7E7C
7E7E
FE7E
F00E
F00E
FE7E
FE7E
FE7E
FFFE
FFFE
F01E
F01E
FFFE
FFFE
FFFE
FFFE
FFFE
FFFE
7FFE
7FFC
1FF8
07E0
ENDCHAR
STARTCHAR uni00B2
ENCODING 178
SWIDTH 578 0
DWIDTH 21 0
BBX 21 24 0 0
BITMAP
0FFF00
3FFFC0
7F03E0
7E73F0
FF7BF8
FFC3F8
FE03F8
FE7FF8
FE7FF8
FE03F8
FF03F8
FFFFF8
FFFFF8
FFFFF8
FFFFF8
FFFFF8
FFFFF8
FFFFF8
FFFFF8
FFFFF0
7FFFF0
7FFFE0
1FFFC0
07FF00
ENDCHAR
STARTCHAR uni00B3
ENCODING 179
SWIDTH 578 0
DWIDTH 21 0
BBX 21 24 0 0
BITMAP
0FFF00
3FFFC0
7F01E0
7E38F0
FFFCF8
FFC1F8
FFC1F8
FFFCF8
FE7CF8
FE01F8
FF03F8
FFFFF8
FFFFF8
FFFFF8
FFFFF8
FFFFF8
FFFFF8
FFFFF8
FFFFF8
FFFFF0
7FFFF0
7FFFE0
1FFFC0
07FF00
ENDCHAR
STARTCHAR acute
ENCODING 180
SWIDTH 308 0
DWIDTH 11 0
BBX 11 12 0 0
BITMAP
1F80
3FC0
3FE0
79E0
79E0
73E0
F3C0
F780
F780
FF00
7F00
3E00
ENDCHAR
STARTCHAR uni00B5
ENCODING 181
SWIDTH 578 0
DWIDTH 21 0
BBX 21 24 0 0
BITMAP
0FFF00
3FFFC0
79FCE0
79FCF0
F9FCF8
F9FCF8
F9FCF8
F9FCF8
F9FCF8
F9FCF8
F9FCF8
F9FCF8
F9FCF8
F9FCF8
F800F8
F801F8
F9FFF8
F9FFF8
FFFFF8
FFFFF0
7FFFF0
7FFFE0
1FFFC0
07FF00
ENDCHAR
STARTCHAR paragraph
ENCODING 182
SWIDTH 578 0
DWIDTH 21 0
BBX 21 24 0 0
BITMAP
0FFF00
3FFFC0
7C01E0
7C0DF0
FC0DF8
FC0DF8
FC0DF8
FC0DF8
FC0DF8
FFEDF8
FFEDF8
FFEDF8
FFEDF8
FFEDF8
FFEDF8
FFEDF8
FFFFF8
FFFFF8
FFFFF8
FFFFF0
7FFFF0
7FFFE0
1FFFC0
07FF00
ENDCHAR
STARTCHAR periodcentered
ENCODING 183
SWIDTH 428 0
DWIDTH 15 0
BBX 15 24 0 0
BITMAP
0FE0
3FF8
7FFC
7FFE
FFFE
FFFE
FE7E
FE7E
FFFE
FFFE
FFFE
FFFE
FFFE
FFFE
FFFE
FFFE
FFFE
FFFE
FFFE
FFFE
7FFE
7FFC
1FF8
07E0
ENDCHAR
STARTCHAR cedilla
ENCODING 184
SWIDTH 101 0
DWIDTH 4 0
BBX 4 6 0 -6
BITMAP
30
F0
C0
C0
F0
10
ENDCHAR
STARTCHAR uni00B9
ENCODING 185
SWIDTH 578 0
DWIDTH 21 0
BBX 21 24 0 0
BITMAP
0FFF00
3FCFC0
7F0FE0
7F4FF0
FFCFF8
FFCFF8
FFCFF8
FFCFF8
FFCFF8
FFCFF8
FFCFF8
FFFFF8
FFFFF8
FFFFF8
FFFFF8
FFFFF8
FFFFF8
FFFFF8
FFFFF8
FFFFF0
7FFFF0
7FFFE0
1FFFC0
07FF00
ENDCHAR
STARTCHAR ordmasculine
ENCODING 186
SWIDTH 578 0
DWIDTH 21 0
BBX 21 24 0 0
BITMAP
0FFF00
3FFFC0
7E00E0
7E7CF0
FCFCF8
FCFCF8
FCFCF8
FCFCF8
FCFCF8
FCFCF8
FCFCF8
FE7CF8
FE00F8
FFC7F8
FFFFF8
FFFFF8
FFFFF8
FFFFF8
FFFFF8
FFFFF0
7FFFF0
7FFFE0
1FFFC0
07FF00
ENDCHAR
STARTCHAR guillemotright
ENCODING 187
SWIDTH 578 0
DWIDTH 21 0
BBX 21 24 0 0
BITMAP
0FFF00
3FFFC0
7FFFE0
7DFFF0
FCEFF8
FEE7F8
FF77F8
FF3BF8
FF99F8
FFDDF8
FFDDF8
FF99F8
FF3BF8
FF77F8
FEE7F8
FCEFF8
FDFFF8
FFFFF8
FFFFF8
FFFFF0
7FFFF0
7FFFE0
1FFFC0
07FF00
ENDCHAR
STARTCHAR onequarter
ENCODING 188
SWIDTH 578 0
DWIDTH 21 0
BBX 21 24 0 0
BITMAP
0FFF00
39FFC0
61CFE0
69DFF0
F99FF8
F99FF8
F99FF8
F99FF8
F92738
F92738
F92738
FF2738
FE6738
FE6008
FE7008
FE7F38
FFFF38
FFFF38
FFFFF8
FFFFF0
7FFFF0
7FFFE0
1FFFC0
07FF00
ENDCHAR
STARTCHAR onehalf
ENCODING 189
SWIDTH 578 0
DWIDTH 21 0
BBX 21 24 0 0
BITMAP
0FFF00
39FFC0
61CFE0
69DFF0
F99FF8
F99FF8
F99FF8
F99038
F92318
F93798
F93C18
FF3038
FE77F8
FE67F8
FE6038
FE7038
FFFFF8
FFFFF8
FFFFF8
FFFFF0
7FFFF0
7FFFE0
1FFFC0
07FF00
ENDCHAR
STARTCHAR threequarters
ENCODING 190
SWIDTH 578 0
DWIDTH 21 0
BBX 21 24 0 0
BITMAP
0FFF00
39FFC0
61CFE0
69DFF0
F99FF8
F99FF8
F99FF8
F99018
F92318
F93FC8
F93C18
FF3C18
FE7FD8
FE67D8
FE6018
FE7018
FFFFF8
FFFFF8
FFFFF8
FFFFF0
7FFFF0
7FFFE0
1FFFC0
07FF00
ENDCHAR
STARTCHAR questiondown
ENCODING 191
SWIDTH 578 0
DWIDTH 21 0
BBX 21 24 0 0
BITMAP
0FFF00
3FE7C0
7FE7E0
7FFFF0
FFEFF8
FFEFF8
FFEFF8
FF0FF8
FE0FF8
FEFFF8
FCFFF8
FCFFF8
FCFFF8
FEFCF8
FE00F8
FF83F8
FFFFF8
FFFFF8
FFFFF8
FFFFF0
7FFFF0
7FFFE0
1FFFC0
07FF00
ENDCHAR
STARTCHAR Agrave
ENCODING 192
SWIDTH 578 0
DWIDTH 21 0
BBX 21 34 0 0
BITMAP
03E000
0FF800
1FF800
1E7800
1F3C00
0F3C00
0FBC00
079C00
03DE00
03FC00
0FFF00
3FFFC0
7E01E0
7E79F0
FCFCF8
FCFCF8
FCFCF8
FCFCF8
FCFCF8
FC00F8
FC00F8
FCFCF8
FCFCF8
F9FCF8
F9FE78
F9FE78
FFFFF8
FFFFF8
FFFFF8
FFFFF0
7FFFF0
7FFFE0
1FFFC0
07FF00
ENDCHAR
STARTCHAR Aacute
ENCODING 193
SWIDTH 578 0
DWIDTH 21 0
BBX 21 34 0 0
BITMAP
003E00
00FF80
00FFC0
00F3C0
01E7C0
01E780
01EF80
01CF00
03DE00
01FE00
0FFF00
3FFFC0
7E01E0
7E79F0
FCFCF8
FCFCF8
FCFCF8
FCFCF8
FCFCF8
FC00F8
FC00F8
FCFCF8
FCFCF8
F9FCF8
F9FE78
F9FE78
FFFFF8
FFFFF8
FFFFF8
FFFFF0
7FFFF0
7FFFE0
1FFFC0
07FF00
ENDCHAR
STARTCHAR Acircumflex
ENCODING 194
SWIDTH 578 0
DWIDTH 21 0
BBX 21 35 0 0
BITMAP
007800
01FC00
01FE00
03FE00
03EF00
03AF00
07B780
07B780
073380
0F7B80
0FFF80
0FFF80
3FFFC0
7E01E0
7E79F0
FCFCF8
FCFCF8
FCFCF8
FCFCF8
FCFCF8
FC00F8
FC00F8
FCFCF8
FCFCF8
F9FCF8
F9FE78
F9FE78
FFFFF8
FFFFF8
FFFFF8
FFFFF0
7FFFF0
7FFFE0
1FFFC0
07FF00
ENDCHAR
STARTCHAR Atilde
ENCODING 195
SWIDTH 578 0
DWIDTH 21 0
BBX 21 35 0 0
BITMAP
003000
01FE00
07FF80
0FFFC0
0FFFC0
1FFFE0
1FFFE0
1E39E0
1E03E0
0EE3C0
0FFFC0
0FFF80
3FFFC0
7E01E0
7E79F0
FCFCF8
FCFCF8
FCFCF8
FCFCF8
FCFCF8
FC00F8
FC00F8
FCFCF8
FCFCF8
F9FCF8
F9FE78
F9FE78
FFFFF8
FFFFF8
FFFFF8
FFFFF0
7FFFF0
7FFFE0
1FFFC0
07FF00
ENDCHAR
STARTCHAR Adieresis
ENCODING 196
SWIDTH 578 0
DWIDTH 21 0
BBX 21 32 0 0
BITMAP
01FE00
07FF00
07FF80
0FFFC0
0E33C0
0E33C0
0FFFC0
07FF80
0FFF80
3FFFC0
7E01E0
7E79F0
FCFCF8
FCFCF8
FCFCF8
FCFCF8
FCFCF8
FC00F8
FC00F8
FCFCF8
FCFCF8
F9FCF8
F9FE78
F9FE78
FFFFF8
FFFFF8
FFFFF8
FFFFF0
7FFFF0
7FFFE0
1FFFC0
07FF00
ENDCHAR
STARTCHAR Aring
ENCODING 197
SWIDTH 578 0
DWIDTH 21 0
BBX 21 34 0 0
BITMAP
00FC00
03FE00
07FF00
078780
0F3380
0F7380
0F7380
0F0380
0F8F80
07FF80
0FFF00
3FFFC0
7E01E0
7E79F0
FCFCF8
FCFCF8
FCFCF8
FCFCF8
FCFCF8
FC00F8
FC00F8
FCFCF8
FCFCF8
F9FCF8
F9FE78
F9FE78
FFFFF8
FFFFF8
FFFFF8
FFFFF0
7FFFF0
7FFFE0
1FFFC0
07FF00
ENDCHAR
STARTCHAR AE
ENCODING 198
SWIDTH 578 0
DWIDTH 21 0
BBX 21 24 0 0
BITMAP
0FFF00
3F80C0
7C0060
7CCFF0
FDCFF8
FDCFF8
F9CFF8
F9CFF8
F9C078
F9C078
F9CFF8
F9CFF8
F80FF8
F80FF8
FBC078
F3C078
FFFFF8
FFFFF8
FFFFF8
FFFFF0
7FFFF0
7FFFE0
1FFFC0
07FF00
ENDCHAR
STARTCHAR Ccedilla
ENCODING 199
SWIDTH 578 0
DWIDTH 21 0
BBX 21 24 0 0
BITMAP
0FFF00
3FFFC0
7C01E0
7CFDF0
F9FFF8
F9FFF8
F9FFF8
F9FFF8
F9FFF8
F9FFF8
F9FFF8
F9FFF8
F9FFF8
FDFFF8
FC01F8
FE01F8
FFCFF8
FF0FF8
FF3FF8
FF3FF0
7F0FF0
7FCFE0
1FFFC0
07FF00
ENDCHAR
STARTCHAR Egrave
ENCODING 200
SWIDTH 578 0
DWIDTH 21 0
BBX 21 34 0 0
BITMAP
03F000
0FF800
0FF800
0F3C00
0F3C00
0FBC00
079C00
07DE00
03DE00
01FE00
0FFF00
3FFFC0
7E00E0
7E7FF0
FE7FF8
FE7FF8
FE7FF8
FE7FF8
FE01F8
FE01F8
FE7FF8
FE7FF8
FE7FF8
FE7FF8
FE00F8
FE00F8
FFFFF8
FFFFF8
FFFFF8
FFFFF0
7FFFF0
7FFFE0
1FFFC0
07FF00
ENDCHAR
STARTCHAR Eacute
ENCODING 201
SWIDTH 578 0
DWIDTH 21 0
BBX 21 34 0 0
BITMAP
003F00
007F80
00FFC0
00F3C0
00F7C0
01E780
01E780
01EF00
01CF00
01FE00
0FFF00
3FFFC0
7E00E0
7E7FF0
FE7FF8
FE7FF8
FE7FF8
FE7FF8
FE01F8
FE01F8
FE7FF8
FE7FF8
FE7FF8
FE7FF8
FE00F8
FE00F8
FFFFF8
FFFFF8
FFFFF8
FFFFF0
7FFFF0
7FFFE0
1FFFC0
07FF00
ENDCHAR
STARTCHAR Ecircumflex
ENCODING 202
SWIDTH 578 0
DWIDTH 21 0
BBX 21 35 0 0
BITMAP
007800
00FE00
01FE00
01FF00
03DF00
03D700
039780
07B380
07BBC0
073BC0
07FFC0
0FFF80
3FFFC0
7E00E0
7E7FF0
FE7FF8
FE7FF8
FE7FF8
FE7FF8
FE01F8
FE01F8
FE7FF8
FE7FF8
FE7FF8
FE7FF8
FE00F8
FE00F8
FFFFF8
FFFFF8
FFFFF8
FFFFF0
7FFFF0
7FFFE0
1FFFC0
07FF00
ENDCHAR
STARTCHAR Edieresis
ENCODING 203
SWIDTH 578 0
DWIDTH 21 0
BBX 21 32 0 0
BITMAP
01FE00
03FF80
07FFC0
0FFFC0
0F31C0
0F31C0
0FFFC0
07FFC0
0FFF80
3FFFC0
7E00E0
7E7FF0
FE7FF8
FE7FF8
FE7FF8
FE7FF8
FE01F8
FE01F8
FE7FF8
FE7FF8
FE7FF8
FE7FF8
FE00F8
FE00F8
FFFFF8
FFFFF8
FFFFF8
FFFFF0
7FFFF0
7FFFE0
1FFFC0
07FF00
ENDCHAR
STARTCHAR Igrave
ENCODING 204
SWIDTH 578 0
DWIDTH 21 0
BBX 21 34 0 0
BITMAP
03F000
07F800
0FF800
0F3C00
0F3C00
0F9C00
079E00
03DE00
03DE00
01FE00
0FFF00
3FFFC0
7C00E0
7FCFF0
FFCFF8
FFCFF8
FFCFF8
FFCFF8
FFCFF8
FFCFF8
FFCFF8
FFCFF8
FFCFF8
FFCFF8
FC00F8
FC00F8
FFFFF8
FFFFF8
FFFFF8
FFFFF0
7FFFF0
7FFFE0
1FFFC0
07FF00
ENDCHAR
STARTCHAR Iacute
ENCODING 205
SWIDTH 578 0
DWIDTH 21 0
BBX 21 34 0 0
BITMAP
003F00
007F80
007FC0
00F3C0
00F3C0
00E7C0
01E780
01EF00
01EF00
01FE00
0FFF00
3FFFC0
7C00E0
7FCFF0
FFCFF8
FFCFF8
FFCFF8
FFCFF8
FFCFF8
FFCFF8
FFCFF8
FFCFF8
FFCFF8
FFCFF8
FC00F8
FC00F8
FFFFF8
FFFFF8
FFFFF8
FFFFF0
7FFFF0
7FFFE0
1FFFC0
07FF00
ENDCHAR
STARTCHAR Icircumflex
ENCODING 206
SWIDTH 578 0
DWIDTH 21 0
BBX 21 35 0 0
BITMAP
003800
00FE00
01FE00
01FF00
01D700
03D780
039780
07B380
07BBC0
073BC0
07FFC0
0FFF80
3FFFC0
7C00E0
7FCFF0
FFCFF8
FFCFF8
FFCFF8
FFCFF8
FFCFF8
FFCFF8
FFCFF8
FFCFF8
FFCFF8
FFCFF8
FC00F8
FC00F8
FFFFF8
FFFFF8
FFFFF8
FFFFF0
7FFFF0
7FFFE0
1FFFC0
07FF00
ENDCHAR
STARTCHAR Idieresis
ENCODING 207
SWIDTH 578 0
DWIDTH 21 0
BBX 21 32 0 0
BITMAP
01FF00
03FF80
07FFC0
07FFC0
0F31E0
0F31C0
07FFC0
07FFC0
0FFF80
3FFFC0
7C00E0
7FCFF0
FFCFF8
FFCFF8
FFCFF8
FFCFF8
FFCFF8
FFCFF8
FFCFF8
FFCFF8
FFCFF8
FFCFF8
FC00F8
FC00F8
FFFFF8
FFFFF8
FFFFF8
FFFFF0
7FFFF0
7FFFE0
1FFFC0
07FF00
ENDCHAR
STARTCHAR Eth
ENCODING 208
SWIDTH 578 0
DWIDTH 21 0
BBX 21 24 0 0
BITMAP
0FFF00
3FFFC0
7C00E0
7CFC70
FCFE78
FCFE78
FCFE78
FCFE78
F87E78
FCFE78
FCFE78
FCFE78
FCFE78
FCFE78
FC0078
FC00F8
FFFFF8
FFFFF8
FFFFF8
FFFFF0
7FFFF0
7FFFE0
1FFFC0
07FF00
ENDCHAR
STARTCHAR Ntilde
ENCODING 209
SWIDTH 578 0
DWIDTH 21 0
BBX 21 35 0 0
BITMAP
007000
03FE00
07FF00
0FFF80
1FFFC0
1FFFC0
1FFFC0
1E33C0
1E03C0
1CE3C0
0FFF80
0FFF80
3FFFC0
7C00E0
7CFCF0
FCFCF8
FCFEF8
FCFEF8
FCFEF8
FCFEF8
FCFEF8
FCFEF8
FCFEF8
FCFEF8
FCFEF8
FCFEF8
FCFEF8
FFFFF8
FFFFF8
FFFFF8
FFFFF0
7FFFF0
7FFFE0
1FFFC0
07FF00
ENDCHAR
STARTCHAR Ograve
ENCODING 210
SWIDTH 578 0
DWIDTH 21 0
BBX 21 34 0 0
BITMAP
03F000
0FF800
0FF800
0F3800
0F3C00
0FBC00
079C00
079E00
03DE00
01FE00
0FFF00
3FFFC0
7C00E0
7CFC70
FCFE78
FCFE78
FCFE78
FCFE78
FCFE78
FCFE78
FCFE78
FCFE78
FCFE78
FCFE78
FC0078
FE00F8
FFFFF8
FFFFF8
FFFFF8
FFFFF0
7FFFF0
7FFFE0
1FFFC0
07FF00
ENDCHAR
STARTCHAR Oacute
ENCODING 211
SWIDTH 578 0
DWIDTH 21 0
BBX 21 34 0 0
BITMAP
003F00
007F80
00FFC0
00F3C0
00F7C0
01E780
01EF80
01EF00
01CF00
01FE00
0FFF00
3FFFC0
7C00E0
7CFC70
FCFE78
FCFE78
FCFE78
FCFE78
FCFE78
FCFE78
FCFE78
FCFE78
FCFE78
FCFE78
FC0078
FE00F8
FFFFF8
FFFFF8
FFFFF8
FFFFF0
7FFFF0
7FFFE0
1FFFC0
07FF00
ENDCHAR
STARTCHAR Ocircumflex
ENCODING 212
SWIDTH 578 0
DWIDTH 21 0
BBX 21 35 0 0
BITMAP
007800
00FC00
01FE00
01FF00
03DF00
03D700
07B780
07B780
073380
077BC0
07FFC0
0FFF80
3FFFC0
7C00E0
7CFC70
FCFE78
FCFE78
FCFE78
FCFE78
FCFE78
FCFE78
FCFE78
FCFE78
FCFE78
FCFE78
FC0078
FE00F8
FFFFF8
FFFFF8
FFFFF8
FFFFF0
7FFFF0
7FFFE0
1FFFC0
07FF00
ENDCHAR
STARTCHAR Otilde
ENCODING 213
SWIDTH 578 0
DWIDTH 21 0
BBX 21 35 0 0
BITMAP
003000
01FF00
07FF80
07FFC0
0FFFC0
0FFFE0
1FFFE0
1F39E0
0E01E0
0E63E0
0FFFC0
0FFF80
3FFFC0
7C00E0
7CFC70
FCFE78
FCFE78
FCFE78
FCFE78
FCFE78
FCFE78
FCFE78
FCFE78
FCFE78
FCFE78
FC0078
FE00F8
FFFFF8
FFFFF8
FFFFF8
FFFFF0
7FFFF0
7FFFE0
1FFFC0
07FF00
ENDCHAR
STARTCHAR Odieresis
ENCODING 214
SWIDTH 578 0
DWIDTH 21 0
BBX 21 32 0 0
BITMAP
01FE00
03FF80
07FFC0
0FFFC0
0F31C0
0F31C0
0FFFC0
07FFC0
0FFF80
3FFFC0
7C00E0
7CFC70
FCFE78
FCFE78
FCFE78
FCFE78
FCFE78
FCFE78
FCFE78
FCFE78
FCFE78
FCFE78
FC0078
FE00F8
FFFFF8
FFFFF8
FFFFF8
FFFFF0
7FFFF0
7FFFE0
1FFFC0
07FF00
ENDCHAR
STARTCHAR multiply
ENCODING 215
SWIDTH 578 0
DWIDTH 21 0
BBX 21 24 0 0
BITMAP
0FFF00
3FFFC0
7FFFE0
7FFFF0
FFFFF8
FF7BF8
FF33F8
FF97F8
FFCFF8
FF87F8
FF33F8
FF7BF8
FFFFF8
FFFFF8
FFFFF8
FFFFF8
FFFFF8
FFFFF8
FFFFF8
FFFFF0
7FFFF0
7FFFE0
1FFFC0
07FF00
ENDCHAR
STARTCHAR Oslash
ENCODING 216
SWIDTH 578 0
DWIDTH 21 0
BBX 21 24 0 0
BITMAP
0FFF00
3F87C0
7C00E0
7CFCF0
FDFA78
FDF278
FDF678
FDE678
FDCE78
FDDE78
FD9E78
FD3E78
FD3E78
FC7EF8
FC00F8
FE01F8
FFFFF8
FFFFF8
FFFFF8
FFFFF0
7FFFF0
7FFFE0
1FFFC0
07FF00
ENDCHAR
STARTCHAR Ugrave
ENCODING 217
SWIDTH 578 0
DWIDTH 21 0
BBX 21 34 0 0
BITMAP
03F000
0FF800
0FF800
0F3C00
0F3C00
0FBC00
079C00
07DE00
03DE00
01FE00
0FFF00
3FFFC0
7DFE60
7DFE70
FDFE78
FDFE78
FDFE78
FDFE78
FDFE78
FDFE78
FDFE78
FDFE78
FDFE78
FCFE78
FC00F8
FE00F8
FFFFF8
FFFFF8
FFFFF8
FFFFF0
7FFFF0
7FFFE0
1FFFC0
07FF00
ENDCHAR
STARTCHAR Uacute
ENCODING 218
SWIDTH 578 0
DWIDTH 21 0
BBX 21 34 0 0
BITMAP
003F00
007F80
00FFC0
00F3C0
00F7C0
01E780
01E780
01EF00
01CF00
01FE00
0FFF00
3FFFC0
7DFE60
7DFE70
FDFE78
FDFE78
FDFE78
FDFE78
FDFE78
FDFE78
FDFE78
FDFE78
FDFE78
FCFE78
FC00F8
FE00F8
FFFFF8
FFFFF8
FFFFF8
FFFFF0
7FFFF0
7FFFE0
1FFFC0
07FF00
ENDCHAR
STARTCHAR Ucircumflex
ENCODING 219
SWIDTH 578 0
DWIDTH 21 0
BBX 21 35 0 0
BITMAP
007800
00FE00
01FE00
01FF00
03DF00
03D700
039780
07B380
07BBC0
073BC0
07FFC0
0FFF80
3FFFC0
7DFE60
7DFE70
FDFE78
FDFE78
FDFE78
FDFE78
FDFE78
FDFE78
FDFE78
FDFE78
FDFE78
FCFE78
FC00F8
FE00F8
FFFFF8
FFFFF8
FFFFF8
FFFFF0
7FFFF0
7FFFE0
1FFFC0
07FF00
ENDCHAR
STARTCHAR Udieresis
ENCODING 220
SWIDTH 578 0
DWIDTH 21 0
BBX 21 32 0 0
BITMAP
01FE00
03FF80
07FFC0
0FFFC0
0F31C0
0F31C0
0FFFC0
07FFC0
0FFF80
3FFFC0
7DFE60
7DFE70
FDFE78
FDFE78
FDFE78
FDFE78
FDFE78
FDFE78
FDFE78
FDFE78
FDFE78
FCFE78
FC00F8
FE00F8
FFFFF8
FFFFF8
FFFFF8
FFFFF0
7FFFF0
7FFFE0
1FFFC0
07FF00
ENDCHAR
STARTCHAR Yacute
ENCODING 221
SWIDTH 578 0
DWIDTH 21 0
BBX 21 34 0 0
BITMAP
003F00
007F80
00FFC0
00F3C0
00F7C0
01E780
01EF80
01EF00
01CF00
01FE00
0FFF00
3FFFC0
7CFCE0
7E7CF0
FE79F8
FF39F8
FF33F8
FF33F8
FF93F8
FF87F8
FFC7F8
FFCFF8
FFCFF8
FFCFF8
FFCFF8
FFCFF8
FFFFF8
FFFFF8
FFFFF8
FFFFF0
7FFFF0
7FFFE0
1FFFC0
07FF00
ENDCHAR
STARTCHAR Thorn
ENCODING 222
SWIDTH 578 0
DWIDTH 21 0
BBX 21 24 0 0
BITMAP
0FFF00
3EFFC0
7EFFE0
7EFFF0
FE01F8
FE00F8
FEFCF8
FEFCF8
FEFCF8
FEFCF8
FE00F8
FE01F8
FEFFF8
FEFFF8
FEFFF8
FEFFF8
FFFFF8
FFFFF8
FFFFF8
FFFFF0
7FFFF0
7FFFE0
1FFFC0
07FF00
ENDCHAR
STARTCHAR germandbls
ENCODING 223
SWIDTH 578 0
DWIDTH 21 0
BBX 21 24 0 0
BITMAP
0FFF00
3FFFC0
7C01E0
7CF8F0
FDFCF8
FDFCF8
FDFCF8
FDF1F8
FDF3F8
FDFEF8
FDFE78
FDFE78
FDFE78
FDFE78
FDC0F8
FDC0F8
FFFFF8
FFFFF8
FFFFF8
FFFFF0
7FFFF0
7FFFE0
1FFFC0
07FF00
ENDCHAR
STARTCHAR agrave
ENCODING 224
SWIDTH 578 0
DWIDTH 21 0
BBX 21 34 0 0
BITMAP
03F000
0FF800
0FF800
0F3C00
0F3C00
0FBC00
079C00
07DE00
03DE00
01FE00
0FFF00
3FFFC0
7C01E0
7FF9F0
FFFDF8
FFFDF8
FFFDF8
FFFDF8
FF05F8
FC01F8
F9FDF8
F9FDF8
F9FDF8
F9FDF8
F801F8
FC01F8
FFFFF8
FFFFF8
FFFFF8
FFFFF0
7FFFF0
7FFFE0
1FFFC0
07FF00
ENDCHAR
STARTCHAR aacute
ENCODING 225
SWIDTH 578 0
DWIDTH 21 0
BBX 21 34 0 0
BITMAP
003F00
007F80
00FFC0
00F3C0
00F7C0
01E780
01E780
01EF00
01CF00
01FE00
0FFF00
3FFFC0
7C01E0
7FF9F0
FFFDF8
FFFDF8
FFFDF8
FFFDF8
FF05F8
FC01F8
F9FDF8
F9FDF8
F9FDF8
F9FDF8
F801F8
FC01F8
FFFFF8
FFFFF8
FFFFF8
FFFFF0
7FFFF0
7FFFE0
1FFFC0
07FF00
ENDCHAR
STARTCHAR acircumflex
ENCODING 226
SWIDTH 578 0
DWIDTH 21 0
BBX 21 35 0 0
BITMAP
007800
00FE00
01FE00
01FF00
03DF00
03D700
079780
07B380
07BB80
073BC0
07FFC0
0FFF80
3FFFC0
7C01E0
7FF9F0
FFFDF8
FFFDF8
FFFDF8
FFFDF8
FF05F8
FC01F8
F9FDF8
F9FDF8
F9FDF8
F9FDF8
F801F8
FC01F8
FFFFF8
FFFFF8
FFFFF8
FFFFF0
7FFFF0
7FFFE0
1FFFC0
07FF00
ENDCHAR
STARTCHAR atilde
ENCODING 227
SWIDTH 578 0
DWIDTH 21 0
BBX 21 35 0 0
BITMAP
003800
01FF00
07FF80
07FFC0
0FFFC0
0FFFE0
1FFFE0
1F39E0
0E01E0
0E63E0
0FFFC0
0FFF80
3FFFC0
7C01E0
7FF9F0
FFFDF8
FFFDF8
FFFDF8
FFFDF8
FF05F8
FC01F8
F9FDF8
F9FDF8
F9FDF8
F9FDF8
F801F8
FC01F8
FFFFF8
FFFFF8
FFFFF8
FFFFF0
7FFFF0
7FFFE0
1FFFC0
07FF00
ENDCHAR
STARTCHAR adieresis
ENCODING 228
SWIDTH 578 0
DWIDTH 21 0
BBX 21 32 0 0
BITMAP
01FE00
03FF80
07FFC0
0FFFC0
0F31C0
0F31C0
0FFFC0
07FFC0
0FFF80
3FFFC0
7C01E0
7FF9F0
FFFDF8
FFFDF8
FFFDF8
FFFDF8
FF05F8
FC01F8
F9FDF8
F9FDF8
F9FDF8
F9FDF8
F801F8
FC01F8
FFFFF8
FFFFF8
FFFFF8
FFFFF0
7FFFF0
7FFFE0
1FFFC0
07FF00
ENDCHAR
STARTCHAR aring
ENCODING 229
SWIDTH 578 0
DWIDTH 21 0
BBX 21 34 0 0
BITMAP
00FC00
03FF00
03FF80
078780
0733C0
0F7BC0
0F7BC0
0F03C0
07CFC0
07FF80
0FFF80
3FFFC0
7C01E0
7FF9F0
FFFDF8
FFFDF8
FFFDF8
FFFDF8
FF05F8
FC01F8
F9FDF8
F9FDF8
F9FDF8
F9FDF8
F801F8
FC01F8
FFFFF8
FFFFF8
FFFFF8
FFFFF0
7FFFF0
7FFFE0
1FFFC0
07FF00
ENDCHAR
STARTCHAR ae
ENCODING 230
SWIDTH 578 0
DWIDTH 21 0
BBX 21 24 0 0
BITMAP
0FFF00
3F80C0
7C0060
7CCFF0
FDCFF8
FDCFF8
F9CFF8
F9CFF8
F9C078
F9C078
F9CFF8
F9CFF8
F80FF8
F80FF8
FBC078
F3C078
FFFFF8
FFFFF8
FFFFF8
FFFFF0
7FFFF0
7FFFE0
1FFFC0
07FF00
ENDCHAR
STARTCHAR ccedilla
ENCODING 231
SWIDTH 578 0
DWIDTH 21 0
BBX 21 24 0 0
BITMAP
0FFF00
3FFFC0
7C01E0
7CFDF0
F9FFF8
F9FFF8
F9FFF8
F9FFF8
F9FFF8
F9FFF8
F9FFF8
F9FFF8
F9FFF8
FDFFF8
FC01F8
FE01F8
FFCFF8
FF0FF8
FF7FF8
FF3FF0
7F0FF0
7FCFE0
1FFFC0
07FF00
ENDCHAR
STARTCHAR egrave
ENCODING 232
SWIDTH 578 0
DWIDTH 21 0
BBX 21 35 0 0
BITMAP
03F000
0FF800
0FF800
0F3800
0F3C00
0FBC00
079C00
079E00
03DE00
03FE00
01FC00
0FFF00
3FFFC0
7C01E0
79F9F0
F9FDF8
F9FDF8
F9FDF8
F801F8
F801F8
F9FFF8
F9FFF8
F9FFF8
F9FFF8
F8F9F8
FC01F8
FFFFF8
FFFFF8
FFFFF8
FFFFF8
FFFFF0
7FFFF0
7FFFE0
1FFFC0
07FF00
ENDCHAR
STARTCHAR eacute
ENCODING 233
SWIDTH 578 0
DWIDTH 21 0
BBX 21 35 0 0
BITMAP
007E00
00FF80
00FF80
00E7C0
01E780
01E780
01EF00
03CF00
03DE00
03FE00
01FC00
0FFF00
3FFFC0
7C01E0
79F9F0
F9FDF8
F9FDF8
F9FDF8
F801F8
F801F8
F9FFF8
F9FFF8
F9FFF8
F9FFF8
F8F9F8
FC01F8
FFFFF8
FFFFF8
FFFFF8
FFFFF8
FFFFF0
7FFFF0
7FFFE0
1FFFC0
07FF00
ENDCHAR
STARTCHAR ecircumflex
ENCODING 234
SWIDTH 578 0
DWIDTH 21 0
BBX 21 35 0 0
BITMAP
007000
01FC00
01FC00
03FE00
03AE00
07AF00
07AF00
0F6700
0F7780
0E7380
0FFF80
0FFF00
3FFFC0
7C01E0
79F9F0
F9FDF8
F9FDF8
F9FDF8
F801F8
F801F8
F9FFF8
F9FFF8
F9FFF8
F9FFF8
F8F9F8
FC01F8
FFFFF8
FFFFF8
FFFFF8
FFFFF8
FFFFF0
7FFFF0
7FFFE0
1FFFC0
07FF00
ENDCHAR
STARTCHAR edieresis
ENCODING 235
SWIDTH 578 0
DWIDTH 21 0
BBX 21 32 0 0
BITMAP
03FC00
07FF00
0FFF80
1FFF80
1E6380
1E6380
1FFF80
0FFF80
0FFF00
3FFFC0
7C01E0
79F9F0
F9FDF8
F9FDF8
F9FDF8
F801F8
F801F8
F9FFF8
F9FFF8
F9FFF8
F9FFF8
F8F9F8
FC01F8
FFFFF8
FFFFF8
FFFFF8
FFFFF8
FFFFF0
7FFFF0
7FFFE0
1FFFC0
07FF00
ENDCHAR
STARTCHAR igrave
ENCODING 236
SWIDTH 578 0
DWIDTH 21 0
BBX 21 34 0 0
BITMAP
03F000
0FF800
0FF800
0F3C00
0F3C00
0FBC00
079E00
07DE00
03DE00
01FE00
0FFF00
3FFFC0
7C00E0
7FCFF0
FFCFF8
FFCFF8
FFCFF8
FFCFF8
FFCFF8
FFCFF8
FFCFF8
FFCFF8
FFCFF8
FFCFF8
FC00F8
FC00F8
FFFFF8
FFFFF8
FFFFF8
FFFFF0
7FFFF0
7FFFE0
1FFFC0
07FF00
ENDCHAR
STARTCHAR iacute
ENCODING 237
SWIDTH 578 0
DWIDTH 21 0
BBX 21 34 0 0
BITMAP
003F00
007F80
00FFC0
00F3C0
00F3C0
00E780
01E780
01EF00
01CF00
01FE00
0FFF00
3FFFC0
7C00E0
7FCFF0
FFCFF8
FFCFF8
FFCFF8
FFCFF8
FFCFF8
FFCFF8
FFCFF8
FFCFF8
FFCFF8
FFCFF8
FC00F8
FC00F8
FFFFF8
FFFFF8
FFFFF8
FFFFF0
7FFFF0
7FFFE0
1FFFC0
07FF00
ENDCHAR
STARTCHAR icircumflex
ENCODING 238
SWIDTH 578 0
DWIDTH 21 0
BBX 21 35 0 0
BITMAP
003800
00FE00
01FE00
01FF00
03DF00
03D780
039780
07B380
07BBC0
073BC0
07FFC0
0FFF80
3FFFC0
7C00E0
7FCFF0
FFCFF8
FFCFF8
FFCFF8
FFCFF8
FFCFF8
FFCFF8
FFCFF8
FFCFF8
FFCFF8
FFCFF8
FC00F8
FC00F8
FFFFF8
FFFFF8
FFFFF8
FFFFF0
7FFFF0
7FFFE0
1FFFC0
07FF00
ENDCHAR
STARTCHAR idieresis
ENCODING 239
SWIDTH 578 0
DWIDTH 21 0
BBX 21 32 0 0
BITMAP
01FE00
03FF80
07FFC0
07FFC0
0F31C0
0F31C0
0FFFC0
07FFC0
0FFF80
3FFFC0
7C00E0
7FCFF0
FFCFF8
FFCFF8
FFCFF8
FFCFF8
FFCFF8
FFCFF8
FFCFF8
FFCFF8
FFCFF8
FFCFF8
FC00F8
FC00F8
FFFFF8
FFFFF8
FFFFF8
FFFFF0
7FFFF0
7FFFE0
1FFFC0
07FF00
ENDCHAR
STARTCHAR eth
ENCODING 240
SWIDTH 578 0
DWIDTH 21 0
BBX 21 24 0 0
BITMAP
0FFF00
3FFFC0
7C00E0
7CFC70
FCFE78
FCFE78
FCFE78
FCFE78
F87E78
FCFE78
FCFE78
FCFE78
FCFE78
FCFE78
FC0078
FC00F8
FFFFF8
FFFFF8
FFFFF8
FFFFF0
7FFFF0
7FFFE0
1FFFC0
07FF00
ENDCHAR
STARTCHAR ntilde
ENCODING 241
SWIDTH 578 0
DWIDTH 21 0
BBX 21 35 0 0
BITMAP
007000
03FE00
07FF00
0FFF80
1FFFC0
1FFFC0
1FFFC0
1E33C0
1E03C0
1CE3C0
0FFF80
0FFF80
3FFFC0
7C00E0
7CFCF0
FCFCF8
FCFEF8
FCFEF8
FCFEF8
FCFEF8
FCFEF8
FCFEF8
FCFEF8
FCFEF8
FCFEF8
FCFEF8
FCFEF8
FFFFF8
FFFFF8
FFFFF8
FFFFF0
7FFFF0
7FFFE0
1FFFC0
07FF00
ENDCHAR
STARTCHAR oacute
ENCODING 243
SWIDTH 578 0
DWIDTH 21 0
BBX 21 34 0 0
BITMAP
007E00
00FF80
00FF80
00E7C0
01E780
01E780
01EF00
03CF00
03DE00
03FE00
0FFF00
3FFFC0
7C00E0
7CFC70
FCFE78
FCFE78
FCFE78
FCFE78
FCFE78
FCFE78
FCFE78
FCFE78
FCFE78
FCFE78
FC0078
FE00F8
FFFFF8
FFFFF8
FFFFF8
FFFFF0
7FFFF0
7FFFE0
1FFFC0
07FF00
ENDCHAR
STARTCHAR ocircumflex
ENCODING 244
SWIDTH 578 0
DWIDTH 21 0
BBX 21 35 0 0
BITMAP
007800
00FE00
01FE00
01FF00
03DF00
03D700
039780
07B380
07BBC0
073BC0
07FFC0
0FFF80
3FFFC0
7C00E0
7CFC70
FCFE78
FCFE78
FCFE78
FCFE78
FCFE78
FCFE78
FCFE78
FCFE78
FCFE78
FCFE78
FC0078
FE00F8
FFFFF8
FFFFF8
FFFFF8
FFFFF0
7FFFF0
7FFFE0
1FFFC0
07FF00
ENDCHAR
STARTCHAR otilde
ENCODING 245
SWIDTH 578 0
DWIDTH 21 0
BBX 21 35 0 0
BITMAP
003000
01FE00
07FF80
0FFFC0
0FFFC0
1FFFE0
1FFFE0
1F39E0
1E01E0
0E63C0
0FFFC0
0FFF80
3FFFC0
7C00E0
7CFC70
FCFE78
FCFE78
FCFE78
FCFE78
FCFE78
FCFE78
FCFE78
FCFE78
FCFE78
FCFE78
FC0078
FE00F8
FFFFF8
FFFFF8
FFFFF8
FFFFF0
7FFFF0
7FFFE0
1FFFC0
07FF00
ENDCHAR
STARTCHAR odieresis
ENCODING 246
SWIDTH 578 0
DWIDTH 21 0
BBX 21 32 0 0
BITMAP
01FE00
03FF80
07FFC0
0FFFC0
0F31C0
0F31C0
0FFFC0
07FFC0
0FFF80
3FFFC0
7C00E0
7CFC70
FCFE78
FCFE78
FCFE78
FCFE78
FCFE78
FCFE78
FCFE78
FCFE78
FCFE78
FCFE78
FC0078
FE00F8
FFFFF8
FFFFF8
FFFFF8
FFFFF0
7FFFF0
7FFFE0
1FFFC0
07FF00
ENDCHAR
STARTCHAR divide
ENCODING 247
SWIDTH 428 0
DWIDTH 15 0
BBX 15 24 0 0
BITMAP
0FE0
3FF8
7FFC
7E7E
FE7E
FFFE
F01E
F01E
FFFE
FE7E
FE7E
FFFE
FFFE
FFFE
FFFE
FFFE
FFFE
FFFE
FFFE
FFFE
7FFE
7FFC
1FF8
07E0
ENDCHAR
STARTCHAR oslash
ENCODING 248
SWIDTH 578 0
DWIDTH 21 0
BBX 21 24 0 0
BITMAP
0FFF00
3F87C0
7C00E0
7CFCF0
FDFA78
FDF278
FDF678
FDE678
FDCE78
FDDE78
FD9E78
FD3E78
FD3E78
FC7EF8
FC00F8
FE01F8
FFFFF8
FFFFF8
FFFFF8
FFFFF0
7FFFF0
7FFFE0
1FFFC0
07FF00
ENDCHAR
STARTCHAR ugrave
ENCODING 249
SWIDTH 578 0
DWIDTH 21 0
BBX 21 34 0 0
BITMAP
03F000
0FF800
0FF800
0F3C00
0F3C00
0FBC00
079E00
07DE00
03DE00
01FE00
0FFF00
3FFFC0
7DFE60
7DFE70
FDFE78
FDFE78
FDFE78
FDFE78
FDFE78
FDFE78
FDFE78
FDFE78
FDFE78
FCFE78
FC00F8
FE00F8
FFFFF8
FFFFF8
FFFFF8
FFFFF0
7FFFF0
7FFFE0
1FFFC0
07FF00
ENDCHAR
STARTCHAR uacute
ENCODING 250
SWIDTH 578 0
DWIDTH 21 0
BBX 21 34 0 0
BITMAP
003F00
007F80
00FFC0
00F3C0
00F3C0
00E780
01E780
01EF00
01CF00
01FE00
0FFF00
3FFFC0
7DFE60
7DFE70
FDFE78
FDFE78
FDFE78
FDFE78
FDFE78
FDFE78
FDFE78
FDFE78
FDFE78
FCFE78
FC00F8
FE00F8
FFFFF8
FFFFF8
FFFFF8
FFFFF0
7FFFF0
7FFFE0
1FFFC0
07FF00
ENDCHAR
STARTCHAR ucircumflex
ENCODING 251
SWIDTH 578 0
DWIDTH 21 0
BBX 21 35 0 0
BITMAP
003800
00FE00
01FE00
01FF00
03DF00
03D780
039780
07B380
07BBC0
073BC0
07FFC0
0FFF80
3FFFC0
7DFE60
7DFE70
FDFE78
FDFE78
FDFE78
FDFE78
FDFE78
FDFE78
FDFE78
FDFE78
FDFE78
FCFE78
FC00F8
FE00F8
FFFFF8
FFFFF8
FFFFF8
FFFFF0
7FFFF0
7FFFE0
1FFFC0
07FF00
ENDCHAR
STARTCHAR udieresis
ENCODING 252
SWIDTH 578 0
DWIDTH 21 0
BBX 21 32 0 0
BITMAP
01FE00
03FF80
07FFC0
07FFC0
0F31C0
0F31C0
0FFFC0
07FFC0
0FFF80
3FFFC0
7DFE60
7DFE70
FDFE78
FDFE78
FDFE78
FDFE78
FDFE78
FDFE78
FDFE78
FDFE78
FDFE78
FCFE78
FC00F8
FE00F8
FFFFF8
FFFFF8
FFFFF8
FFFFF0
7FFFF0
7FFFE0
1FFFC0
07FF00
ENDCHAR
STARTCHAR yacute
ENCODING 253
SWIDTH 578 0
DWIDTH 21 0
BBX 21 34 0 0
BITMAP
003F00
007F80
00FFC0
00F3C0
00F7C0
01E780
01EF80
01EF00
01CF00
01FE00
0FFF00
3FFFC0
7CFCE0
7E7CF0
FE79F8
FF39F8
FF33F8
FF33F8
FF93F8
FF87F8
FFC7F8
FFCFF8
FFCFF8
FFCFF8
FFCFF8
FFCFF8
FFFFF8
FFFFF8
FFFFF8
FFFFF0
7FFFF0
7FFFE0
1FFFC0
07FF00
ENDCHAR
STARTCHAR thorn
ENCODING 254
SWIDTH 578 0
DWIDTH 21 0
BBX 21 24 0 0
BITMAP
0FFF00
3EFFC0
7EFFE0
7EFFF0
FE01F8
FE00F8
FEFCF8
FEFCF8
FEFCF8
FEFCF8
FE00F8
FE01F8
FEFFF8
FEFFF8
FEFFF8
FEFFF8
FFFFF8
FFFFF8
FFFFF8
FFFFF0
7FFFF0
7FFFE0
1FFFC0
07FF00
ENDCHAR
STARTCHAR ydieresis
ENCODING 255
SWIDTH 578 0
DWIDTH 21 0
BBX 21 32 0 0
BITMAP
01FE00
03FF80
07FFC0
0FFFC0
0F31C0
0F31C0
0FFFC0
07FFC0
0FFF80
3FFFC0
7CFCE0
7E7CF0
FE79F8
FF39F8
FF33F8
FF33F8
FF93F8
FF87F8
FFC7F8
FFCFF8
FFCFF8
FFCFF8
FFCFF8
FFCFF8
FFFFF8
FFFFF8
FFFFF8
FFFFF0
7FFFF0
7FFFE0
1FFFC0
07FF00
ENDCHAR
STARTCHAR Amacron
ENCODING 256
SWIDTH 578 0
DWIDTH 21 0
BBX 21 33 0 0
BITMAP
003000
03FF00
07FF80
0FFFC0
1FFFC0
1E03E0
1E03E0
1FFFE0
0FFFC0
0FFFC0
3FFFC0
7E01E0
7E79F0
FCFCF8
FCFCF8
FCFCF8
FCFCF8
FCFCF8
FC00F8
FC00F8
FCFCF8
FCFCF8
F9FCF8
F9FE78
F9FE78
FFFFF8
FFFFF8
FFFFF8
FFFFF0
7FFFF0
7FFFE0
1FFFC0
07FF00
ENDCHAR
STARTCHAR amacron
ENCODING 257
SWIDTH 578 0
DWIDTH 21 0
BBX 21 33 0 0
BITMAP
001000
01FF00
07FF80
0FFFC0
0FFFE0
0F03E0
1F03E0
0FFFE0
0FFFC0
0FFFC0
3FFFC0
7C01E0
7FF9F0
FFFDF8
FFFDF8
FFFDF8
FFFDF8
FF05F8
FC01F8
F9FDF8
F9FDF8
F9FDF8
F9FDF8
F801F8
FC01F8
FFFFF8
FFFFF8
FFFFF8
FFFFF0
7FFFF0
7FFFE0
1FFFC0
07FF00
ENDCHAR
STARTCHAR Abreve
ENCODING 258
SWIDTH 578 0
DWIDTH 21 0
BBX 21 34 0 0
BITMAP
003000
03FF00
07FF80
0FFFC0
1FFFC0
1FFFE0
1F7BE0
1F03E0
0F87C0
0FFFC0
0FFF00
3FFFC0
7E01E0
7E79F0
FCFCF8
FCFCF8
FCFCF8
FCFCF8
FCFCF8
FC00F8
FC00F8
FCFCF8
FCFCF8
F9FCF8
F9FE78
F9FE78
FFFFF8
FFFFF8
FFFFF8
FFFFF0
7FFFF0
7FFFE0
1FFFC0
07FF00
ENDCHAR
STARTCHAR abreve
ENCODING 259
SWIDTH 578 0
DWIDTH 21 0
BBX 21 34 0 0
BITMAP
001000
01FF00
07FF80
0FFFC0
0FFFE0
0FFFE0
1F3BE0
0F03E0
0F87C0
07FFC0
0FFF80
3FFFC0
7C01E0
7FF9F0
FFFDF8
FFFDF8
FFFDF8
FFFDF8
FF05F8
FC01F8
F9FDF8
F9FDF8
F9FDF8
F9FDF8
F801F8
FC01F8
FFFFF8
FFFFF8
FFFFF8
FFFFF0
7FFFF0
7FFFE0
1FFFC0
07FF00
ENDCHAR
STARTCHAR Aogonek
ENCODING 260
SWIDTH 578 0
DWIDTH 21 0
BBX 21 24 0 0
BITMAP
0FFF00
3FFFC0
7E01E0
7E79F0
FCFCF8
FCFCF8
FCFCF8
FCFCF8
FCFCF8
FC00F8
FC00F8
FCFCF8
FCFCF8
F9FCF8
F9FE78
F9FE78
FFFCF8
FFF9F8
FFFBF8
FFF9F0
7FF870
7FFC60
1FFFC0
07FF00
ENDCHAR
STARTCHAR aogonek
ENCODING 261
SWIDTH 578 0
DWIDTH 21 0
BBX 21 24 0 0
BITMAP
0FFF00
3FFFC0
7C01E0
7FF9F0
FFFDF8
FFFDF8
FFFDF8
FFFDF8
FF05F8
FC01F8
F9FDF8
F9FDF8
F9FDF8
F9FDF8
F801F8
FC01F8
FFEFF8
FF9FF8
FFBFF8
FFBFF0
7F8FF0
7FCFE0
1FFFC0
07FF00
ENDCHAR
STARTCHAR Cacute
ENCODING 262
SWIDTH 578 0
DWIDTH 21 0
BBX 21 34 0 0
BITMAP
003F00
007F80
007FC0
00F3C0
00F3C0
00E7C0
01E780
01EF00
01EF00
01FE00
0FFF00
3FFFC0
7C01E0
7CFDF0
F9FFF8
F9FFF8
F9FFF8
F9FFF8
F9FFF8
F9FFF8
F9FFF8
F9FFF8
F9FFF8
FDFFF8
FC01F8
FE01F8
FFFFF8
FFFFF8
FFFFF8
FFFFF0
7FFFF0
7FFFE0
1FFFC0
07FF00
ENDCHAR
STARTCHAR cacute
ENCODING 263
SWIDTH 578 0
DWIDTH 21 0
BBX 21 34 0 0
BITMAP
003F00
007F80
00FFC0
00F3C0
00F7C0
01E780
01E780
01EF00
01CF00
01FE00
0FFF00
3FFFC0
7C01E0
7CFDF0
F9FFF8
F9FFF8
F9FFF8
F9FFF8
F9FFF8
F9FFF8
F9FFF8
F9FFF8
F9FFF8
FDFFF8
FC01F8
FE01F8
FFFFF8
FFFFF8
FFFFF8
FFFFF0
7FFFF0
7FFFE0
1FFFC0
07FF00
ENDCHAR
STARTCHAR Ccircumflex
ENCODING 264
SWIDTH 578 0
DWIDTH 21 0
BBX 21 35 0 0
BITMAP
007800
00FC00
01FE00
01FE00
03EF00
03AF00
07B780
07B780
073380
0F7B80
07FF80
0FFF80
3FFFC0
7C01E0
7CFDF0
F9FFF8
F9FFF8
F9FFF8
F9FFF8
F9FFF8
F9FFF8
F9FFF8
F9FFF8
F9FFF8
FDFFF8
FC01F8
FE01F8
FFFFF8
FFFFF8
FFFFF8
FFFFF0
7FFFF0
7FFFE0
1FFFC0
07FF00
ENDCHAR
STARTCHAR ccircumflex
ENCODING 265
SWIDTH 578 0
DWIDTH 21 0
BBX 21 35 0 0
BITMAP
007800
01FC00
01FE00
03FE00
03EF00
03AF00
07B780
07B780
073380
0F7B80
0FFF80
0FFF80
3FFFC0
7C01E0
7CFDF0
F9FFF8
F9FFF8
F9FFF8
F9FFF8
F9FFF8
F9FFF8
F9FFF8
F9FFF8
F9FFF8
FDFFF8
FC01F8
FE01F8
FFFFF8
FFFFF8
FFFFF8
FFFFF0
7FFFF0
7FFFE0
1FFFC0
07FF00
ENDCHAR
STARTCHAR Cdotaccent
ENCODING 266
SWIDTH 578 0
DWIDTH 21 0
BBX 21 33 0 0
BITMAP
002000
07FE00
0FFF00
1FFF80
1FFFC0
3F9FC0
3F9FC0
3F9FC0
1FFFC0
1FFF80
3FFFC0
7C01E0
7CFDF0
F9FFF8
F9FFF8
F9FFF8
F9FFF8
F9FFF8
F9FFF8
F9FFF8
F9FFF8
F9FFF8
FDFFF8
FC01F8
FE01F8
FFFFF8
FFFFF8
FFFFF8
FFFFF0
7FFFF0
7FFFE0
1FFFC0
07FF00
ENDCHAR
STARTCHAR cdotaccent
ENCODING 267
SWIDTH 578 0
DWIDTH 21 0
BBX 21 33 0 0
BITMAP
002000
03FE00
0FFF80
1FFF80
1FFFC0
1F8FC0
1F8FC0
1F8FC0
1FFFC0
0FFF80
3FFFC0
7C01E0
7CFDF0
F9FFF8
F9FFF8
F9FFF8
F9FFF8
F9FFF8
F9FFF8
F9FFF8
F9FFF8
F9FFF8
FDFFF8
FC01F8
FE01F8
FFFFF8
FFFFF8
FFFFF8
FFFFF0
7FFFF0
7FFFE0
1FFFC0
07FF00
ENDCHAR
STARTCHAR Ccaron
ENCODING 268
SWIDTH 578 0
DWIDTH 21 0
BBX 21 34 0 0
BITMAP
039E00
0FFF00
0FFF80
0E7780
0F6780
0F6F00
0F2F00
07AF00
079F00
07FE00
0FFF00
3FFFC0
7C01E0
7CFDF0
F9FFF8
F9FFF8
F9FFF8
F9FFF8
F9FFF8
F9FFF8
F9FFF8
F9FFF8
F9FFF8
FDFFF8
FC01F8
FE01F8
FFFFF8
FFFFF8
FFFFF8
FFFFF0
7FFFF0
7FFFE0
1FFFC0
07FF00
ENDCHAR
STARTCHAR ccaron
ENCODING 269
SWIDTH 578 0
DWIDTH 21 0
BBX 21 34 0 0
BITMAP
03CE00
07FF00
0FFF80
0F7380
0F7780
0F2780
07AF80
07AF00
078F00
07FF00
0FFF00
3FFFC0
7C01E0
7CFDF0
F9FFF8
F9FFF8
F9FFF8
F9FFF8
F9FFF8
F9FFF8
F9FFF8
F9FFF8
F9FFF8
FDFFF8
FC01F8
FE01F8
FFFFF8
FFFFF8
FFFFF8
FFFFF0
7FFFF0
7FFFE0
1FFFC0
07FF00
ENDCHAR
STARTCHAR Dcaron
ENCODING 270
SWIDTH 578 0
DWIDTH 21 0
BBX 21 35 0 0
BITMAP
038E00
07FF00
0FFF80
0E7780
0F7780
0F6780
0FAF00
07AF00
079F00
07FF00
03FE00
0FFF00
3FFFC0
7C00E0
7CFC70
FCFE78
FCFE78
FCFE78
FCFE78
FCFE78
FCFE78
FCFE78
FCFE78
FCFE78
FCFE78
FC0078
FC00F8
FFFFF8
FFFFF8
FFFFF8
FFFFF0
7FFFF0
7FFFE0
1FFFC0
07FF00
ENDCHAR
STARTCHAR dcaron
ENCODING 271
SWIDTH 578 0
DWIDTH 21 0
BBX 21 24 0 0
BITMAP
0FFF00
3FFFC0
700220
73F230
F3F978
F3FA78
F3F9F8
F3F9F8
F3F9F8
F3F9F8
F3F9F8
F3F9F8
F3F9F8
F3FBF8
F003F8
F003F8
FFFFF8
FFFFF8
FFFFF8
FFFFF0
7FFFF0
7FFFE0
1FFFC0
07FF00
ENDCHAR
STARTCHAR Dcroat
ENCODING 272
SWIDTH 578 0
DWIDTH 21 0
BBX 21 24 0 0
BITMAP
0FFF00
3FFFC0
7C00E0
7CFC70
FCFE78
FCFE78
FCFE78
F03E78
F03E78
FCFE78
FCFE78
FCFE78
FCFE78
FCFE78
FC0078
FC00F8
FFFFF8
FFFFF8
FFFFF8
FFFFF0
7FFFF0
7FFFE0
1FFFC0
07FF00
ENDCHAR
STARTCHAR dcroat
ENCODING 273
SWIDTH 578 0
DWIDTH 21 0
BBX 21 24 0 0
BITMAP
0FFF00
3FFFC0
7C00E0
7CFC70
FCFE78
FCFE78
FCFE78
F03E78
F03E78
FCFE78
FCFE78
FCFE78
FCFE78
FCFE78
FC0078
FC00F8
FFFFF8
FFFFF8
FFFFF8
FFFFF0
7FFFF0
7FFFE0
1FFFC0
07FF00
ENDCHAR
STARTCHAR Emacron
ENCODING 274
SWIDTH 578 0
DWIDTH 21 0
BBX 21 33 0 0
BITMAP
001000
01FF00
07FF80
0FFFC0
0FFFE0
0F03E0
0F03E0
0FFFE0
0FFFE0
0FFFC0
3FFFC0
7E00E0
7E7FF0
FE7FF8
FE7FF8
FE7FF8
FE7FF8
FE01F8
FE01F8
FE7FF8
FE7FF8
FE7FF8
FE7FF8
FE00F8
FE00F8
FFFFF8
FFFFF8
FFFFF8
FFFFF0
7FFFF0
7FFFE0
1FFFC0
07FF00
ENDCHAR
STARTCHAR emacron
ENCODING 275
SWIDTH 578 0
DWIDTH 21 0
BBX 21 33 0 0
BITMAP
002000
03FE00
0FFF00
1FFF80
1FFFC0
1E07C0
1E07C0
1FFFC0
1FFFC0
0FFF80
3FFFC0
7C01E0
79F9F0
F9FDF8
F9FDF8
F9FDF8
F801F8
F801F8
F9FFF8
F9FFF8
F9FFF8
F9FFF8
F8F9F8
FC01F8
FFFFF8
FFFFF8
FFFFF8
FFFFF8
FFFFF0
7FFFF0
7FFFE0
1FFFC0
07FF00
ENDCHAR
STARTCHAR Ebreve
ENCODING 276
SWIDTH 578 0
DWIDTH 21 0
BBX 21 34 0 0
BITMAP
001000
01FF00
07FF80
0FFFC0
0FFFE0
0FFFE0
0F3BE0
0F03E0
0F87E0
07FFC0
0FFF80
3FFFC0
7E00E0
7E7FF0
FE7FF8
FE7FF8
FE7FF8
FE7FF8
FE01F8
FE01F8
FE7FF8
FE7FF8
FE7FF8
FE7FF8
FE00F8
FE00F8
FFFFF8
FFFFF8
FFFFF8
FFFFF0
7FFFF0
7FFFE0
1FFFC0
07FF00
ENDCHAR
STARTCHAR ebreve
ENCODING 277
SWIDTH 578 0
DWIDTH 21 0
BBX 21 34 0 0
BITMAP
002000
03FE00
0FFF00
1FFF80
1FFFC0
1FFFC0
1E73C0
1E07C0
1F0FC0
0FFF80
0FFF00
3FFFC0
7C01E0
79F9F0
F9FDF8
F9FDF8
F9FDF8
F801F8
F801F8
F9FFF8
F9FFF8
F9FFF8
F9FFF8
F8F9F8
FC01F8
FFFFF8
FFFFF8
FFFFF8
FFFFF8
FFFFF0
7FFFF0
7FFFE0
1FFFC0
07FF00
ENDCHAR
STARTCHAR Edotaccent
ENCODING 278
SWIDTH 578 0
DWIDTH 21 0
BBX 21 34 0 0
BITMAP
001000
01FF00
07FF80
0FFFC0
0FFFE0
0FCFE0
0FCFE0
0FCFE0
0FFFE0
0FFFC0
0FFFC0
3FFFC0
7E00E0
7E7FF0
FE7FF8
FE7FF8
FE7FF8
FE7FF8
FE01F8
FE01F8
FE7FF8
FE7FF8
FE7FF8
FE7FF8
FE00F8
FE00F8
FFFFF8
FFFFF8
FFFFF8
FFFFF0
7FFFF0
7FFFE0
1FFFC0
07FF00
ENDCHAR
STARTCHAR edotaccent
ENCODING 279
SWIDTH 578 0
DWIDTH 21 0
BBX 21 34 0 0
BITMAP
002000
03FE00
0FFF00
1FFF80
1FFFC0
1F9FC0
1F9FC0
1F9FC0
1FFFC0
1FFF80
0FFF80
3FFFC0
7C01E0
79F9F0
F9FDF8
F9FDF8
F9FDF8
F801F8
F801F8
F9FFF8
F9FFF8
F9FFF8
F9FFF8
F8F9F8
FC01F8
FFFFF8
FFFFF8
FFFFF8
FFFFF8
FFFFF0
7FFFF0
7FFFE0
1FFFC0
07FF00
ENDCHAR
STARTCHAR Eogonek
ENCODING 280
SWIDTH 578 0
DWIDTH 21 0
BBX 21 24 0 0
BITMAP
0FFF00
3FFFC0
7E00E0
7E7FF0
FE7FF8
FE7FF8
FE7FF8
FE7FF8
FE01F8
FE01F8
FE7FF8
FE7FF8
FE7FF8
FE7FF8
FE00F8
FE00F8
FFFFF8
FFFBF8
FFF3F8
FFF3F0
7FF0F0
7FFCE0
1FFFC0
07FF00
ENDCHAR
STARTCHAR eogonek
ENCODING 281
SWIDTH 578 0
DWIDTH 21 0
BBX 21 24 0 0
BITMAP
0FFF00
3FFFC0
7C01E0
79F9F0
F9FDF8
F9FDF8
F9FDF8
F801F8
F801F8
F9FFF8
F9FFF8
F9FFF8
F9FFF8
F8F9F8
FC01F8
FFF7F8
FFCFF8
FF9FF8
FF9FF8
FF87F0
7FC7F0
7FFFE0
1FFFC0
07FF00
ENDCHAR
STARTCHAR Ecaron
ENCODING 282
SWIDTH 578 0
DWIDTH 21 0
BBX 21 34 0 0
BITMAP
01C700
03FF80
07FFC0
073BC0
07BBC0
07B3C0
07D780
03D780
03CF80
03FF00
0FFF00
3FFFC0
7E00E0
7E7FF0
FE7FF8
FE7FF8
FE7FF8
FE7FF8
FE01F8
FE01F8
FE7FF8
FE7FF8
FE7FF8
FE7FF8
FE00F8
FE00F8
FFFFF8
FFFFF8
FFFFF8
FFFFF0
7FFFF0
7FFFE0
1FFFC0
07FF00
ENDCHAR
STARTCHAR ecaron
ENCODING 283
SWIDTH 578 0
DWIDTH 21 0
BBX 21 34 0 0
BITMAP
038E00
07FF00
0FFF80
0E7780
0F7780
0F6780
0FAF00
07AF00
079F00
07FF00
0FFF00
3FFFC0
7C01E0
79F9F0
F9FDF8
F9FDF8
F9FDF8
F801F8
F801F8
F9FFF8
F9FFF8
F9FFF8
F9FFF8
F8F9F8
FC01F8
FFFFF8
FFFFF8
FFFFF8
FFFFF8
FFFFF0
7FFFF0
7FFFE0
1FFFC0
07FF00
ENDCHAR
STARTCHAR Gcircumflex
ENCODING 284
SWIDTH 578 0
DWIDTH 21 0
BBX 21 35 0 0
BITMAP
007800
01FC00
01FE00
03FE00
03EF00
07AF00
07A700
073780
0F7780
0F7380
0FFF80
0FFF80
3FFFC0
7E00E0
7CFEF0
FCFFF8
FCFFF8
FCFFF8
FCFFF8
FCFFF8
FCF078
FCFE78
FCFE78
FCFE78
FCFE78
FC0078
FE00F8
FFFFF8
FFFFF8
FFFFF8
FFFFF0
7FFFF0
7FFFE0
1FFFC0
07FF00
ENDCHAR
STARTCHAR gcircumflex
ENCODING 285
SWIDTH 578 0
DWIDTH 21 0
BBX 21 35 0 0
BITMAP
007800
01FC00
01FE00
03FE00
03EF00
07AF00
07A700
073780
0F7780
0F7380
0FFF80
0FFF80
3FFFC0
7E00E0
7CFEF0
FCFFF8
FCFFF8
FCFFF8
FCFFF8
FCFFF8
FCF078
FCFE78
FCFE78
FCFE78
FCFE78
FC0078
FE00F8
FFFFF8
FFFFF8
FFFFF8
FFFFF0
7FFFF0
7FFFE0
1FFFC0
07FF00
ENDCHAR
STARTCHAR Gbreve
ENCODING 286
SWIDTH 578 0
DWIDTH 21 0
BBX 21 34 0 0
BITMAP
003000
03FE00
07FF80
0FFFC0
1FFFC0
1FFFC0
1F73E0
1F03C0
0F87C0
0FFF80
0FFF00
3FFFC0
7E00E0
7CFEF0
FCFFF8
FCFFF8
FCFFF8
FCFFF8
FCFFF8
FCF078
FCFE78
FCFE78
FCFE78
FCFE78
FC0078
FE00F8
FFFFF8
FFFFF8
FFFFF8
FFFFF0
7FFFF0
7FFFE0
1FFFC0
07FF00
ENDCHAR
STARTCHAR gbreve
ENCODING 287
SWIDTH 578 0
DWIDTH 21 0
BBX 21 34 0 0
BITMAP
002000
03FE00
0FFF00
1FFF80
1FFFC0
1FFFC0
1E73C0
1E07C0
1F0FC0
0FFF80
0FFF00
3FFFC0
7E00E0
7CFEF0
FCFFF8
FCFFF8
FCFFF8
FCFFF8
FCFFF8
FCF078
FCFE78
FCFE78
FCFE78
FCFE78
FC0078
FE00F8
FFFFF8
FFFFF8
FFFFF8
FFFFF0
7FFFF0
7FFFE0
1FFFC0
07FF00
ENDCHAR
STARTCHAR Gdotaccent
ENCODING 288
SWIDTH 578 0
DWIDTH 21 0
BBX 21 34 0 0
BITMAP
002000
03FE00
0FFF00
1FFF80
1FFFC0
1F9FC0
1F9FC0
1F9FC0
1FFFC0
1FFF80
0FFF80
3FFFC0
7E00E0
7CFEF0
FCFFF8
FCFFF8
FCFFF8
FCFFF8
FCFFF8
FCF078
FCFE78
FCFE78
FCFE78
FCFE78
FC0078
FE00F8
FFFFF8
FFFFF8
FFFFF8
FFFFF0
7FFFF0
7FFFE0
1FFFC0
07FF00
ENDCHAR
STARTCHAR gdotaccent
ENCODING 289
SWIDTH 578 0
DWIDTH 21 0
BBX 21 34 0 0
BITMAP
002000
03FE00
0FFF00
1FFF80
1FFFC0
1F9FC0
1F9FC0
1F9FC0
1FFFC0
1FFF80
0FFF80
3FFFC0
7E00E0
7CFEF0
FCFFF8
FCFFF8
FCFFF8
FCFFF8
FCFFF8
FCF078
FCFE78
FCFE78
FCFE78
FCFE78
FC0078
FE00F8
FFFFF8
FFFFF8
FFFFF8
FFFFF0
7FFFF0
7FFFE0
1FFFC0
07FF00
ENDCHAR
STARTCHAR Gcommaaccent
ENCODING 290
SWIDTH 578 0
DWIDTH 21 0
BBX 21 24 0 0
BITMAP
0FFF00
3FFFC0
7E00E0
7CFEF0
FCFFF8
FCFFF8
FCFFF8
FCFFF8
FCFFF8
FCF078
FCFE78
FCFE78
FCFE78
FCFE78
FC0078
FE00F8
FFFFF8
FFC7F8
FFC7F8
FFC7F0
7FEFF0
7FEFE0
1FFFC0
07FF00
ENDCHAR
STARTCHAR gcommaaccent
ENCODING 291
SWIDTH 578 0
DWIDTH 21 0
BBX 21 24 0 0
BITMAP
0FFF00
3FFFC0
7E00E0
7CFEF0
FCFFF8
FCFFF8
FCFFF8
FCFFF8
FCFFF8
FCF078
FCFE78
FCFE78
FCFE78
FCFE78
FC0078
FE00F8
FFFFF8
FFC7F8
FFC7F8
FFC7F0
7FEFF0
7FEFE0
1FFFC0
07FF00
ENDCHAR
STARTCHAR Hcircumflex
ENCODING 292
SWIDTH 578 0
DWIDTH 21 0
BBX 21 35 0 0
BITMAP
007800
01FC00
01FE00
03FE00
03EF00
03AF00
07B700
07B780
073380
0F7380
0FFF80
0FFF80
3FFFC0
7CFE60
7CFE70
FCFE78
FCFE78
FCFE78
FCFE78
FC0078
FCFE78
FCFE78
FCFE78
FCFE78
FCFE78
FCFE78
FCFE78
FFFFF8
FFFFF8
FFFFF8
FFFFF0
7FFFF0
7FFFE0
1FFFC0
07FF00
ENDCHAR
STARTCHAR hcircumflex
ENCODING 293
SWIDTH 578 0
DWIDTH 21 0
BBX 21 35 0 0
BITMAP
007800
00FC00
01FE00
01FE00
03EF00
03A700
07B780
07B780
073380
0F7B80
07FF80
0FFF80
3FFFC0
7CFE60
7CFE70
FCFE78
FCFE78
FCFE78
FCFE78
FC0078
FCFE78
FCFE78
FCFE78
FCFE78
FCFE78
FCFE78
FCFE78
FFFFF8
FFFFF8
FFFFF8
FFFFF0
7FFFF0
7FFFE0
1FFFC0
07FF00
ENDCHAR
STARTCHAR Hbar
ENCODING 294
SWIDTH 578 0
DWIDTH 21 0
BBX 21 34 0 0
BITMAP
003000
03FE00
07FF80
0FFFC0
1FFFC0
1E03C0
1E03E0
1FFFC0
0FFFC0
0FFF80
0FFF00
3FFFC0
7CFE60
7CFE70
FCFE78
FCFE78
FCFE78
FCFE78
FC0078
FCFE78
FCFE78
FCFE78
FCFE78
FCFE78
FCFE78
FCFE78
FFFFF8
FFFFF8
FFFFF8
FFFFF0
7FFFF0
7FFFE0
1FFFC0
07FF00
ENDCHAR
STARTCHAR hbar
ENCODING 295
SWIDTH 578 0
DWIDTH 21 0
BBX 21 24 0 0
BITMAP
0FFF00
3FFFC0
7CFE60
7CFE70
F80038
FCFE78
FCFE78
FCFE78
FC0078
FCFE78
FCFE78
FCFE78
FCFE78
FCFE78
FCFE78
FCFE78
FFFFF8
FFFFF8
FFFFF8
FFFFF0
7FFFF0
7FFFE0
1FFFC0
07FF00
ENDCHAR
STARTCHAR Itilde
ENCODING 296
SWIDTH 578 0
DWIDTH 21 0
BBX 21 35 0 0
BITMAP
003800
01FF00
03FF80
07FFC0
0FFFE0
0FFFE0
0FFFE0
0F19E0
0E01E0
0E71E0
07FFC0
0FFF80
3FFFC0
7C00E0
7FCFF0
FFCFF8
FFCFF8
FFCFF8
FFCFF8
FFCFF8
FFCFF8
FFCFF8
FFCFF8
FFCFF8
FFCFF8
FC00F8
FC00F8
FFFFF8
FFFFF8
FFFFF8
FFFFF0
7FFFF0
7FFFE0
1FFFC0
07FF00
ENDCHAR
STARTCHAR itilde
ENCODING 297
SWIDTH 578 0
DWIDTH 21 0
BBX 21 35 0 0
BITMAP
003800
01FF00
03FF80
07FFC0
0FFFE0
0FFFE0
0FFFE0
0F39E0
0E01E0
0E63E0
07FFC0
0FFF80
3FFFC0
7C00E0
7FCFF0
FFCFF8
FFCFF8
FFCFF8
FFCFF8
FFCFF8
FFCFF8
FFCFF8
FFCFF8
FFCFF8
FFCFF8
FC00F8
FC00F8
FFFFF8
FFFFF8
FFFFF8
FFFFF0
7FFFF0
7FFFE0
1FFFC0
07FF00
ENDCHAR
STARTCHAR Imacron
ENCODING 298
SWIDTH 578 0
DWIDTH 21 0
BBX 21 34 0 0
BITMAP
001000
01FF00
07FF80
0FFFC0
0FFFE0
1F03E0
1F03E0
0FFFE0
0FFFC0
07FFC0
0FFF80
3FFFC0
7C00E0
7FCFF0
FFCFF8
FFCFF8
FFCFF8
FFCFF8
FFCFF8
FFCFF8
FFCFF8
FFCFF8
FFCFF8
FFCFF8
FC00F8
FC00F8
FFFFF8
FFFFF8
FFFFF8
FFFFF0
7FFFF0
7FFFE0
1FFFC0
07FF00
ENDCHAR
STARTCHAR imacron
ENCODING 299
SWIDTH 578 0
DWIDTH 21 0
BBX 21 34 0 0
BITMAP
001000
01FF00
07FF80
0FFFC0
0FFFE0
1F03E0
1F03E0
0FFFE0
0FFFC0
07FFC0
0FFF80
3FFFC0
7C00E0
7FCFF0
FFCFF8
FFCFF8
FFCFF8
FFCFF8
FFCFF8
FFCFF8
FFCFF8
FFCFF8
FFCFF8
FFCFF8
FC00F8
FC00F8
FFFFF8
FFFFF8
FFFFF8
FFFFF0
7FFFF0
7FFFE0
1FFFC0
07FF00
ENDCHAR
STARTCHAR Ibreve
ENCODING 300
SWIDTH 578 0
DWIDTH 21 0
BBX 21 34 0 0
BITMAP
001000
01FF00
07FFC0
0FFFC0
0FFFE0
0FFFE0
0F39E0
0F03E0
0F87E0
07FFC0
0FFF80
3FFFC0
7C00E0
7FCFF0
FFCFF8
FFCFF8
FFCFF8
FFCFF8
FFCFF8
FFCFF8
FFCFF8
FFCFF8
FFCFF8
FFCFF8
FC00F8
FC00F8
FFFFF8
FFFFF8
FFFFF8
FFFFF0
7FFFF0
7FFFE0
1FFFC0
07FF00
ENDCHAR
STARTCHAR ibreve
ENCODING 301
SWIDTH 578 0
DWIDTH 21 0
BBX 21 34 0 0
BITMAP
001000
01FF00
07FF80
0FFFC0
0FFFE0
0FFFE0
0F39E0
0F03E0
0F87E0
07FFC0
0FFF80
3FFFC0
7C00E0
7FCFF0
FFCFF8
FFCFF8
FFCFF8
FFCFF8
FFCFF8
FFCFF8
FFCFF8
FFCFF8
FFCFF8
FFCFF8
FC00F8
FC00F8
FFFFF8
FFFFF8
FFFFF8
FFFFF0
7FFFF0
7FFFE0
1FFFC0
07FF00
ENDCHAR
STARTCHAR Iogonek
ENCODING 302
SWIDTH 578 0
DWIDTH 21 0
BBX 21 24 0 0
BITMAP
0FFF00
3FFFC0
7C00E0
7FCFF0
FFCFF8
FFCFF8
FFCFF8
FFCFF8
FFCFF8
FFCFF8
FFCFF8
FFCFF8
FFCFF8
FFCFF8
FC00F8
FC00F8
FFFEF8
FFF9F8
FFFBF8
FFFBF0
7FF8F0
7FFCE0
1FFFC0
07FF00
ENDCHAR
STARTCHAR iogonek
ENCODING 303
SWIDTH 578 0
DWIDTH 21 0
BBX 21 24 0 0
BITMAP
0FFF00
3FFFC0
7C00E0
7FCFF0
FFCFF8
FFCFF8
FFCFF8
FFCFF8
FFCFF8
FFCFF8
FFCFF8
FFCFF8
FFCFF8
FFCFF8
FC00F8
FC00F8
FFFEF8
FFF9F8
FFFBF8
FFFBF0
7FF8F0
7FFCE0
1FFFC0
07FF00
ENDCHAR
STARTCHAR Idotaccent
ENCODING 304
SWIDTH 578 0
DWIDTH 21 0
BBX 21 34 0 0
BITMAP
003000
03FE00
07FF80
0FFFC0
1FFFC0
1FCFE0
1FCFE0
1FCFC0
1FFFC0
0FFFC0
0FFF80
3FFFC0
7C00E0
7FCFF0
FFCFF8
FFCFF8
FFCFF8
FFCFF8
FFCFF8
FFCFF8
FFCFF8
FFCFF8
FFCFF8
FFCFF8
FC00F8
FC00F8
FFFFF8
FFFFF8
FFFFF8
FFFFF0
7FFFF0
7FFFE0
1FFFC0
07FF00
ENDCHAR
STARTCHAR dotlessi
ENCODING 305
SWIDTH 578 0
DWIDTH 21 0
BBX 21 24 0 0
BITMAP
0FFF00
3FFFC0
7C00E0
7FCFF0
FFCFF8
FFCFF8
FFCFF8
FFCFF8
FFCFF8
FFCFF8
FFCFF8
FFCFF8
FFCFF8
FFCFF8
FC00F8
FC00F8
FFFFF8
FFFFF8
FFFFF8
FFFFF0
7FFFF0
7FFFE0
1FFFC0
07FF00
ENDCHAR
STARTCHAR IJ
ENCODING 306
SWIDTH 578 0
DWIDTH 21 0
BBX 21 24 0 0
BITMAP
0FFF00
3FFFC0
603F60
7CFF70
FCFF78
FCFF78
FCFF78
FCFF78
FCFF78
FCFF78
FCFF78
FCFF78
FCFF78
FCFE78
E03078
E030F8
FFFFF8
FFFFF8
FFFFF8
FFFFF0
7FFFF0
7FFFE0
1FFFC0
07FF00
ENDCHAR
STARTCHAR ij
ENCODING 307
SWIDTH 578 0
DWIDTH 21 0
BBX 21 24 0 0
BITMAP
0FFF00
3FFFC0
603F60
7CFF70
FCFF78
FCFF78
FCFF78
FCFF78
FCFF78
FCFF78
FCFF78
FCFF78
FCFF78
FCFE78
E03078
E030F8
FFFFF8
FFFFF8
FFFFF8
FFFFF0
7FFFF0
7FFFE0
1FFFC0
07FF00
ENDCHAR
STARTCHAR Jcircumflex
ENCODING 308
SWIDTH 578 0
DWIDTH 21 0
BBX 21 35 0 0
BITMAP
007800
00FC00
01FE00
01FF00
03DF00
03D700
07B780
07B780
073380
077BC0
07FFC0
0FFF80
3FFFC0
7FF3E0
7FF3F0
FFF3F8
FFF3F8
FFF3F8
FFF3F8
FFF3F8
FFF3F8
FFF3F8
FFF3F8
FFF3F8
FFF3F8
FF03F8
FF07F8
FFFFF8
FFFFF8
FFFFF8
FFFFF0
7FFFF0
7FFFE0
1FFFC0
07FF00
ENDCHAR
STARTCHAR jcircumflex
ENCODING 309
SWIDTH 578 0
DWIDTH 21 0
BBX 21 35 0 0
BITMAP
007800
00FC00
01FE00
01FF00
03DF00
03D700
07B780
07B780
073380
077BC0
07FFC0
0FFF80
3FFFC0
7FF3E0
7FF3F0
FFF3F8
FFF3F8
FFF3F8
FFF3F8
FFF3F8
FFF3F8
FFF3F8
FFF3F8
FFF3F8
FFF3F8
FF03F8
FF07F8
FFFFF8
FFFFF8
FFFFF8
FFFFF0
7FFFF0
7FFFE0
1FFFC0
07FF00
ENDCHAR
STARTCHAR Kcommaaccent
ENCODING 310
SWIDTH 578 0
DWIDTH 21 0
BBX 21 24 0 0
BITMAP
0FFF80
3FFF40
7E7E20
7E7CF0
FE79F8
FE73F8
FE67F8
FE4FF8
FE1FF8
FE0FF8
FE67F8
FE73F8
FE79F8
FE78F8
FE7C78
FE7E78
FFFFF8
FFC7F8
FFC7F8
FFC7F0
7FEFF0
7FEFE0
1FFFC0
07FF00
ENDCHAR
STARTCHAR kcommaaccent
ENCODING 311
SWIDTH 578 0
DWIDTH 21 0
BBX 21 24 0 0
BITMAP
0FFF80
3FFF40
7E7E20
7E7CF0
FE79F8
FE73F8
FE67F8
FE4FF8
FE1FF8
FE0FF8
FE67F8
FE73F8
FE79F8
FE78F8
FE7C78
FE7E78
FFFFF8
FFC7F8
FFC7F8
FFC7F0
7FEFF0
7FEFE0
1FFFC0
07FF00
ENDCHAR
STARTCHAR kgreenlandic
ENCODING 312
SWIDTH 578 0
DWIDTH 21 0
BBX 21 24 0 0
BITMAP
0FFF80
3FFF40
7E7E20
7E7CF0
FE79F8
FE73F8
FE67F8
FE4FF8
FE1FF8
FE0FF8
FE67F8
FE73F8
FE79F8
FE78F8
FE7C78
FE7E78
FFFFF8
FFFFF8
FFFFF8
FFFFF0
7FFFF0
7FFFE0
1FFFC0
07FF00
ENDCHAR
STARTCHAR Lacute
ENCODING 313
SWIDTH 578 0
DWIDTH 21 0
BBX 21 35 0 0
BITMAP
00FC00
01FE00
03FF00
03CF00
03DF00
079E00
079E00
07BC00
073C00
07F800
07F800
0FFF00
3FFFC0
7F3FE0
7F3FF0
FF3FF8
FF3FF8
FF3FF8
FF3FF8
FF3FF8
FF3FF8
FF3FF8
FF3FF8
FF3FF8
FF3FF8
FF01F8
FF01F8
FFFFF8
FFFFF8
FFFFF8
FFFFF0
7FFFF0
7FFFE0
1FFFC0
07FF00
ENDCHAR
STARTCHAR lacute
ENCODING 314
SWIDTH 578 0
DWIDTH 21 0
BBX 21 35 0 0
BITMAP
00FC00
01FE00
03FF00
03CF00
03DF00
079E00
079E00
07BC00
073C00
07F800
07F800
0FFF00
3FFFC0
7F3FE0
7F3FF0
FF3FF8
FF3FF8
FF3FF8
FF3FF8
FF3FF8
FF3FF8
FF3FF8
FF3FF8
FF3FF8
FF3FF8
FF01F8
FF01F8
FFFFF8
FFFFF8
FFFFF8
FFFFF0
7FFFF0
7FFFE0
1FFFC0
07FF00
ENDCHAR
STARTCHAR Lcommaaccent
ENCODING 315
SWIDTH 578 0
DWIDTH 21 0
BBX 21 24 0 0
BITMAP
0FFF00
3FFFC0
7F3FE0
7F3FF0
FF3FF8
FF3FF8
FF3FF8
FF3FF8
FF3FF8
FF3FF8
FF3FF8
FF3FF8
FF3FF8
FF3FF8
FF01F8
FF01F8
FFFFF8
FFC7F8
FFC7F8
FFC7F0
7FEFF0
7FEFE0
1FFFC0
07FF00
ENDCHAR
STARTCHAR lcommaaccent
ENCODING 316
SWIDTH 578 0
DWIDTH 21 0
BBX 21 24 0 0
BITMAP
0FFF00
3FFFC0
7F3FE0
7F3FF0
FF3FF8
FF3FF8
FF3FF8
FF3FF8
FF3FF8
FF3FF8
FF3FF8
FF3FF8
FF3FF8
FF3FF8
FF01F8
FF01F8
FFFFF8
FFC7F8
FFC7F8
FFC7F0
7FEFF0
7FEFE0
1FFFC0
07FF00
ENDCHAR
STARTCHAR Lcaron
ENCODING 317
SWIDTH 578 0
DWIDTH 21 0
BBX 21 24 0 0
BITMAP
0FFF00
3FFFC0
7F31E0
7F31F0
FF3BF8
FF3BF8
FF3FF8
FF3FF8
FF3FF8
FF3FF8
FF3FF8
FF3FF8
FF3FF8
FF3FF8
FF01F8
FF01F8
FFFFF8
FFFFF8
FFFFF8
FFFFF0
7FFFF0
7FFFE0
1FFFC0
07FF00
ENDCHAR
STARTCHAR lcaron
ENCODING 318
SWIDTH 578 0
DWIDTH 21 0
BBX 21 24 0 0
BITMAP
0FFF00
3FFFC0
7F31E0
7F31F0
FF3BF8
FF3BF8
FF3FF8
FF3FF8
FF3FF8
FF3FF8
FF3FF8
FF3FF8
FF3FF8
FF3FF8
FF01F8
FF01F8
FFFFF8
FFFFF8
FFFFF8
FFFFF0
7FFFF0
7FFFE0
1FFFC0
07FF00
ENDCHAR
STARTCHAR Ldot
ENCODING 319
SWIDTH 578 0
DWIDTH 21 0
BBX 21 24 0 0
BITMAP
0FFF00
3FFFC0
7F3FE0
7F3FF0
FF3FF8
FF3FF8
FF23F8
FF23F8
FF3FF8
FF3FF8
FF3FF8
FF3FF8
FF3FF8
FF3FF8
FF01F8
FF01F8
FFFFF8
FFFFF8
FFFFF8
FFFFF0
7FFFF0
7FFFE0
1FFFC0
07FF00
ENDCHAR
STARTCHAR ldot
ENCODING 320
SWIDTH 578 0
DWIDTH 21 0
BBX 21 24 0 0
BITMAP
0FFF00
3FFFC0
7F3FE0
7F3FF0
FF3FF8
FF3FF8
FF23F8
FF23F8
FF3FF8
FF3FF8
FF3FF8
FF3FF8
FF3FF8
FF3FF8
FF01F8
FF01F8
FFFFF8
FFFFF8
FFFFF8
FFFFF0
7FFFF0
7FFFE0
1FFFC0
07FF00
ENDCHAR
STARTCHAR Lslash
ENCODING 321
SWIDTH 578 0
DWIDTH 21 0
BBX 21 24 0 0
BITMAP
0FFF00
3FFFC0
7F3FE0
7F3FF0
FF3FF8
FF3FF8
FF2FF8
FF1FF8
FE3FF8
FD3FF8
FF3FF8
FF3FF8
FF3FF8
FF3FF8
FF01F8
FF01F8
FFFFF8
FFFFF8
FFFFF8
FFFFF0
7FFFF0
7FFFE0
1FFFC0
07FF00
ENDCHAR
STARTCHAR lslash
ENCODING 322
SWIDTH 578 0
DWIDTH 21 0
BBX 21 24 0 0
BITMAP
0FFF00
3FFFC0
7F3FE0
7F3FF0
FF3FF8
FF3FF8
FF2FF8
FF1FF8
FE3FF8
FD3FF8
FF3FF8
FF3FF8
FF3FF8
FF3FF8
FF01F8
FF01F8
FFFFF8
FFFFF8
FFFFF8
FFFFF0
7FFFF0
7FFFE0
1FFFC0
07FF00
ENDCHAR
STARTCHAR Nacute
ENCODING 323
SWIDTH 578 0
DWIDTH 21 0
BBX 21 35 0 0
BITMAP
007E00
00FF80
00FF80
00E7C0
01E780
01E780
01EF00
03CF00
03DE00
03FE00
01FC00
0FFF00
3FFFC0
7C00E0
7CFCF0
FCFCF8
FCFEF8
FCFEF8
FCFEF8
FCFEF8
FCFEF8
FCFEF8
FCFEF8
FCFEF8
FCFEF8
FCFEF8
FCFEF8
FFFFF8
FFFFF8
FFFFF8
FFFFF0
7FFFF0
7FFFE0
1FFFC0
07FF00
ENDCHAR
STARTCHAR nacute
ENCODING 324
SWIDTH 578 0
DWIDTH 21 0
BBX 21 35 0 0
BITMAP
007E00
00FF80
00FF80
00E7C0
01E780
01E780
01EF00
03CF00
03DE00
03FE00
01FC00
0FFF00
3FFFC0
7C00E0
7CFCF0
FCFCF8
FCFEF8
FCFEF8
FCFEF8
FCFEF8
FCFEF8
FCFEF8
FCFEF8
FCFEF8
FCFEF8
FCFEF8
FCFEF8
FFFFF8
FFFFF8
FFFFF8
FFFFF0
7FFFF0
7FFFE0
1FFFC0
07FF00
ENDCHAR
STARTCHAR Ncommaaccent
ENCODING 325
SWIDTH 578 0
DWIDTH 21 0
BBX 21 24 0 0
BITMAP
0FFF00
3FFFC0
7C00E0
7CFCF0
FCFCF8
FCFEF8
FCFEF8
FCFEF8
FCFEF8
FCFEF8
FCFEF8
FCFEF8
FCFEF8
FCFEF8
FCFEF8
FCFEF8
FFFFF8
FFC7F8
FFC7F8
FFC7F0
7FEFF0
7FEFE0
1FFFC0
07FF00
ENDCHAR
STARTCHAR ncommaaccent
ENCODING 326
SWIDTH 578 0
DWIDTH 21 0
BBX 21 24 0 0
BITMAP
0FFF00
3FFFC0
7C00E0
7CFCF0
FCFCF8
FCFEF8
FCFEF8
FCFEF8
FCFEF8
FCFEF8
FCFEF8
FCFEF8
FCFEF8
FCFEF8
FCFEF8
FCFEF8
FFFFF8
FFC7F8
FFC7F8
FFC7F0
7FEFF0
7FEFE0
1FFFC0
07FF00
ENDCHAR
STARTCHAR Ncaron
ENCODING 327
SWIDTH 578 0
DWIDTH 21 0
BBX 21 34 0 0
BITMAP
038E00
07FF00
0FFF80
0E7780
0F7780
0F6780
0FAF00
07AF00
079F00
07FF00
0FFF00
3FFFC0
7C00E0
7CFCF0
FCFCF8
FCFEF8
FCFEF8
FCFEF8
FCFEF8
FCFEF8
FCFEF8
FCFEF8
FCFEF8
FCFEF8
FCFEF8
FCFEF8
FFFFF8
FFFFF8
FFFFF8
FFFFF0
7FFFF0
7FFFE0
1FFFC0
07FF00
ENDCHAR
STARTCHAR ncaron
ENCODING 328
SWIDTH 578 0
DWIDTH 21 0
BBX 21 34 0 0
BITMAP
038E00
07FF00
0FFF80
0E7780
0F7780
0F6780
0FAF00
07AF00
079F00
07FF00
0FFF00
3FFFC0
7C00E0
7CFCF0
FCFCF8
FCFEF8
FCFEF8
FCFEF8
FCFEF8
FCFEF8
FCFEF8
FCFEF8
FCFEF8
FCFEF8
FCFEF8
FCFEF8
FFFFF8
FFFFF8
FFFFF8
FFFFF0
7FFFF0
7FFFE0
1FFFC0
07FF00
ENDCHAR
STARTCHAR napostrophe
ENCODING 329
SWIDTH 578 0
DWIDTH 21 0
BBX 21 24 0 0
BITMAP
0FFF00
3FFFC0
7C00E0
4CFCF0
CCFCF8
ECFEF8
ECFEF8
FCFEF8
FCFEF8
FCFEF8
FCFEF8
FCFEF8
FCFEF8
FCFEF8
FCFEF8
FCFEF8
FFFFF8
FFFFF8
FFFFF8
FFFFF0
7FFFF0
7FFFE0
1FFFC0
07FF00
ENDCHAR
STARTCHAR Eng
ENCODING 330
SWIDTH 578 0
DWIDTH 21 0
BBX 21 24 0 0
BITMAP
0FFF00
3FFFC0
7C00E0
7CFCF0
FCFCF8
FCFEF8
FCFEF8
FCFEF8
FCFEF8
FCFEF8
FCFEF8
FCFEF8
FCFEF8
FCFEF8
FCFEF8
FCFEF8
FFFEF8
FFFEF8
FFFCF8
FFE0F0
7FE0F0
7FFFE0
1FFFC0
07FF00
ENDCHAR
STARTCHAR eng
ENCODING 331
SWIDTH 578 0
DWIDTH 21 0
BBX 21 24 0 0
BITMAP
0FFF00
3FFFC0
7C00E0
7CFCF0
FCFCF8
FCFEF8
FCFEF8
FCFEF8
FCFEF8
FCFEF8
FCFEF8
FCFEF8
FCFEF8
FCFEF8
FCFEF8
FCFEF8
FFFEF8
FFFEF8
FFFCF8
FFE0F0
7FE0F0
7FFFE0
1FFFC0
07FF00
ENDCHAR
STARTCHAR Omacron
ENCODING 332
SWIDTH 578 0
DWIDTH 21 0
BBX 21 34 0 0
BITMAP
001000
01FF00
07FF80
0FFFC0
0FFFE0
1F03E0
1F03E0
0FFFE0
0FFFC0
07FFC0
0FFF80
3FFFC0
7C00E0
7CFC70
FCFE78
FCFE78
FCFE78
FCFE78
FCFE78
FCFE78
FCFE78
FCFE78
FCFE78
FCFE78
FC0078
FE00F8
FFFFF8
FFFFF8
FFFFF8
FFFFF0
7FFFF0
7FFFE0
1FFFC0
07FF00
ENDCHAR
STARTCHAR omacron
ENCODING 333
SWIDTH 578 0
DWIDTH 21 0
BBX 21 34 0 0
BITMAP
001000
01FF00
07FF80
0FFFC0
0FFFE0
1F03E0
1F03E0
0FFFE0
0FFFC0
07FFC0
0FFF80
3FFFC0
7C00E0
7CFC70
FCFE78
FCFE78
FCFE78
FCFE78
FCFE78
FCFE78
FCFE78
FCFE78
FCFE78
FCFE78
FC0078
FE00F8
FFFFF8
FFFFF8
FFFFF8
FFFFF0
7FFFF0
7FFFE0
1FFFC0
07FF00
ENDCHAR
STARTCHAR Obreve
ENCODING 334
SWIDTH 578 0
DWIDTH 21 0
BBX 21 34 0 0
BITMAP
001000
01FF00
07FF80
0FFFC0
0FFFE0
1FFFE0
1F3BE0
0F03E0
0F87C0
07FFC0
0FFF80
3FFFC0
7C00E0
7CFC70
FCFE78
FCFE78
FCFE78
FCFE78
FCFE78
FCFE78
FCFE78
FCFE78
FCFE78
FCFE78
FC0078
FE00F8
FFFFF8
FFFFF8
FFFFF8
FFFFF0
7FFFF0
7FFFE0
1FFFC0
07FF00
ENDCHAR
STARTCHAR obreve
ENCODING 335
SWIDTH 578 0
DWIDTH 21 0
BBX 21 34 0 0
BITMAP
001000
01FF00
07FF80
0FFFC0
0FFFE0
1FFFE0
1F3BE0
0F03E0
0F87C0
07FFC0
0FFF80
3FFFC0
7C00E0
7CFC70
FCFE78
FCFE78
FCFE78
FCFE78
FCFE78
FCFE78
FCFE78
FCFE78
FCFE78
FCFE78
FC0078
FE00F8
FFFFF8
FFFFF8
FFFFF8
FFFFF0
7FFFF0
7FFFE0
1FFFC0
07FF00
ENDCHAR
STARTCHAR Ohungarumlaut
ENCODING 336
SWIDTH 578 0
DWIDTH 21 0
BBX 21 34 0 0
BITMAP
003FE0
007FE0
007FF0
00F730
01E678
01EEF0
03DCF0
03DDE0
03BBC0
03FFC0
0FFF80
3FFFC0
7C00E0
7CFC70
FCFE78
FCFE78
FCFE78
FCFE78
FCFE78
FCFE78
FCFE78
FCFE78
FCFE78
FCFE78
FC0078
FE00F8
FFFFF8
FFFFF8
FFFFF8
FFFFF0
7FFFF0
7FFFE0
1FFFC0
07FF00
ENDCHAR
STARTCHAR ohungarumlaut
ENCODING 337
SWIDTH 578 0
DWIDTH 21 0
BBX 21 34 0 0
BITMAP
003FE0
007FE0
007FF0
00F730
01E678
01EEF0
03DCF0
03DDE0
03BBC0
03FFC0
0FFF80
3FFFC0
7C00E0
7CFC70
FCFE78
FCFE78
FCFE78
FCFE78
FCFE78
FCFE78
FCFE78
FCFE78
FCFE78
FCFE78
FC0078
FE00F8
FFFFF8
FFFFF8
FFFFF8
FFFFF0
7FFFF0
7FFFE0
1FFFC0
07FF00
ENDCHAR
STARTCHAR OE
ENCODING 338
SWIDTH 578 0
DWIDTH 21 0
BBX 21 24 0 0
BITMAP
0FFF00
3FFFC0
780060
73CFF0
F3CFF8
F3CFF8
F3CFF8
F3CFF8
F3C0F8
F3C0F8
F3CFF8
F3CFF8
F3CFF8
F3CFF8
F00078
F81078
FFFFF8
FFFFF8
FFFFF8
FFFFF0
7FFFF0
7FFFE0
1FFFC0
07FF00
ENDCHAR
STARTCHAR oe
ENCODING 339
SWIDTH 578 0
DWIDTH 21 0
BBX 21 24 0 0
BITMAP
0FFF00
3FFFC0
780060
73CFF0
F3CFF8
F3CFF8
F3CFF8
F3CFF8
F3C0F8
F3C0F8
F3CFF8
F3CFF8
F3CFF8
F3CFF8
F00078
F81078
FFFFF8
FFFFF8
FFFFF8
FFFFF0
7FFFF0
7FFFE0
1FFFC0
07FF00
ENDCHAR
STARTCHAR Racute
ENCODING 340
SWIDTH 578 0
DWIDTH 21 0
BBX 21 34 0 0
BITMAP
007E00
00FF80
00FF80
00E7C0
01E780
01E780
01EF00
03CF00
03DE00
03FE00
0FFF00
3FFFC0
7C01E0
7CF8F0
FCFCF8
FCFCF8
FCFCF8
FCFDF8
FC01F8
FC07F8
FCF9F8
FCFCF8
FCFCF8
FCFCF8
FCFCF8
FCFCF8
FFFFF8
FFFFF8
FFFFF8
FFFFF0
7FFFF0
7FFFE0
1FFFC0
07FF00
ENDCHAR
STARTCHAR racute
ENCODING 341
SWIDTH 578 0
DWIDTH 21 0
BBX 21 34 0 0
BITMAP
007E00
00FF80
00FF80
00E7C0
01E780
01E780
01EF00
03CF00
03DE00
03FE00
0FFF00
3FFFC0
7C01E0
7CF8F0
FCFCF8
FCFCF8
FCFCF8
FCFDF8
FC01F8
FC07F8
FCF9F8
FCFCF8
FCFCF8
FCFCF8
FCFCF8
FCFCF8
FFFFF8
FFFFF8
FFFFF8
FFFFF0
7FFFF0
7FFFE0
1FFFC0
07FF00
ENDCHAR
STARTCHAR Rcommaaccent
ENCODING 342
SWIDTH 578 0
DWIDTH 21 0
BBX 21 24 0 0
BITMAP
0FFF00
3FFFC0
7C01E0
7CF8F0
FCFCF8
FCFCF8
FCFCF8
FCFDF8
FC01F8
FC07F8
FCF9F8
FCFCF8
FCFCF8
FCFCF8
FCFCF8
FCFCF8
FFFFF8
FFC7F8
FFC7F8
FFC7F0
7FEFF0
7FEFE0
1FFFC0
07FF00
ENDCHAR
STARTCHAR rcommaaccent
ENCODING 343
SWIDTH 578 0
DWIDTH 21 0
BBX 21 24 0 0
BITMAP
0FFF00
3FFFC0
7C01E0
7CF8F0
FCFCF8
FCFCF8
FCFCF8
FCFDF8
FC01F8
FC07F8
FCF9F8
FCFCF8
FCFCF8
FCFCF8
FCFCF8
FCFCF8
FFFFF8
FFC7F8
FFC7F8
FFC7F0
7FEFF0
7FEFE0
1FFFC0
07FF00
ENDCHAR
STARTCHAR Rcaron
ENCODING 344
SWIDTH 578 0
DWIDTH 21 0
BBX 21 34 0 0
BITMAP
038E00
07FF00
0FFF80
0E7780
0F7780
0F6780
0FAF00
07AF00
079F00
07FF00
0FFF00
3FFFC0
7C01E0
7CF8F0
FCFCF8
FCFCF8
FCFCF8
FCFDF8
FC01F8
FC07F8
FCF9F8
FCFCF8
FCFCF8
FCFCF8
FCFCF8
FCFCF8
FFFFF8
FFFFF8
FFFFF8
FFFFF0
7FFFF0
7FFFE0
1FFFC0
07FF00
ENDCHAR
STARTCHAR rcaron
ENCODING 345
SWIDTH 578 0
DWIDTH 21 0
BBX 21 34 0 0
BITMAP
038E00
07FF00
0FFF80
0E7780
0F7780
0F6780
0FAF00
07AF00
079F00
07FF00
0FFF00
3FFFC0
7C01E0
7CF8F0
FCFCF8
FCFCF8
FCFCF8
FCFDF8
FC01F8
FC07F8
FCF9F8
FCFCF8
FCFCF8
FCFCF8
FCFCF8
FCFCF8
FFFFF8
FFFFF8
FFFFF8
FFFFF0
7FFFF0
7FFFE0
1FFFC0
07FF00
ENDCHAR
STARTCHAR Sacute
ENCODING 346
SWIDTH 578 0
DWIDTH 21 0
BBX 21 34 0 0
BITMAP
003F00
007F80
007FC0
00F3C0
00F3C0
00E7C0
01E780
01EF00
01EF00
01FE00
0FFF00
3FFFC0
7E00E0
7C7EF0
FCFFF8
FCFFF8
FCFFF8
FCFFF8
FE00F8
FF80F8
FFFCF8
FFFEF8
FFFEF8
FFFCF8
FE00F8
FE01F8
FFFFF8
FFFFF8
FFFFF8
FFFFF0
7FFFF0
7FFFE0
1FFFC0
07FF00
ENDCHAR
STARTCHAR sacute
ENCODING 347
SWIDTH 578 0
DWIDTH 21 0
BBX 21 34 0 0
BITMAP
003F00
007F80
007FC0
00F3C0
00F3C0
00E7C0
01E780
01EF00
01EF00
01FE00
0FFF00
3FFFC0
7E00E0
7C7EF0
FCFFF8
FCFFF8
FCFFF8
FCFFF8
FE00F8
FF80F8
FFFCF8
FFFEF8
FFFEF8
FFFCF8
FE00F8
FE01F8
FFFFF8
FFFFF8
FFFFF8
FFFFF0
7FFFF0
7FFFE0
1FFFC0
07FF00
ENDCHAR
STARTCHAR Scircumflex
ENCODING 348
SWIDTH 578 0
DWIDTH 21 0
BBX 21 35 0 0
BITMAP
003800
00FE00
01FE00
01FF00
01D700
03D780
03D780
07B380
07BBC0
0739C0
07FFC0
0FFF80
3FFFC0
7E00E0
7C7EF0
FCFFF8
FCFFF8
FCFFF8
FCFFF8
FE00F8
FF80F8
FFFCF8
FFFEF8
FFFEF8
FFFCF8
FE00F8
FE01F8
FFFFF8
FFFFF8
FFFFF8
FFFFF0
7FFFF0
7FFFE0
1FFFC0
07FF00
ENDCHAR
STARTCHAR scircumflex
ENCODING 349
SWIDTH 578 0
DWIDTH 21 0
BBX 21 35 0 0
BITMAP
003800
00FE00
01FE00
01FF00
01D700
03D780
03D780
07B380
07BBC0
0739C0
07FFC0
0FFF80
3FFFC0
7E00E0
7C7EF0
FCFFF8
FCFFF8
FCFFF8
FCFFF8
FE00F8
FF80F8
FFFCF8
FFFEF8
FFFEF8
FFFCF8
FE00F8
FE01F8
FFFFF8
FFFFF8
FFFFF8
FFFFF0
7FFFF0
7FFFE0
1FFFC0
07FF00
ENDCHAR
STARTCHAR Scedilla
ENCODING 350
SWIDTH 578 0
DWIDTH 21 0
BBX 21 24 0 0
BITMAP
0FFF00
3FFFC0
7E00E0
7C7EF0
FCFFF8
FCFFF8
FCFFF8
FCFFF8
FE00F8
FF80F8
FFFCF8
FFFEF8
FFFEF8
FFFCF8
FE00F8
FE01F8
FFEFF8
FF8FF8
FFBFF8
FFBFF0
7F8FF0
7FCFE0
1FFFC0
07FF00
ENDCHAR
STARTCHAR scedilla
ENCODING 351
SWIDTH 578 0
DWIDTH 21 0
BBX 21 24 0 0
BITMAP
0FFF00
3FFFC0
7E00E0
7C7EF0
FCFFF8
FCFFF8
FCFFF8
FCFFF8
FE00F8
FF80F8
FFFCF8
FFFEF8
FFFEF8
FFFCF8
FE00F8
FE01F8
FFEFF8
FF8FF8
FFBFF8
FFBFF0
7F8FF0
7FCFE0
1FFFC0
07FF00
ENDCHAR
STARTCHAR Scaron
ENCODING 352
SWIDTH 578 0
DWIDTH 21 0
BBX 21 34 0 0
BITMAP
01E700
03FF80
07FFC0
07B9C0
07BBC0
079BC0
03D7C0
03D780
03C780
01FF80
0FFF00
3FFFC0
7E00E0
7C7EF0
FCFFF8
FCFFF8
FCFFF8
FCFFF8
FE00F8
FF80F8
FFFCF8
FFFEF8
FFFEF8
FFFCF8
FE00F8
FE01F8
FFFFF8
FFFFF8
FFFFF8
FFFFF0
7FFFF0
7FFFE0
1FFFC0
07FF00
ENDCHAR
STARTCHAR scaron
ENCODING 353
SWIDTH 578 0
DWIDTH 21 0
BBX 21 34 0 0
BITMAP
01E700
03FF80
07FFC0
07B9C0
07BBC0
079BC0
03D7C0
03D780
03C780
01FF80
0FFF00
3FFFC0
7E00E0
7C7EF0
FCFFF8
FCFFF8
FCFFF8
FCFFF8
FE00F8
FF80F8
FFFCF8
FFFEF8
FFFEF8
FFFCF8
FE00F8
FE01F8
FFFFF8
FFFFF8
FFFFF8
FFFFF0
7FFFF0
7FFFE0
1FFFC0
07FF00
ENDCHAR
STARTCHAR Tcommaaccent
ENCODING 354
SWIDTH 578 0
DWIDTH 21 0
BBX 21 24 0 0
BITMAP
0FFF00
3FFFC0
7C00E0
7FCFF0
FFCFF8
FFCFF8
FFCFF8
FFCFF8
FFCFF8
FFCFF8
FFCFF8
FFCFF8
FFCFF8
FFCFF8
FFCFF8
FFCFF8
FFFFF8
FFC7F8
FFC7F8
FFC7F0
7FEFF0
7FEFE0
1FFFC0
07FF00
ENDCHAR
STARTCHAR tcommaaccent
ENCODING 355
SWIDTH 578 0
DWIDTH 21 0
BBX 21 24 0 0
BITMAP
0FFF00
3FFFC0
7C00E0
7FCFF0
FFCFF8
FFCFF8
FFCFF8
FFCFF8
FFCFF8
FFCFF8
FFCFF8
FFCFF8
FFCFF8
FFCFF8
FFCFF8
FFCFF8
FFFFF8
FFC7F8
FFC7F8
FFC7F0
7FEFF0
7FEFE0
1FFFC0
07FF00
ENDCHAR
STARTCHAR Tcaron
ENCODING 356
SWIDTH 578 0
DWIDTH 21 0
BBX 21 34 0 0
BITMAP
01CF00
07FF80
07FF80
077BC0
0733C0
07B780
07B780
07D780
03CF80
03FF00
0FFF00
3FFFC0
7C00E0
7FCFF0
FFCFF8
FFCFF8
FFCFF8
FFCFF8
FFCFF8
FFCFF8
FFCFF8
FFCFF8
FFCFF8
FFCFF8
FFCFF8
FFCFF8
FFFFF8
FFFFF8
FFFFF8
FFFFF0
7FFFF0
7FFFE0
1FFFC0
07FF00
ENDCHAR
STARTCHAR tcaron
ENCODING 357
SWIDTH 578 0
DWIDTH 21 0
BBX 21 24 0 0
BITMAP
0FFF00
3FFFC0
7C00E0
7FCFF0
FFCCF8
FFCCF8
FFCCF8
FFCEF8
FFCCF8
FFCFF8
FFCFF8
FFCFF8
FFCFF8
FFCFF8
FFCFF8
FFCFF8
FFFFF8
FFFFF8
FFFFF8
FFFFF0
7FFFF0
7FFFE0
1FFFC0
07FF00
ENDCHAR
STARTCHAR Tbar
ENCODING 358
SWIDTH 578 0
DWIDTH 21 0
BBX 21 24 0 0
BITMAP
0FFF00
3FFFC0
7C00E0
7FCFF0
FFCFF8
FFCFF8
FFCFF8
FFCFF8
FF01F8
FF01F8
FFCFF8
FFCFF8
FFCFF8
FFCFF8
FFCFF8
FFCFF8
FFFFF8
FFFFF8
FFFFF8
FFFFF0
7FFFF0
7FFFE0
1FFFC0
07FF00
ENDCHAR
STARTCHAR tbar
ENCODING 359
SWIDTH 578 0
DWIDTH 21 0
BBX 21 24 0 0
BITMAP
0FFF00
3FFFC0
7C00E0
7FCFF0
FFCFF8
FFCFF8
FFCFF8
FFCFF8
FF01F8
FF01F8
FFCFF8
FFCFF8
FFCFF8
FFCFF8
FFCFF8
FFCFF8
FFFFF8
FFFFF8
FFFFF8
FFFFF0
7FFFF0
7FFFE0
1FFFC0
07FF00
ENDCHAR
STARTCHAR Utilde
ENCODING 360
SWIDTH 578 0
DWIDTH 21 0
BBX 21 35 0 0
BITMAP
003800
01FF00
03FF80
07FFC0
0FFFE0
0FFFE0
0FFFE0
0F39E0
0E01E0
0E63E0
07FFC0
0FFF80
3FFFC0
7DFE60
7DFE70
FDFE78
FDFE78
FDFE78
FDFE78
FDFE78
FDFE78
FDFE78
FDFE78
FDFE78
FCFE78
FC00F8
FE00F8
FFFFF8
FFFFF8
FFFFF8
FFFFF0
7FFFF0
7FFFE0
1FFFC0
07FF00
ENDCHAR
STARTCHAR utilde
ENCODING 361
SWIDTH 578 0
DWIDTH 21 0
BBX 21 35 0 0
BITMAP
003800
01FF00
03FF80
07FFC0
0FFFE0
0FFFE0
0FFFE0
0F39E0
0E01E0
0E63E0
07FFC0
0FFF80
3FFFC0
7DFE60
7DFE70
FDFE78
FDFE78
FDFE78
FDFE78
FDFE78
FDFE78
FDFE78
FDFE78
FDFE78
FCFE78
FC00F8
FE00F8
FFFFF8
FFFFF8
FFFFF8
FFFFF0
7FFFF0
7FFFE0
1FFFC0
07FF00
ENDCHAR
STARTCHAR Umacron
ENCODING 362
SWIDTH 578 0
DWIDTH 21 0
BBX 21 34 0 0
BITMAP
001000
01FF00
07FF80
0FFFC0
0FFFE0
0F03E0
0F03E0
0FFFE0
0FFFE0
07FFC0
0FFF80
3FFFC0
7DFE60
7DFE70
FDFE78
FDFE78
FDFE78
FDFE78
FDFE78
FDFE78
FDFE78
FDFE78
FDFE78
FCFE78
FC00F8
FE00F8
FFFFF8
FFFFF8
FFFFF8
FFFFF0
7FFFF0
7FFFE0
1FFFC0
07FF00
ENDCHAR
STARTCHAR umacron
ENCODING 363
SWIDTH 578 0
DWIDTH 21 0
BBX 21 34 0 0
BITMAP
001000
01FF00
07FF80
0FFFC0
0FFFE0
0F03E0
0F03E0
0FFFE0
0FFFE0
07FFC0
0FFF80
3FFFC0
7DFE60
7DFE70
FDFE78
FDFE78
FDFE78
FDFE78
FDFE78
FDFE78
FDFE78
FDFE78
FDFE78
FCFE78
FC00F8
FE00F8
FFFFF8
FFFFF8
FFFFF8
FFFFF0
7FFFF0
7FFFE0
1FFFC0
07FF00
ENDCHAR
STARTCHAR Ubreve
ENCODING 364
SWIDTH 578 0
DWIDTH 21 0
BBX 21 34 0 0
BITMAP
001000
01FF00
07FF80
0FFFC0
0FFFE0
0FFFE0
0F3BE0
0F03E0
0F87E0
07FFC0
0FFF80
3FFFC0
7DFE60
7DFE70
FDFE78
FDFE78
FDFE78
FDFE78
FDFE78
FDFE78
FDFE78
FDFE78
FDFE78
FCFE78
FC00F8
FE00F8
FFFFF8
FFFFF8
FFFFF8
FFFFF0
7FFFF0
7FFFE0
1FFFC0
07FF00
ENDCHAR
STARTCHAR ubreve
ENCODING 365
SWIDTH 578 0
DWIDTH 21 0
BBX 21 34 0 0
BITMAP
001000
01FF00
07FF80
0FFFC0
0FFFE0
0FFFE0
0F39E0
0F03E0
0F87E0
07FFC0
0FFF80
3FFFC0
7DFE60
7DFE70
FDFE78
FDFE78
FDFE78
FDFE78
FDFE78
FDFE78
FDFE78
FDFE78
FDFE78
FCFE78
FC00F8
FE00F8
FFFFF8
FFFFF8
FFFFF8
FFFFF0
7FFFF0
7FFFE0
1FFFC0
07FF00
ENDCHAR
STARTCHAR Uring
ENCODING 366
SWIDTH 578 0
DWIDTH 21 0
BBX 21 34 0 0
BITMAP
00FC00
01FF00
03FF80
078780
0733C0
0F7BC0
0F3BC0
0F03C0
07CFC0
07FF80
0FFF80
3FFFC0
7DFE60
7DFE70
FDFE78
FDFE78
FDFE78
FDFE78
FDFE78
FDFE78
FDFE78
FDFE78
FDFE78
FCFE78
FC00F8
FE00F8
FFFFF8
FFFFF8
FFFFF8
FFFFF0
7FFFF0
7FFFE0
1FFFC0
07FF00
ENDCHAR
STARTCHAR uring
ENCODING 367
SWIDTH 578 0
DWIDTH 21 0
BBX 21 34 0 0
BITMAP
00FC00
01FF00
03FF80
078780
0733C0
0F7BC0
0F3BC0
0703C0
07CFC0
07FF80
0FFF80
3FFFC0
7DFE60
7DFE70
FDFE78
FDFE78
FDFE78
FDFE78
FDFE78
FDFE78
FDFE78
FDFE78
FDFE78
FCFE78
FC00F8
FE00F8
FFFFF8
FFFFF8
FFFFF8
FFFFF0
7FFFF0
7FFFE0
1FFFC0
07FF00
ENDCHAR
STARTCHAR Uhungarumlaut
ENCODING 368
SWIDTH 581 0
DWIDTH 21 0
BBX 21 34 0 0
BITMAP
003FE0
007FE0
007FF0
00F330
00F778
01EEF0
01CCF0
03DDE0
03BBC0
03FFC0
0FFF80
3FFFC0
7DFE60
7DFE70
FDFE78
FDFE78
FDFE78
FDFE78
FDFE78
FDFE78
FDFE78
FDFE78
FDFE78
FCFE78
FC00F8
FE00F8
FFFFF8
FFFFF8
FFFFF8
FFFFF0
7FFFF0
7FFFE0
1FFFC0
07FF00
ENDCHAR
STARTCHAR uhungarumlaut
ENCODING 369
SWIDTH 582 0
DWIDTH 21 0
BBX 21 34 0 0
BITMAP
003FE0
007FE0
007FF0
00F330
00F778
01EEF0
01CEF0
03DDE0
03BBC0
03FFC0
0FFF80
3FFFC0
7DFE60
7DFE70
FDFE78
FDFE78
FDFE78
FDFE78
FDFE78
FDFE78
FDFE78
FDFE78
FDFE78
FCFE78
FC00F8
FE00F8
FFFFF8
FFFFF8
FFFFF8
FFFFF0
7FFFF0
7FFFE0
1FFFC0
07FF00
ENDCHAR
STARTCHAR Uogonek
ENCODING 370
SWIDTH 578 0
DWIDTH 21 0
BBX 21 24 0 0
BITMAP
0FFF00
3FFFC0
7DFE60
7DFE70
FDFE78
FDFE78
FDFE78
FDFE78
FDFE78
FDFE78
FDFE78
FDFE78
FDFE78
FCFE78
FC00F8
FE00F8
FFF7F8
FFCFF8
FFDFF8
FFDFF0
7FC7F0
7FE7E0
1FFFC0
07FF00
ENDCHAR
STARTCHAR uogonek
ENCODING 371
SWIDTH 578 0
DWIDTH 21 0
BBX 21 24 0 0
BITMAP
0FFF00
3FFFC0
7DFE60
7DFE70
FDFE78
FDFE78
FDFE78
FDFE78
FDFE78
FDFE78
FDFE78
FDFE78
FDFE78
FCFE78
FC00F8
FE00F8
FFF7F8
FFCFF8
FFDFF8
FFDFF0
7FC7F0
7FE7E0
1FFFC0
07FF00
ENDCHAR
STARTCHAR Wcircumflex
ENCODING 372
SWIDTH 578 0
DWIDTH 21 0
BBX 21 35 0 0
BITMAP
007800
01FC00
01FE00
03FE00
03EF00
03AF00
07A700
07B780
0F7380
0F7380
0FFF80
0FFF80
3FFFC0
73CF20
73CF30
F3CF38
F38F78
F38678
F3A678
F9A678
F9A678
F9A678
F93678
F93278
F93278
F83078
FC78F8
FFFFF8
FFFFF8
FFFFF8
FFFFF0
7FFFF0
7FFFE0
1FFFC0
07FF00
ENDCHAR
STARTCHAR wcircumflex
ENCODING 373
SWIDTH 578 0
DWIDTH 21 0
BBX 21 35 0 0
BITMAP
007800
01FC00
01FE00
03FE00
03EF00
03AF00
07A700
07B780
0F7380
0F7380
0FFF80
0FFF80
3FFFC0
73CF20
73CF30
F3CF38
F38F78
F38678
F3A678
F9A678
F9A678
F9A678
F93678
F93278
F93278
F83078
FC78F8
FFFFF8
FFFFF8
FFFFF8
FFFFF0
7FFFF0
7FFFE0
1FFFC0
07FF00
ENDCHAR
STARTCHAR Ycircumflex
ENCODING 374
SWIDTH 578 0
DWIDTH 21 0
BBX 21 35 0 0
BITMAP
007800
00FC00
01FE00
01FF00
03DF00
03D700
07B780
07B780
073380
073BC0
07FFC0
0FFF80
3FFFC0
7CFCE0
7E7CF0
FE79F8
FF39F8
FF33F8
FF33F8
FF93F8
FF87F8
FFC7F8
FFCFF8
FFCFF8
FFCFF8
FFCFF8
FFCFF8
FFFFF8
FFFFF8
FFFFF8
FFFFF0
7FFFF0
7FFFE0
1FFFC0
07FF00
ENDCHAR
STARTCHAR ycircumflex
ENCODING 375
SWIDTH 578 0
DWIDTH 21 0
BBX 21 35 0 0
BITMAP
007800
00FC00
01FE00
01FF00
03DF00
03D700
07B780
07B780
073380
073BC0
07FFC0
0FFF80
3FFFC0
7CFCE0
7E7CF0
FE79F8
FF39F8
FF33F8
FF33F8
FF93F8
FF87F8
FFC7F8
FFCFF8
FFCFF8
FFCFF8
FFCFF8
FFCFF8
FFFFF8
FFFFF8
FFFFF8
FFFFF0
7FFFF0
7FFFE0
1FFFC0
07FF00
ENDCHAR
STARTCHAR Ydieresis
ENCODING 376
SWIDTH 578 0
DWIDTH 21 0
BBX 21 32 0 0
BITMAP
01FE00
03FF80
07FFC0
0FFFC0
0F31C0
0F31C0
0FFFC0
07FFC0
0FFF80
3FFFC0
7CFCE0
7E7CF0
FE79F8
FF39F8
FF33F8
FF33F8
FF93F8
FF87F8
FFC7F8
FFCFF8
FFCFF8
FFCFF8
FFCFF8
FFCFF8
FFFFF8
FFFFF8
FFFFF8
FFFFF0
7FFFF0
7FFFE0
1FFFC0
07FF00
ENDCHAR
STARTCHAR Zacute
ENCODING 377
SWIDTH 578 0
DWIDTH 21 0
BBX 21 35 0 0
BITMAP
007E00
00FF00
01FF80
01E780
03CF80
03CF00
03DF00
039E00
07BC00
03FC00
03F800
0FFF00
3FFFC0
7E01E0
7FF9F0
FFF3F8
FFF3F8
FFE7F8
FFE7F8
FFCFF8
FF8FF8
FF9FF8
FF3FF8
FF3FF8
FE7FF8
FE00F8
FE00F8
FFFFF8
FFFFF8
FFFFF8
FFFFF0
7FFFF0
7FFFE0
1FFFC0
07FF00
ENDCHAR
STARTCHAR zacute
ENCODING 378
SWIDTH 578 0
DWIDTH 21 0
BBX 21 35 0 0
BITMAP
007E00
00FF00
01FF80
01E780
03CF80
03CF00
03DF00
039E00
07BC00
03FC00
03F800
0FFF00
3FFFC0
7E01E0
7FF9F0
FFF3F8
FFF3F8
FFE7F8
FFE7F8
FFCFF8
FF8FF8
FF9FF8
FF3FF8
FF3FF8
FE7FF8
FE00F8
FE00F8
FFFFF8
FFFFF8
FFFFF8
FFFFF0
7FFFF0
7FFFE0
1FFFC0
07FF00
ENDCHAR
STARTCHAR Zdotaccent
ENCODING 379
SWIDTH 578 0
DWIDTH 21 0
BBX 21 34 0 0
BITMAP
002000
03FE00
0FFF00
1FFF80
1FFFC0
1F9FC0
1F9FC0
1F9FC0
1FFFC0
1FFF80
0FFF80
3FFFC0
7E01E0
7FF9F0
FFF3F8
FFF3F8
FFE7F8
FFE7F8
FFCFF8
FF8FF8
FF9FF8
FF3FF8
FF3FF8
FE7FF8
FE00F8
FE00F8
FFFFF8
FFFFF8
FFFFF8
FFFFF0
7FFFF0
7FFFE0
1FFFC0
07FF00
ENDCHAR
STARTCHAR zdotaccent
ENCODING 380
SWIDTH 578 0
DWIDTH 21 0
BBX 21 34 0 0
BITMAP
002000
03FE00
0FFF00
1FFF80
1FFFC0
1F9FC0
1F9FC0
1F9FC0
1FFFC0
1FFF80
0FFF80
3FFFC0
7E01E0
7FF9F0
FFF3F8
FFF3F8
FFE7F8
FFE7F8
FFCFF8
FF8FF8
FF9FF8
FF3FF8
FF3FF8
FE7FF8
FE00F8
FE00F8
FFFFF8
FFFFF8
FFFFF8
FFFFF0
7FFFF0
7FFFE0
1FFFC0
07FF00
ENDCHAR
STARTCHAR Zcaron
ENCODING 381
SWIDTH 578 0
DWIDTH 21 0
BBX 21 34 0 0
BITMAP
03CE00
07FF80
0FFF80
0F7380
0F7780
0F3780
07A780
07AF00
07CF00
03FF00
0FFF00
3FFFC0
7E01E0
7FF9F0
FFF3F8
FFF3F8
FFE7F8
FFE7F8
FFCFF8
FF8FF8
FF9FF8
FF3FF8
FF3FF8
FE7FF8
FE00F8
FE00F8
FFFFF8
FFFFF8
FFFFF8
FFFFF0
7FFFF0
7FFFE0
1FFFC0
07FF00
ENDCHAR
STARTCHAR zcaron
ENCODING 382
SWIDTH 578 0
DWIDTH 21 0
BBX 21 34 0 0
BITMAP
03CE00
07FF80
0FFF80
0F7380
0F7780
0F3780
07A780
07AF00
07CF00
03FF00
0FFF00
3FFFC0
7E01E0
7FF9F0
FFF3F8
FFF3F8
FFE7F8
FFE7F8
FFCFF8
FF8FF8
FF9FF8
FF3FF8
FF3FF8
FE7FF8
FE00F8
FE00F8
FFFFF8
FFFFF8
FFFFF8
FFFFF0
7FFFF0
7FFFE0
1FFFC0
07FF00
ENDCHAR
STARTCHAR longs
ENCODING 383
SWIDTH 578 0
DWIDTH 21 0
BBX 21 24 0 0
BITMAP
0FFF00
3FFFC0
7FCFE0
7F03F0
FCF9F8
FDFCF8
F9FEF8
F9FEF8
F9CEF8
FDCEF8
FDCCF8
FCCDF8
FF4BF8
FFCFF8
FFCFF8
FFFFF8
FFFFF8
FFFFF8
FFFFF8
FFFFF0
7FFFF0
7FFFE0
1FFFC0
07FF00
ENDCHAR
STARTCHAR florin
ENCODING 402
SWIDTH 578 0
DWIDTH 21 0
BBX 21 24 0 0
BITMAP
0FFF00
3FFFC0
7FC3E0
7F9FF0
FF9FF8
FF9FF8
FF9FF8
FF9FF8
FE07F8
FF9FF8
FF9FF8
FF9FF8
FF9FF8
FF9FF8
FF9FF8
FF9FF8
FF9FF8
FF9FF8
FC3FF8
FFFFF0
7FFFF0
7FFFE0
1FFFC0
07FF00
ENDCHAR
STARTCHAR uni01CD
ENCODING 461
SWIDTH 578 0
DWIDTH 21 0
BBX 21 34 0 0
BITMAP
01CF00
07FF80
07FF80
077BC0
073380
07B780
07B780
07DF80
03CF00
03FF00
0FFF00
3FFFC0
7E01E0
7E79F0
FCFCF8
FCFCF8
FCFCF8
FCFCF8
FCFCF8
FC00F8
FC00F8
FCFCF8
FCFCF8
F9FCF8
F9FE78
F9FE78
FFFFF8
FFFFF8
FFFFF8
FFFFF0
7FFFF0
7FFFE0
1FFFC0
07FF00
ENDCHAR
STARTCHAR uni01CE
ENCODING 462
SWIDTH 578 0
DWIDTH 21 0
BBX 21 34 0 0
BITMAP
01C700
03FF80
07FFC0
073BC0
07BBC0
07B3C0
07D780
03D780
03CF80
03FF00
0FFF00
3FFFC0
7C01E0
7FF9F0
FFFDF8
FFFDF8
FFFDF8
FFFDF8
FF05F8
FC01F8
F9FDF8
F9FDF8
F9FDF8
F9FDF8
F801F8
FC01F8
FFFFF8
FFFFF8
FFFFF8
FFFFF0
7FFFF0
7FFFE0
1FFFC0
07FF00
ENDCHAR
STARTCHAR uni01CF
ENCODING 463
SWIDTH 578 0
DWIDTH 21 0
BBX 21 34 0 0
BITMAP
01E700
03FF80
07FFC0
07B9C0
07BBC0
0793C0
03D7C0
03D780
03C780
03FF80
0FFF00
3FFFC0
7C00E0
7FCFF0
FFCFF8
FFCFF8
FFCFF8
FFCFF8
FFCFF8
FFCFF8
FFCFF8
FFCFF8
FFCFF8
FFCFF8
FC00F8
FC00F8
FFFFF8
FFFFF8
FFFFF8
FFFFF0
7FFFF0
7FFFE0
1FFFC0
07FF00
ENDCHAR
STARTCHAR uni01D0
ENCODING 464
SWIDTH 578 0
DWIDTH 21 0
BBX 21 34 0 0
BITMAP
01C700
03FF80
07FFC0
073BC0
07BBC0
07B3C0
07D780
03D780
03C780
03FF80
0FFF00
3FFFC0
7C00E0
7FCFF0
FFCFF8
FFCFF8
FFCFF8
FFCFF8
FFCFF8
FFCFF8
FFCFF8
FFCFF8
FFCFF8
FFCFF8
FC00F8
FC00F8
FFFFF8
FFFFF8
FFFFF8
FFFFF0
7FFFF0
7FFFE0
1FFFC0
07FF00
ENDCHAR
STARTCHAR uni01D1
ENCODING 465
SWIDTH 578 0
DWIDTH 21 0
BBX 21 34 0 0
BITMAP
01CF00
07FF80
07FFC0
073BC0
07BBC0
07B3C0
079780
03D780
03CF80
03FF00
0FFF00
3FFFC0
7C00E0
7CFC70
FCFE78
FCFE78
FCFE78
FCFE78
FCFE78
FCFE78
FCFE78
FCFE78
FCFE78
FCFE78
FC0078
FE00F8
FFFFF8
FFFFF8
FFFFF8
FFFFF0
7FFFF0
7FFFE0
1FFFC0
07FF00
ENDCHAR
STARTCHAR uni01D3
ENCODING 467
SWIDTH 578 0
DWIDTH 21 0
BBX 21 34 0 0
BITMAP
01C700
03FF80
07FFC0
073BC0
07BBC0
07B3C0
07D780
03D780
03CF80
03FF00
0FFF00
3FFFC0
7DFE60
7DFE70
FDFE78
FDFE78
FDFE78
FDFE78
FDFE78
FDFE78
FDFE78
FDFE78
FDFE78
FCFE78
FC00F8
FE00F8
FFFFF8
FFFFF8
FFFFF8
FFFFF0
7FFFF0
7FFFE0
1FFFC0
07FF00
ENDCHAR
STARTCHAR uni01D4
ENCODING 468
SWIDTH 578 0
DWIDTH 21 0
BBX 21 34 0 0
BITMAP
01C700
03FF80
07FFC0
073BC0
07BBC0
07B3C0
07D780
03D780
03C780
03FF80
0FFF00
3FFFC0
7DFE60
7DFE70
FDFE78
FDFE78
FDFE78
FDFE78
FDFE78
FDFE78
FDFE78
FDFE78
FDFE78
FCFE78
FC00F8
FE00F8
FFFFF8
FFFFF8
FFFFF8
FFFFF0
7FFFF0
7FFFE0
1FFFC0
07FF00
ENDCHAR
STARTCHAR uni0200
ENCODING 512
SWIDTH 578 0
DWIDTH 21 0
BBX 21 34 0 0
BITMAP
0FF000
1FF800
1FFC00
3BBC00
7DDE00
3DCE00
1EEF00
1E7780
0F7780
07FF80
0FFF00
3FFFC0
7E01E0
7E79F0
FCFCF8
FCFCF8
FCFCF8
FCFCF8
FCFCF8
FC00F8
FC00F8
FCFCF8
FCFCF8
F9FCF8
F9FE78
F9FE78
FFFFF8
FFFFF8
FFFFF8
FFFFF0
7FFFF0
7FFFE0
1FFFC0
07FF00
ENDCHAR
STARTCHAR uni0201
ENCODING 513
SWIDTH 578 0
DWIDTH 21 0
BBX 21 34 0 0
BITMAP
0FF000
1FF800
1FFC00
3BBC00
7DDE00
3DCE00
1EEF00
1E7780
0F7780
07FF80
0FFF00
3FFFC0
7C01E0
7FF9F0
FFFDF8
FFFDF8
FFFDF8
FFFDF8
FF05F8
FC01F8
F9FDF8
F9FDF8
F9FDF8
F9FDF8
F801F8
FC01F8
FFFFF8
FFFFF8
FFFFF8
FFFFF0
7FFFF0
7FFFE0
1FFFC0
07FF00
ENDCHAR
STARTCHAR uni0202
ENCODING 514
SWIDTH 578 0
DWIDTH 21 0
BBX 21 33 0 0
BITMAP
01FE00
07FF80
0FFFC0
0FFFC0
1FCFE0
1F03E0
1F7BE0
0FFFC0
0FFFC0
0FFF80
3FFFC0
7E01E0
7E79F0
FCFCF8
FCFCF8
FCFCF8
FCFCF8
FCFCF8
FC00F8
FC00F8
FCFCF8
FCFCF8
F9FCF8
F9FE78
F9FE78
FFFFF8
FFFFF8
FFFFF8
FFFFF0
7FFFF0
7FFFE0
1FFFC0
07FF00
ENDCHAR
STARTCHAR uni0203
ENCODING 515
SWIDTH 578 0
DWIDTH 21 0
BBX 21 33 0 0
BITMAP
01FE00
07FF80
0FFFC0
0FFFC0
1FCFE0
1F03E0
1F7BE0
0FFFC0
0FFFC0
0FFF80
3FFFC0
7C01E0
7FF9F0
FFFDF8
FFFDF8
FFFDF8
FFFDF8
FF05F8
FC01F8
F9FDF8
F9FDF8
F9FDF8
F9FDF8
F801F8
FC01F8
FFFFF8
FFFFF8
FFFFF8
FFFFF0
7FFFF0
7FFFE0
1FFFC0
07FF00
ENDCHAR
STARTCHAR uni0204
ENCODING 516
SWIDTH 578 0
DWIDTH 21 0
BBX 21 34 0 0
BITMAP
0FF000
1FF800
1FFC00
3BBC00
7DDE00
3DCE00
1EEF00
1E7780
0F7780
07FF80
0FFF00
3FFFC0
7E00E0
7E7FF0
FE7FF8
FE7FF8
FE7FF8
FE7FF8
FE01F8
FE01F8
FE7FF8
FE7FF8
FE7FF8
FE7FF8
FE00F8
FE00F8
FFFFF8
FFFFF8
FFFFF8
FFFFF0
7FFFF0
7FFFE0
1FFFC0
07FF00
ENDCHAR
STARTCHAR uni0205
ENCODING 517
SWIDTH 578 0
DWIDTH 21 0
BBX 21 34 0 0
BITMAP
0FF000
1FF800
1FFC00
3BBC00
7DDE00
3DCE00
1EEF00
1E7780
0F7780
07FF80
0FFF00
3FFFC0
7C01E0
79F9F0
F9FDF8
F9FDF8
F9FDF8
F801F8
F801F8
F9FFF8
F9FFF8
F9FFF8
F9FFF8
F8F9F8
FC01F8
FFFFF8
FFFFF8
FFFFF8
FFFFF8
FFFFF0
7FFFF0
7FFFE0
1FFFC0
07FF00
ENDCHAR
STARTCHAR uni0206
ENCODING 518
SWIDTH 578 0
DWIDTH 21 0
BBX 21 33 0 0
BITMAP
01FE00
07FF80
0FFFC0
0FFFC0
1FCFE0
1F03E0
1F7BE0
0FFFC0
0FFFC0
0FFF80
3FFFC0
7E00E0
7E7FF0
FE7FF8
FE7FF8
FE7FF8
FE7FF8
FE01F8
FE01F8
FE7FF8
FE7FF8
FE7FF8
FE7FF8
FE00F8
FE00F8
FFFFF8
FFFFF8
FFFFF8
FFFFF0
7FFFF0
7FFFE0
1FFFC0
07FF00
ENDCHAR
STARTCHAR uni0207
ENCODING 519
SWIDTH 578 0
DWIDTH 21 0
BBX 21 33 0 0
BITMAP
01FE00
07FF80
0FFFC0
0FFFC0
1FCFE0
1F03E0
1F7BE0
0FFFC0
0FFFC0
0FFF80
3FFFC0
7C01E0
79F9F0
F9FDF8
F9FDF8
F9FDF8
F801F8
F801F8
F9FFF8
F9FFF8
F9FFF8
F9FFF8
F8F9F8
FC01F8
FFFFF8
FFFFF8
FFFFF8
FFFFF8
FFFFF0
7FFFF0
7FFFE0
1FFFC0
07FF00
ENDCHAR
STARTCHAR uni0208
ENCODING 520
SWIDTH 578 0
DWIDTH 21 0
BBX 21 34 0 0
BITMAP
0FF000
1FF800
1FFC00
3BBC00
7DDE00
3DCE00
1EEF00
1E7780
0F7780
07FF80
0FFF00
3FFFC0
7C00E0
7FCFF0
FFCFF8
FFCFF8
FFCFF8
FFCFF8
FFCFF8
FFCFF8
FFCFF8
FFCFF8
FFCFF8
FFCFF8
FC00F8
FC00F8
FFFFF8
FFFFF8
FFFFF8
FFFFF0
7FFFF0
7FFFE0
1FFFC0
07FF00
ENDCHAR
STARTCHAR uni0209
ENCODING 521
SWIDTH 578 0
DWIDTH 21 0
BBX 21 34 0 0
BITMAP
0FF000
1FF800
1FFC00
3BBC00
7DDE00
3DCE00
1EEF00
1E7780
0F7780
07FF80
0FFF00
3FFFC0
7C00E0
7FCFF0
FFCFF8
FFCFF8
FFCFF8
FFCFF8
FFCFF8
FFCFF8
FFCFF8
FFCFF8
FFCFF8
FFCFF8
FC00F8
FC00F8
FFFFF8
FFFFF8
FFFFF8
FFFFF0
7FFFF0
7FFFE0
1FFFC0
07FF00
ENDCHAR
STARTCHAR uni020A
ENCODING 522
SWIDTH 578 0
DWIDTH 21 0
BBX 21 33 0 0
BITMAP
01FE00
07FF80
0FFFC0
0FFFC0
1FCFE0
1F03E0
1F7BE0
0FFFC0
0FFFC0
0FFF80
3FFFC0
7C00E0
7FCFF0
FFCFF8
FFCFF8
FFCFF8
FFCFF8
FFCFF8
FFCFF8
FFCFF8
FFCFF8
FFCFF8
FFCFF8
FC00F8
FC00F8
FFFFF8
FFFFF8
FFFFF8
FFFFF0
7FFFF0
7FFFE0
1FFFC0
07FF00
ENDCHAR
STARTCHAR uni020B
ENCODING 523
SWIDTH 578 0
DWIDTH 21 0
BBX 21 33 0 0
BITMAP
01FE00
07FF80
0FFFC0
0FFFC0
1FCFE0
1F03E0
1F7BE0
0FFFC0
0FFFC0
0FFF80
3FFFC0
7C00E0
7FCFF0
FFCFF8
FFCFF8
FFCFF8
FFCFF8
FFCFF8
FFCFF8
FFCFF8
FFCFF8
FFCFF8
FFCFF8
FC00F8
FC00F8
FFFFF8
FFFFF8
FFFFF8
FFFFF0
7FFFF0
7FFFE0
1FFFC0
07FF00
ENDCHAR
STARTCHAR uni020C
ENCODING 524
SWIDTH 578 0
DWIDTH 21 0
BBX 21 34 0 0
BITMAP
0FF000
1FF800
1FFC00
3BBC00
7DDE00
3DCE00
1EEF00
1E7780
0F7780
07FF80
0FFF00
3FFFC0
7C00E0
7CFC70
FCFE78
FCFE78
FCFE78
FCFE78
FCFE78
FCFE78
FCFE78
FCFE78
FCFE78
FCFE78
FC0078
FE00F8
FFFFF8
FFFFF8
FFFFF8
FFFFF0
7FFFF0
7FFFE0
1FFFC0
07FF00
ENDCHAR
STARTCHAR uni020D
ENCODING 525
SWIDTH 578 0
DWIDTH 21 0
BBX 21 34 0 0
BITMAP
0FF000
1FF800
1FFC00
3BBC00
7DDE00
3DCE00
1EEF00
1E7780
0F7780
07FF80
0FFF00
3FFFC0
7C00E0
7CFC70
FCFE78
FCFE78
FCFE78
FCFE78
FCFE78
FCFE78
FCFE78
FCFE78
FCFE78
FCFE78
FC0078
FE00F8
FFFFF8
FFFFF8
FFFFF8
FFFFF0
7FFFF0
7FFFE0
1FFFC0
07FF00
ENDCHAR
STARTCHAR uni020E
ENCODING 526
SWIDTH 578 0
DWIDTH 21 0
BBX 21 33 0 0
BITMAP
01FE00
07FF80
0FFFC0
0FFFC0
1FCFE0
1F03E0
1F7BE0
0FFFC0
0FFFC0
0FFF80
3FFFC0
7C00E0
7CFC70
FCFE78
FCFE78
FCFE78
FCFE78
FCFE78
FCFE78
FCFE78
FCFE78
FCFE78
FCFE78
FC0078
FE00F8
FFFFF8
FFFFF8
FFFFF8
FFFFF0
7FFFF0
7FFFE0
1FFFC0
07FF00
ENDCHAR
STARTCHAR uni020F
ENCODING 527
SWIDTH 578 0
DWIDTH 21 0
BBX 21 33 0 0
BITMAP
01FE00
07FF80
0FFFC0
0FFFC0
1FCFE0
1F03E0
1F7BE0
0FFFC0
0FFFC0
0FFF80
3FFFC0
7C00E0
7CFC70
FCFE78
FCFE78
FCFE78
FCFE78
FCFE78
FCFE78
FCFE78
FCFE78
FCFE78
FCFE78
FC0078
FE00F8
FFFFF8
FFFFF8
FFFFF8
FFFFF0
7FFFF0
7FFFE0
1FFFC0
07FF00
ENDCHAR
STARTCHAR uni0210
ENCODING 528
SWIDTH 578 0
DWIDTH 21 0
BBX 21 34 0 0
BITMAP
0FF000
1FF800
1FFC00
3BBC00
7DDE00
3DCE00
1EEF00
1E7780
0F7780
07FF80
0FFF00
3FFFC0
7C01E0
7CF8F0
FCFCF8
FCFCF8
FCFCF8
FCFDF8
FC01F8
FC07F8
FCF9F8
FCFCF8
FCFCF8
FCFCF8
FCFCF8
FCFCF8
FFFFF8
FFFFF8
FFFFF8
FFFFF0
7FFFF0
7FFFE0
1FFFC0
07FF00
ENDCHAR
STARTCHAR uni0211
ENCODING 529
SWIDTH 578 0
DWIDTH 21 0
BBX 21 34 0 0
BITMAP
0FF000
1FF800
1FFC00
3BBC00
7DDE00
3DCE00
1EEF00
1E7780
0F7780
07FF80
0FFF00
3FFFC0
7C01E0
7CF8F0
FCFCF8
FCFCF8
FCFCF8
FCFDF8
FC01F8
FC07F8
FCF9F8
FCFCF8
FCFCF8
FCFCF8
FCFCF8
FCFCF8
FFFFF8
FFFFF8
FFFFF8
FFFFF0
7FFFF0
7FFFE0
1FFFC0
07FF00
ENDCHAR
STARTCHAR uni0212
ENCODING 530
SWIDTH 578 0
DWIDTH 21 0
BBX 21 33 0 0
BITMAP
01FE00
07FF80
0FFFC0
0FFFC0
1FCFE0
1F03E0
1F7BE0
0FFFC0
0FFFC0
0FFF80
3FFFC0
7C01E0
7CF8F0
FCFCF8
FCFCF8
FCFCF8
FCFDF8
FC01F8
FC07F8
FCF9F8
FCFCF8
FCFCF8
FCFCF8
FCFCF8
FCFCF8
FFFFF8
FFFFF8
FFFFF8
FFFFF0
7FFFF0
7FFFE0
1FFFC0
07FF00
ENDCHAR
STARTCHAR uni0213
ENCODING 531
SWIDTH 578 0
DWIDTH 21 0
BBX 21 33 0 0
BITMAP
01FE00
07FF80
0FFFC0
0FFFC0
1FCFE0
1F03E0
1F7BE0
0FFFC0
0FFFC0
0FFF80
3FFFC0
7C01E0
7CF8F0
FCFCF8
FCFCF8
FCFCF8
FCFDF8
FC01F8
FC07F8
FCF9F8
FCFCF8
FCFCF8
FCFCF8
FCFCF8
FCFCF8
FFFFF8
FFFFF8
FFFFF8
FFFFF0
7FFFF0
7FFFE0
1FFFC0
07FF00
ENDCHAR
STARTCHAR uni0214
ENCODING 532
SWIDTH 578 0
DWIDTH 21 0
BBX 21 34 0 0
BITMAP
0FF000
1FF800
1FFC00
3BBC00
7DDE00
3DCE00
1EEF00
1E7780
0F7780
07FF80
0FFF00
3FFFC0
7DFE60
7DFE70
FDFE78
FDFE78
FDFE78
FDFE78
FDFE78
FDFE78
FDFE78
FDFE78
FDFE78
FCFE78
FC00F8
FE00F8
FFFFF8
FFFFF8
FFFFF8
FFFFF0
7FFFF0
7FFFE0
1FFFC0
07FF00
ENDCHAR
STARTCHAR uni0215
ENCODING 533
SWIDTH 578 0
DWIDTH 21 0
BBX 21 34 0 0
BITMAP
0FF000
1FF800
1FFC00
3BBC00
7DDE00
3DCE00
1EEF00
1E7780
0F7780
07FF80
0FFF00
3FFFC0
7DFE60
7DFE70
FDFE78
FDFE78
FDFE78
FDFE78
FDFE78
FDFE78
FDFE78
FDFE78
FDFE78
FCFE78
FC00F8
FE00F8
FFFFF8
FFFFF8
FFFFF8
FFFFF0
7FFFF0
7FFFE0
1FFFC0
07FF00
ENDCHAR
STARTCHAR uni0216
ENCODING 534
SWIDTH 578 0
DWIDTH 21 0
BBX 21 33 0 0
BITMAP
01FE00
07FF80
0FFFC0
0FFFC0
1FCFE0
1F03E0
1F7BE0
0FFFC0
0FFFC0
0FFF80
3FFFC0
7DFE60
7DFE70
FDFE78
FDFE78
FDFE78
FDFE78
FDFE78
FDFE78
FDFE78
FDFE78
FDFE78
FCFE78
FC00F8
FE00F8
FFFFF8
FFFFF8
FFFFF8
FFFFF0
7FFFF0
7FFFE0
1FFFC0
07FF00
ENDCHAR
STARTCHAR uni0217
ENCODING 535
SWIDTH 578 0
DWIDTH 21 0
BBX 21 33 0 0
BITMAP
01FE00
07FF80
0FFFC0
0FFFC0
1FCFE0
1F03E0
1F7BE0
0FFFC0
0FFFC0
0FFF80
3FFFC0
7DFE60
7DFE70
FDFE78
FDFE78
FDFE78
FDFE78
FDFE78
FDFE78
FDFE78
FDFE78
FDFE78
FCFE78
FC00F8
FE00F8
FFFFF8
FFFFF8
FFFFF8
FFFFF0
7FFFF0
7FFFE0
1FFFC0
07FF00
ENDCHAR
STARTCHAR uni0218
ENCODING 536
SWIDTH 578 0
DWIDTH 21 0
BBX 21 24 0 0
BITMAP
0FFF00
3FFFC0
7E00E0
7C7EF0
FCFFF8
FCFFF8
FCFFF8
FCFFF8
FE00F8
FF80F8
FFFCF8
FFFEF8
FFFEF8
FFFCF8
FE00F8
FE01F8
FFFFF8
FFC7F8
FFC7F8
FFC7F0
7FEFF0
7FEFE0
1FFFC0
07FF00
ENDCHAR
STARTCHAR uni0219
ENCODING 537
SWIDTH 578 0
DWIDTH 21 0
BBX 21 24 0 0
BITMAP
0FFF00
3FFFC0
7E00E0
7C7EF0
FCFFF8
FCFFF8
FCFFF8
FCFFF8
FE00F8
FF80F8
FFFCF8
FFFEF8
FFFEF8
FFFCF8
FE00F8
FE01F8
FFFFF8
FFC7F8
FFC7F8
FFC7F0
7FEFF0
7FEFE0
1FFFC0
07FF00
ENDCHAR
STARTCHAR uni021A
ENCODING 538
SWIDTH 578 0
DWIDTH 21 0
BBX 21 24 0 0
BITMAP
0FFF00
3FFFC0
7C00E0
7FCFF0
FFCFF8
FFCFF8
FFCFF8
FFCFF8
FFCFF8
FFCFF8
FFCFF8
FFCFF8
FFCFF8
FFCFF8
FFCFF8
FFCFF8
FFFFF8
FFC7F8
FFC7F8
FFC7F0
7FEFF0
7FEFE0
1FFFC0
07FF00
ENDCHAR
STARTCHAR uni021B
ENCODING 539
SWIDTH 578 0
DWIDTH 21 0
BBX 21 24 0 0
BITMAP
0FFF00
3FFFC0
7C00E0
7FCFF0
FFCFF8
FFCFF8
FFCFF8
FFCFF8
FFCFF8
FFCFF8
FFCFF8
FFCFF8
FFCFF8
FFCFF8
FFCFF8
FFCFF8
FFFFF8
FFC7F8
FFC7F8
FFC7F0
7FEFF0
7FEFE0
1FFFC0
07FF00
ENDCHAR
STARTCHAR circumflex
ENCODING 710
SWIDTH 355 0
DWIDTH 13 0
BBX 13 12 0 1
BITMAP
0780
1FC0
3FC0
3FE0
3AE0
7AF0
7AF0
F670
F778
E778
FFF8
FFF0
ENDCHAR
STARTCHAR caron
ENCODING 711
SWIDTH 355 0
DWIDTH 13 0
BBX 13 11 0 1
BITMAP
38E0
7FF0
FFF8
E778
F778
F678
FAF0
7AF0
79F0
7FF0
3FE0
ENDCHAR
STARTCHAR breve
ENCODING 728
SWIDTH 428 0
DWIDTH 15 0
BBX 15 11 0 0
BITMAP
0180
1FF0
3FFC
7FFE
FFFE
FFFE
FB9E
F81E
FC3E
7FFC
3FF8
ENDCHAR
STARTCHAR dotaccent
ENCODING 729
SWIDTH 428 0
DWIDTH 15 0
BBX 15 11 0 0
BITMAP
0180
1FF0
3FFC
7FFE
FFFE
FC7E
FC7E
FC7E
FFFE
7FFE
7FFC
ENDCHAR
STARTCHAR ring
ENCODING 730
SWIDTH 368 0
DWIDTH 13 0
BBX 13 11 0 0
BITMAP
1FC0
3FE0
7FF0
7078
F278
F738
F738
F078
F8F8
7FF8
7FF0
ENDCHAR
STARTCHAR ogonek
ENCODING 731
SWIDTH 101 0
DWIDTH 4 0
BBX 4 6 0 -6
BITMAP
70
C0
C0
C0
F0
10
ENDCHAR
STARTCHAR tilde
ENCODING 732
SWIDTH 428 0
DWIDTH 15 0
BBX 15 12 0 0
BITMAP
0180
1FF0
3FF8
7FFC
FFFE
FFFE
FFFE
F1DE
F01E
F71E
7FFC
3FFC
ENDCHAR
STARTCHAR hungarumlaut
ENCODING 733
SWIDTH 419 0
DWIDTH 15 0
BBX 15 11 0 1
BITMAP
0FF8
1FF8
1FFC
3CCE
3DDE
7B9E
7BBC
F778
FF78
FFF0
FFE0
ENDCHAR
STARTCHAR uni030F
ENCODING 783
SWIDTH 419 0
DWIDTH 15 0
BBX 15 11 0 1
BITMAP
3FE0
3FF0
7FF0
6678
F778
FBBC
7B9C
3DDE
3EEE
1FFE
0FFE
ENDCHAR
STARTCHAR mu
ENCODING 956
SWIDTH 578 0
DWIDTH 21 0
BBX 21 24 0 0
BITMAP
0FFF00
3FFFC0
7DFE60
7DFE70
FDFE78
FDFE78
FDFE78
FDFE78
FDFE78
FDFE78
FDFE78
FDFE78
FDFE78
FDFE78
FC00F8
FC00F8
FDFFF8
FFFFF8
FFFFF8
FFFFF0
7FFFF0
7FFFE0
1FFFC0
07FF00
ENDCHAR
STARTCHAR pi
ENCODING 960
SWIDTH 578 0
DWIDTH 21 0
BBX 21 24 0 0
BITMAP
0FFF00
3FCFC0
7E01E0
79FCF0
F30778
F773B8
EF7BB8
EE7BD8
EE7BD8
EE03D8
EEFBD8
EEF9D8
EEF998
E6F9B8
F3FF38
F9FE78
FC78F8
FF03F8
FFFFF8
FFFFF0
7FFFF0
7FFFE0
1FFFC0
07FF00
ENDCHAR
STARTCHAR uni1E60
ENCODING 7776
SWIDTH 578 0
DWIDTH 21 0
BBX 21 33 0 0
BITMAP
001000
01FF00
07FFC0
07FFC0
0FFFE0
0FC7E0
0FC7E0
0FC7E0
0FFFE0
0FFFC0
3FFFC0
7E00E0
7C7EF0
FCFFF8
FCFFF8
FCFFF8
FCFFF8
FE00F8
FF80F8
FFFCF8
FFFEF8
FFFEF8
FFFCF8
FE00F8
FE01F8
FFFFF8
FFFFF8
FFFFF8
FFFFF0
7FFFF0
7FFFE0
1FFFC0
07FF00
ENDCHAR
STARTCHAR uni1E8E
ENCODING 7822
SWIDTH 578 0
DWIDTH 21 0
BBX 21 33 0 0
BITMAP
001000
01FF00
07FF80
0FFFC0
0FFFE0
1FCFE0
1FCFE0
0FCFE0
0FFFE0
0FFFC0
3FFFC0
7CFCE0
7E7CF0
FE79F8
FF39F8
FF33F8
FF33F8
FF93F8
FF87F8
FFC7F8
FFCFF8
FFCFF8
FFCFF8
FFCFF8
FFCFF8
FFFFF8
FFFFF8
FFFFF8
FFFFF0
7FFFF0
7FFFE0
1FFFC0
07FF00
ENDCHAR
STARTCHAR uni1E8F
ENCODING 7823
SWIDTH 578 0
DWIDTH 21 0
BBX 21 33 0 0
BITMAP
001000
01FF00
07FF80
0FFFC0
0FFFE0
1FCFE0
1FCFE0
0FCFE0
0FFFE0
0FFFC0
3FFFC0
7CFCE0
7E7CF0
FE79F8
FF39F8
FF33F8
FF33F8
FF93F8
FF87F8
FFC7F8
FFCFF8
FFCFF8
FFCFF8
FFCFF8
FFCFF8
FFFFF8
FFFFF8
FFFFF8
FFFFF0
7FFFF0
7FFFE0
1FFFC0
07FF00
ENDCHAR
STARTCHAR uni1EBC
ENCODING 7868
SWIDTH 578 0
DWIDTH 21 0
BBX 21 35 0 0
BITMAP
003800
01FF00
03FF80
07FFC0
0FFFE0
0FFFE0
0FFFE0
0F39E0
0E01E0
0E63E0
07FFC0
0FFF80
3FFFC0
7E00E0
7E7FF0
FE7FF8
FE7FF8
FE7FF8
FE7FF8
FE01F8
FE01F8
FE7FF8
FE7FF8
FE7FF8
FE7FF8
FE00F8
FE00F8
FFFFF8
FFFFF8
FFFFF8
FFFFF0
7FFFF0
7FFFE0
1FFFC0
07FF00
ENDCHAR
STARTCHAR uni1EF8
ENCODING 7928
SWIDTH 578 0
DWIDTH 21 0
BBX 21 35 0 0
BITMAP
003800
01FF00
07FF80
07FFC0
0FFFC0
0FFFE0
1FFFE0
1F39E0
0E01E0
0E63E0
0FFFC0
0FFF80
3FFFC0
7CFCE0
7E7CF0
FE79F8
FF39F8
FF33F8
FF33F8
FF93F8
FF87F8
FFC7F8
FFCFF8
FFCFF8
FFCFF8
FFCFF8
FFCFF8
FFFFF8
FFFFF8
FFFFF8
FFFFF0
7FFFF0
7FFFE0
1FFFC0
07FF00
ENDCHAR
STARTCHAR uni1EF9
ENCODING 7929
SWIDTH 578 0
DWIDTH 21 0
BBX 21 35 0 0
BITMAP
003800
01FF00
07FF80
07FFC0
0FFFC0
0FFFE0
1FFFE0
1F39E0
0E01E0
0E63E0
0FFFC0
0FFF80
3FFFC0
7CFCE0
7E7CF0
FE79F8
FF39F8
FF33F8
FF33F8
FF93F8
FF87F8
FFC7F8
FFCFF8
FFCFF8
FFCFF8
FFCFF8
FFCFF8
FFFFF8
FFFFF8
FFFFF8
FFFFF0
7FFFF0
7FFFE0
1FFFC0
07FF00
ENDCHAR
STARTCHAR endash
ENCODING 8211
SWIDTH 428 0
DWIDTH 15 0
BBX 15 24 0 0
BITMAP
0FE0
3FF8
7FFC
7FFE
FFFE
FFFE
F01E
F01E
FFFE
FFFE
FFFE
FFFE
FFFE
FFFE
FFFE
FFFE
FFFE
FFFE
FFFE
FFFE
7FFE
7FFC
1FF8
07E0
ENDCHAR
STARTCHAR emdash
ENCODING 8212
SWIDTH 428 0
DWIDTH 15 0
BBX 15 24 0 0
BITMAP
0FE0
1FF8
7FFC
7FFE
FFFE
FFFE
0000
0000
FFFE
FFFE
FFFE
FFFE
FFFE
FFFE
FFFE
FFFE
FFFE
FFFE
FFFE
FFFE
7FFE
7FFC
1FF8
07E0
ENDCHAR
STARTCHAR quoteleft
ENCODING 8216
SWIDTH 428 0
DWIDTH 15 0
BBX 15 24 0 0
BITMAP
0FE0
3FF8
7E7C
7EFE
FE7E
FE7E
FFFE
FFFE
FFFE
FFFE
FFFE
FFFE
FFFE
FFFE
FFFE
FFFE
FFFE
FFFE
FFFE
FFFE
7FFE
7FFC
1FF8
07E0
ENDCHAR
STARTCHAR quoteright
ENCODING 8217
SWIDTH 428 0
DWIDTH 15 0
BBX 15 24 0 0
BITMAP
0FE0
3FF8
7E7C
7E7E
FF7E
FEFE
FFFE
FFFE
FFFE
FFFE
FFFE
FFFE
FFFE
FFFE
FFFE
FFFE
FFFE
FFFE
FFFE
FFFE
7FFE
7FFC
1FF8
07E0
ENDCHAR
STARTCHAR quotesinglbase
ENCODING 8218
SWIDTH 428 0
DWIDTH 15 0
BBX 15 24 0 0
BITMAP
0FE0
3FF8
7FFC
7FFE
FFFE
FFFE
FFFE
FFFE
FFFE
FFFE
FFFE
FFFE
FFFE
FFFE
FE7E
FE7E
FF7E
FE7E
FFFE
FFFE
7FFE
7FFC
1FF8
07E0
ENDCHAR
STARTCHAR quotedblleft
ENCODING 8220
SWIDTH 428 0
DWIDTH 15 0
BBX 15 24 0 0
BITMAP
0FE0
3FF8
79BC
7B3E
F91E
F91E
FFFE
FFFE
FFFE
FFFE
FFFE
FFFE
FFFE
FFFE
FFFE
FFFE
FFFE
FFFE
FFFE
FFFE
7FFE
7FFC
1FF8
07E0
ENDCHAR
STARTCHAR quotedblright
ENCODING 8221
SWIDTH 428 0
DWIDTH 15 0
BBX 15 24 0 0
BITMAP
0FE0
3FF8
789C
78DE
FD9E
FDBE
FFFE
FFFE
FFFE
FFFE
FFFE
FFFE
FFFE
FFFE
FFFE
FFFE
FFFE
FFFE
FFFE
FFFE
7FFE
7FFC
1FF8
07E0
ENDCHAR
STARTCHAR quotedblbase
ENCODING 8222
SWIDTH 428 0
DWIDTH 15 0
BBX 15 24 0 0
BITMAP
0FE0
3FF8
7FFC
7FFE
FFFE
FFFE
FFFE
FFFE
FFFE
FFFE
FFFE
FFFE
FFFE
FFFE
F89E
F89E
FCDE
FDBE
FFFE
FFFE
7FFE
7FFC
1FF8
07E0
ENDCHAR
STARTCHAR dagger
ENCODING 8224
SWIDTH 578 0
DWIDTH 21 0
BBX 21 24 0 0
BITMAP
0FFF00
3FFFC0
7FCFE0
7FCFF0
FF01F8
FF01F8
FFCFF8
FFCFF8
FFCFF8
FFCFF8
FFCFF8
FFCFF8
FFCFF8
FFCFF8
FFCFF8
FFCFF8
FFFFF8
FFFFF8
FFFFF8
FFFFF0
7FFFF0
7FFFE0
1FFFC0
07FF00
ENDCHAR
STARTCHAR daggerdbl
ENCODING 8225
SWIDTH 578 0
DWIDTH 21 0
BBX 21 24 0 0
BITMAP
0FFF00
3FFFC0
7FCFE0
7FCFF0
FF01F8
FF01F8
FFCFF8
FFCFF8
FFCFF8
FFCFF8
FFCFF8
FFCFF8
FF01F8
FF01F8
FFCFF8
FFCFF8
FFFFF8
FFFFF8
FFFFF8
FFFFF0
7FFFF0
7FFFE0
1FFFC0
07FF00
ENDCHAR
STARTCHAR bullet
ENCODING 8226
SWIDTH 578 0
DWIDTH 21 0
BBX 21 24 0 0
BITMAP
0FFF00
3FFFC0
7FFFE0
7F03F0
FC00F8
FC00F8
FC00F8
FC00F8
FC00F8
FC00F8
FC00F8
FC00F8
FC00F8
FC00F8
FE01F8
FFFFF8
FFFFF8
FFFFF8
FFFFF8
FFFFF0
7FFFF0
7FFFE0
1FFFC0
07FF00
ENDCHAR
STARTCHAR ellipsis
ENCODING 8230
SWIDTH 578 0
DWIDTH 21 0
BBX 21 24 0 0
BITMAP
0FFF00
3FFFC0
7FFFE0
7FFFF0
FFFFF8
FFFFF8
FFFFF8
FFFFF8
FFFFF8
FFFFF8
FFFFF8
FFFFF8
FFFFF8
FFFFF8
F998F8
F998F8
FFFFF8
FFFFF8
FFFFF8
FFFFF0
7FFFF0
7FFFE0
1FFFC0
07FF00
ENDCHAR
STARTCHAR perthousand
ENCODING 8240
SWIDTH 640 0
DWIDTH 23 0
BBX 23 24 0 0
BITMAP
0FFFE0
3FFFF8
77BFFC
419FFC
999FFE
993FFE
813FFE
C13FFE
FF7FFE
FE77EE
FE4182
FE4CB2
FCCCBA
FCC082
FCC182
FFFFFE
FFFFFE
FFFFFE
FFFFFE
FFFFFE
7FFFFC
7FFFFC
1FFFF0
07FFC0
ENDCHAR
STARTCHAR guilsinglleft
ENCODING 8249
SWIDTH 578 0
DWIDTH 21 0
BBX 21 24 0 0
BITMAP
0FFF00
3FFFC0
7FFFE0
7FFBF0
FFF3F8
FFE7F8
FFCFF8
FFDFF8
FF9FF8
FF3FF8
FF3FF8
FF9FF8
FFCFF8
FFCFF8
FFE7F8
FFF3F8
FFFBF8
FFFFF8
FFFFF8
FFFFF0
7FFFF0
7FFFE0
1FFFC0
07FF00
ENDCHAR
STARTCHAR guilsinglright
ENCODING 8250
SWIDTH 578 0
DWIDTH 21 0
BBX 21 24 0 0
BITMAP
0FFF00
3FFFC0
7FFFE0
7FBFF0
FFBFF8
FF9FF8
FFCFF8
FFEFF8
FFE7F8
FFF3F8
FFF3F8
FFE7F8
FFEFF8
FFCFF8
FF9FF8
FFBFF8
FFBFF8
FFFFF8
FFFFF8
FFFFF0
7FFFF0
7FFFE0
1FFFC0
07FF00
ENDCHAR
STARTCHAR fraction
ENCODING 8260
SWIDTH 428 0
DWIDTH 15 0
BBX 15 24 0 0
BITMAP
0FE0
3FF8
7F3C
7F3E
FE7E
FE7E
FE7E
FE7E
FE7E
FE7E
FCFE
FCFE
FCFE
FCFE
FCFE
FCFE
FFFE
FFFE
FFFE
FFFE
7FFE
7FFC
1FF8
07E0
ENDCHAR
STARTCHAR Euro
ENCODING 8364
SWIDTH 578 0
DWIDTH 21 0
BBX 21 24 0 0
BITMAP
0FFF00
3FFFC0
7C01E0
7CFDF0
F9FFF8
F9FFF8
F00FF8
F00FF8
F9FFF8
F00FF8
F00FF8
F9FFF8
F9FFF8
FDFFF8
FC01F8
FE01F8
FFFFF8
FFFFF8
FFFFF8
FFFFF0
7FFFF0
7FFFE0
1FFFC0
07FF00
ENDCHAR
STARTCHAR trademark
ENCODING 8482
SWIDTH 578 0
DWIDTH 21 0
BBX 21 24 0 0
BITMAP
0FFF00
3FFFC0
7FFFE0
7FFFF0
FFFFF8
FFFFF8
FFFFF8
F85DF8
F849F8
FCC9F8
FCD5F8
FCD5F8
FCD5F8
FFFFF8
FFFFF8
FFFFF8
FFFFF8
FFFFF8
FFFFF8
FFFFF0
7FFFF0
7FFFE0
1FFFC0
07FF00
ENDCHAR
STARTCHAR product
ENCODING 8719
SWIDTH 578 0
DWIDTH 21 0
BBX 21 24 0 0
BITMAP
0FFF00
3FCFC0
7E01E0
79FCF0
F3FF78
F703B8
EF79B8
EF7DD8
EF7DD8
EF79D8
EF01D8
EF7FD8
EF7F98
E77FB8
F37F38
F9FE78
FC78F8
FF03F8
FFFFF8
FFFFF0
7FFFF0
7FFFE0
1FFFC0
07FF00
ENDCHAR
STARTCHAR minus
ENCODING 8722
SWIDTH 428 0
DWIDTH 15 0
BBX 15 24 0 0
BITMAP
0FE0
3FF8
7FFC
7FFE
FFFE
FFFE
F01E
F01E
FFFE
FFFE
FFFE
FFFE
FFFE
FFFE
FFFE
FFFE
FFFE
FFFE
FFFE
FFFE
7FFE
7FFC
1FF8
07E0
ENDCHAR
STARTCHAR notequal
ENCODING 8800
SWIDTH 578 0
DWIDTH 21 0
BBX 21 24 0 0
BITMAP
0FFF00
3FFFC0
7FFFE0
7FF7F0
FFE7F8
FC01F8
FC01F8
FFCFF8
FF9FF8
FC01F8
FF3FF8
FF3FF8
FFFFF8
FFFFF8
FFFFF8
FFFFF8
FFFFF8
FFFFF8
FFFFF8
FFFFF0
7FFFF0
7FFFE0
1FFFC0
07FF00
ENDCHAR
STARTCHAR uni2706
ENCODING 9990
SWIDTH 578 0
DWIDTH 21 0
BBX 21 24 0 0
BITMAP
0FFF00
3FDFC0
7FE7E0
7FDBF0
FFEFF8
FF95F8
FE55F8
FD35F8
FCBFF8
FC7FF8
FC7FF8
FC7FF8
FE3FF8
FF3FF8
FF0BF8
FF89F8
FFE5F8
FFFFF8
FFFFF8
FFFFF0
7FFFF0
7FFFE0
1FFFC0
07FF00
ENDCHAR
STARTCHAR uni2708
ENCODING 9992
SWIDTH 578 0
DWIDTH 21 0
BBX 21 24 0 0
BITMAP
0FFF80
300440
40D820
407010
802008
802008
842188
832708
81FE08
80F808
807008
803008
803008
803008
802008
802008
800008
800008
803008
807008
407810
603020
100040
0FFF80
ENDCHAR
STARTCHAR uniF6D6
ENCODING 63190
SWIDTH 419 0
DWIDTH 15 0
BBX 15 11 0 1
BITMAP
3FE0
3FF0
7FF0
6678
F778
FBBC
7B9C
3DDE
3EEE
1FFE
0FFE
ENDCHAR
STARTCHAR uFFFF2
ENCODING 1048562
SWIDTH 578 0
DWIDTH 21 0
BBX 21 24 0 0
BITMAP
0FFF80
300040
402020
402010
803008
803008
803008
807008
80F808
81FE08
832708
842188
802008
802008
807008
80D808
800408
800008
803008
807008
407810
603020
100040
0FFF80
ENDCHAR
STARTCHAR uFFFF3
ENCODING 1048563
SWIDTH 578 0
DWIDTH 21 0
BBX 21 24 0 0
BITMAP
0FFF80
302040
403020
403810
803C08
813608
81B308
80F608
807C08
803808
807808
80FC08
81F608
81B708
803C08
803808
803008
802008
800008
800008
400010
600020
100040
0FFF80
ENDCHAR
STARTCHAR uFFFF4
ENCODING 1048564
SWIDTH 578 0
DWIDTH 21 0
BBX 21 24 0 0
BITMAP
0FFF00
3FFFC0
7FFFE0
7FCFF0
FFCFF8
FE49F8
FCCDF8
FDCEF8
F9CEF8
F9CEF8
F9FEF8
FDFEF8
FCFCF8
FE79F8
FF03F8
FFFFF8
FFFFF8
FFFFF8
FFFFF8
FFFFF0
7FFFF0
7FFFE0
1FFFC0
07FF00
ENDCHAR
STARTCHAR uFFFF5
ENCODING 1048565
SWIDTH 578 0
DWIDTH 21 0
BBX 21 24 0 0
BITMAP
0FFF00
3FFFC0
7F27E0
7F8FF0
FFDFF8
FFDFF8
FBDE78
FCD8F8
FE01F8
FF07F8
FF8FF8
FFCFF8
FFCFF8
FFCFF8
FFDFF8
FFDFF8
FFFFF8
FFFFF8
FFCFF8
FF8FF0
7F8FF0
7FCFE0
1FFFC0
07FF00
ENDCHAR
STARTCHAR uFFFF6
ENCODING 1048566
SWIDTH 578 0
DWIDTH 21 0
BBX 21 24 0 0
BITMAP
0FFF00
3FFFC0
7FDFE0
7FDFF0
FFCFF8
FFCFF8
FFCFF8
FF8FF8
FF07F8
FE01F8
FCD8F8
FBDE78
FFDFF8
FFDFF8
FF8FF8
FF27F8
FFFFF8
FFFFF8
FFCFF8
FF8FF0
7F8FF0
7FCFE0
1FFFC0
07FF00
ENDCHAR
STARTCHAR uFFFF8
ENCODING 1048568
SWIDTH 578 0
DWIDTH 21 0
BBX 21 24 0 0
BITMAP
0FFF00
3FFFC0
7FFFE0
7F8FF0
FF77F8
FF8FF8
FF07F8
FE33F8
FE21F8
FDCDF8
FDCCF8
FC88F8
FC00F8
FC00F8
FC01F8
FE01F8
FF07F8
FFFFF8
FFDFF8
FF8FF0
7F8FF0
7F8FE0
1FFFC0
07FF00
ENDCHAR
STARTCHAR uFFFF9
ENCODING 1048569
SWIDTH 578 0
DWIDTH 21 0
BBX 21 24 0 0
BITMAP
0FFF80
300040
400020
403010
803008
81B608
833208
823108
863108
863108
860108
820108
830308
818608
80FC08
800008
800008
800008
800008
800008
400010
600020
100040
0FFF80
ENDCHAR
STARTCHAR uFFFFB
ENCODING 1048571
SWIDTH 578 0
DWIDTH 21 0
BBX 21 24 0 0
BITMAP
0FFF00
3FFFC0
7FDFE0
7FCFF0
FFD7F8
FCD9F8
FE53F8
FF07F8
FF8FF8
FF8FF8
FF07F8
FE53F8
FCD9F8
FFD3F8
FFC7F8
FFCFF8
FFDFF8
FFFFF8
FFFFF8
FFFFF0
7FFFF0
7FFFE0
1FFFC0
07FF00
ENDCHAR
STARTCHAR uFFFFC
ENCODING 1048572
SWIDTH 578 0
DWIDTH 21 0
BBX 21 24 0 0
BITMAP
0FFF00
3FFFC0
7F07E0
7C00F0
F1FC78
E38738
FC01B8
F8FCF8
FB06F8
FE21F8
FEFDF8
FFCFF8
FF8FF8
FFCFF8
FFFFF8
FFFFF8
FFFFF8
FFFFF8
FFFFF8
FFFFF0
7FFFF0
7FFFE0
1FFFC0
07FF00
ENDCHAR
STARTCHAR uFFFFD
ENCODING 1048573
SWIDTH 578 0
DWIDTH 21 0
BBX 21 24 0 0
BITMAP
0FFF00
3FFFC0
7FFFE0
7F03F0
FE01F8
FC01F8
FC00F8
FC00F8
FC88F8
FDCDF8
FDCDF8
FE23F8
FE33F8
FF07F8
FF8FF8
FF77F8
FF8FF8
FFFFF8
FFDFF8
FF8FF0
7F8FF0
7F8FE0
1FFFC0
07FF00
ENDCHAR
STARTCHAR uFFFFE
ENCODING 1048574
SWIDTH 578 0
DWIDTH 21 0
BBX 21 24 0 0
BITMAP
0FFF00
3FFFC0
7FFFE0
703070
F7A738
E7AFB8
E7AFB8
F02FB8
F86FB8
E7AFB8
E7AFB8
E7A7B8
F02038
F8F8F8
FFFFF8
FFFFF8
FFFFF8
FFFFF8
FFFFF8
FFFFF0
7FFFF0
7FFFE0
1FFFC0
07FF00
ENDCHAR
STARTCHAR uFFFFF
ENCODING 1048575
SWIDTH 578 0
DWIDTH 21 0
BBX 21 24 0 0
BITMAP
0FFF80
300040
400020
40FC10
81FE08
83FE08
83FF08
87FF08
837F08
823208
827208
81DE08
81EC08
80F808
80F408
80D808
807008
800008
802008
807008
407010
607020
100040
0FFF80
ENDCHAR
STARTCHAR .notdef
ENCODING -1
SWIDTH 1000 0
DWIDTH 36 0
BBX 1 1 0 0
BITMAP
00
ENDCHAR
STARTCHAR glyph1
ENCODING -1
SWIDTH 0 0
DWIDTH 0 0
BBX 1 1 0 0
BITMAP
00
ENDCHAR
ENDFONT
